<svg width="20" height="20" viewBox="0 0 20 20" fill="none" xmlns="http://www.w3.org/2000/svg">
<path d="M19.595 1.29224H0.405737C0.180575 1.29224 0 1.47355 0 1.69574V18.3027C0 18.5242 0.180575 18.7085 0.405737 18.7085H19.595C19.8187 18.7085 20 18.5242 20 18.3027V1.69574C20 1.47355 19.8187 1.29224 19.595 1.29224ZM7.52842 4.95501C7.52842 6.14696 6.56387 7.10705 5.37713 7.10705C4.18667 7.10705 3.22509 6.14696 3.22509 4.95501C3.22509 3.76604 4.18741 2.80297 5.37713 2.80297C6.56387 2.80223 7.52842 3.76604 7.52842 4.95501ZM18.3949 16.6285H17.0513V18.0018H15.8824V16.6285H14.5226V15.4603H15.8824V14.1309H17.0513V15.4603H18.3949V16.6285ZM18.655 13.6932H2.8082H1.53898V13.5282L4.92086 9.6626L6.82544 10.9474L9.04362 7.14421L11.6237 8.97225L13.9489 4.14354L18.6832 13.5164V13.6932H18.655Z" fill="#0080A9"/>
</svg>
