<svg width="40" height="40" viewBox="0 0 40 40" fill="none" xmlns="http://www.w3.org/2000/svg">
<g clip-path="url(#clip0_1723_1663)">
<path d="M24.7111 21.6H15.2889C14.5526 21.6 13.9555 21.0031 13.9555 20.2667V15.5556C13.9555 13.8543 14.6783 12.2228 15.9387 11.0792C16.4757 10.5921 17.3035 10.6232 17.8024 11.1495L20 13.468L22.1976 11.1494C22.6928 10.6268 23.5136 10.5918 24.0516 11.0706C25.272 12.1566 26.0444 13.7769 26.0444 15.5556V20.2667C26.0444 21.0031 25.4475 21.6 24.7111 21.6Z" fill="#00D8E0"/>
<path d="M24.0516 11.0706C23.5135 10.5918 22.6928 10.6268 22.1976 11.1494L20 13.468V21.6H24.7111C25.4474 21.6 26.0445 21.0031 26.0445 20.2667V15.5556C26.0445 13.7769 25.272 12.1567 24.0516 11.0706Z" fill="#00A2A9"/>
<path d="M21.3334 21.6001V13.1524C21.3334 12.8498 21.2314 12.5718 21.0616 12.348L20 13.468L18.9384 12.348C18.7687 12.5718 18.6667 12.8498 18.6667 13.1524V21.6001H21.3334Z" fill="#00A2A9"/>
<path d="M21.3334 13.1524C21.3334 12.8498 21.2314 12.5718 21.0616 12.348L20 13.468V21.6001H21.3334V13.1524Z" fill="#007F85"/>
<path d="M19.0323 16.3234L15.867 12.9839C15.3525 12.4411 15.3856 11.5813 15.9386 11.0793C18.2405 8.99024 21.7556 8.98649 24.0614 11.0794C24.6152 11.582 24.6467 12.442 24.133 12.9839L20.9678 16.3234C20.442 16.8783 19.5577 16.8777 19.0323 16.3234Z" fill="#FF9900"/>
<path d="M24.0613 11.0794C22.9089 10.0334 21.4542 9.51103 20 9.51111V16.7393C20.3524 16.7393 20.7049 16.6007 20.9677 16.3234L24.133 12.9838C24.6466 12.442 24.6152 11.582 24.0613 11.0794Z" fill="#FF4F19"/>
<path d="M20 12.0889C16.6671 12.0889 13.9555 9.37734 13.9555 6.04445C13.9555 2.71156 16.6671 0 20 0C23.3329 0 26.0444 2.71156 26.0444 6.04445C26.0444 9.37734 23.3329 12.0889 20 12.0889Z" fill="#FFDB2D"/>
<path d="M31.8222 26.5778H21.3334V24.3556C21.3334 23.6192 20.7364 23.0222 20 23.0222C19.2637 23.0222 18.6666 23.6192 18.6666 24.3556V26.5778H8.17781C7.44148 26.5778 6.84445 27.1747 6.84445 27.9111V33.9556C6.84445 34.6919 7.44141 35.2889 8.17781 35.2889C8.91422 35.2889 9.51117 34.692 9.51117 33.9556V29.2445H18.6667V33.9556C18.6667 34.6919 19.2637 35.2889 20.0001 35.2889C20.7364 35.2889 21.3334 34.692 21.3334 33.9556V29.2445H30.489V33.9556C30.489 34.6919 31.0859 35.2889 31.8223 35.2889C32.5587 35.2889 33.1557 34.692 33.1557 33.9556V27.9111C33.1555 27.1747 32.5586 26.5778 31.8222 26.5778Z" fill="#A7A9AC"/>
<path d="M31.8222 26.5778H21.3334V24.3556C21.3334 23.6192 20.7364 23.0222 20 23.0222V35.2889C20.7363 35.2889 21.3334 34.6919 21.3334 33.9555V29.2444H30.4889V33.9555C30.4889 34.6918 31.0859 35.2889 31.8223 35.2889C32.5587 35.2889 33.1556 34.6919 33.1556 33.9555V27.911C33.1555 27.1747 32.5586 26.5778 31.8222 26.5778Z" fill="#808285"/>
<path d="M10.4889 40H5.77782C5.04149 40 4.44446 39.4031 4.44446 38.6666V33.9556C4.44446 33.2192 5.04141 32.6222 5.77782 32.6222H10.4889C11.2252 32.6222 11.8223 33.2191 11.8223 33.9556V38.6666C11.8222 39.4031 11.2252 40 10.4889 40Z" fill="#B9F7F9"/>
<path d="M22.3111 40H17.6C16.8637 40 16.2666 39.4031 16.2666 38.6666V33.9556C16.2666 33.2192 16.8636 32.6222 17.6 32.6222H22.3111C23.0474 32.6222 23.6444 33.2191 23.6444 33.9556V38.6666C23.6444 39.4031 23.0475 40 22.3111 40Z" fill="#B9F7F9"/>
<path d="M20 0V12.0889C23.3329 12.0889 26.0445 9.37734 26.0445 6.04445C26.0445 2.71156 23.3329 0 20 0Z" fill="#FF9900"/>
<path d="M22.3111 32.6222H20V40H22.3111C23.0474 40 23.6445 39.4031 23.6445 38.6666V33.9556C23.6445 33.2192 23.0475 32.6222 22.3111 32.6222Z" fill="#00D8E0"/>
<path d="M34.2222 40H29.5111C28.7748 40 28.1777 39.4031 28.1777 38.6666V33.9556C28.1777 33.2192 28.7747 32.6222 29.5111 32.6222H34.2222C34.9585 32.6222 35.5555 33.2191 35.5555 33.9556V38.6666C35.5555 39.4031 34.9586 40 34.2222 40Z" fill="#00D8E0"/>
</g>
<defs>
<clipPath id="clip0_1723_1663">
<rect width="40" height="40" fill="white"/>
</clipPath>
</defs>
</svg>
