<svg width="40" height="40" viewBox="0 0 40 40" fill="none" xmlns="http://www.w3.org/2000/svg">
<g clip-path="url(#clip0_1421_1095)">
<path d="M34.1935 28.3871C34.1935 27.4265 33.7632 26.5723 33.0948 25.9806C33.3793 25.5671 33.5484 25.0671 33.5484 24.5284V24.1832C33.5484 23.9065 33.5039 23.6335 33.4161 23.371L30.6735 15.1419C29.9697 13.031 28.0019 11.6129 25.7774 11.6129H23.6419C24.96 10.5477 25.8064 8.92 25.8064 7.09677V5.00258C25.8064 2.24387 23.5619 0 20.8039 0H19.1961C16.4374 0 14.1935 2.24387 14.1935 5.00258V7.09677C14.1935 8.92 15.04 10.5477 16.3581 11.6129H14.2226C11.9981 11.6129 10.0303 13.031 9.32644 15.1419L6.58386 23.3703C6.49612 23.6329 6.45161 23.9065 6.45161 24.1826V24.5277C6.45161 25.0671 6.61999 25.5671 6.90515 25.9806C6.23677 26.5723 5.80644 27.4265 5.80644 28.3871H3.2258V38.7097H13.5484V40H19.3548H20H26.4516V38.7097H36.7742V28.3871H34.1935ZM32.9032 28.3871H29.0323C29.0323 27.7452 29.3503 27.1787 29.8329 26.8265C30.1813 27 30.571 27.0968 30.98 27.0968C31.3845 27.0968 31.7626 26.9942 32.1032 26.8271C32.5858 27.1794 32.9032 27.7452 32.9032 28.3871ZM32.1922 23.7794C32.2361 23.9097 32.2581 24.0458 32.2581 24.1826V24.5277C32.2581 24.8348 32.1445 25.1135 31.9632 25.3342C31.6477 25.2316 31.3174 25.1613 30.9677 25.1613C30.6226 25.1613 30.2968 25.2303 29.9845 25.331C29.9064 25.2335 29.8413 25.1239 29.7929 25.0032L27.3787 18.9677L30.1303 17.5923L32.1922 23.7794ZM28.8581 25.9665C28.18 26.5581 27.7419 27.4187 27.7419 28.3871H26.4516V20.1252L28.5942 25.4826C28.6639 25.6568 28.7561 25.8155 28.8581 25.9665ZM15.4839 5.00194C15.4839 2.95548 17.149 1.29032 19.1961 1.29032H20.8039C22.851 1.29032 24.5161 2.95548 24.5161 5.00258V5.25226C24.1658 4.95677 23.851 4.61355 23.5858 4.21548C23.1729 3.59548 22.4826 3.22581 21.7374 3.22581H18.2619C17.5174 3.22581 16.8264 3.59548 16.3923 4.24839C16.14 4.6271 15.8303 4.96258 15.4839 5.25355V5.00194ZM15.4839 7.09677V6.82C16.2729 6.35484 16.9593 5.72323 17.489 4.92968C17.6613 4.67097 17.9503 4.51613 18.2626 4.51613H21.7381C22.0497 4.51613 22.3393 4.67097 22.5342 4.96387C23.0432 5.7271 23.7277 6.35548 24.5161 6.82V7.09677C24.5161 9.58645 22.4897 11.6129 20 11.6129C17.5103 11.6129 15.4839 9.58645 15.4839 7.09677ZM22.4219 12.9032C22.0658 13.6529 21.12 14.1935 20 14.1935C18.88 14.1935 17.9342 13.6529 17.5781 12.9032H20H22.4219ZM7.74193 24.1832C7.74193 24.0458 7.76386 23.9097 7.80774 23.7794L9.86967 17.5923L12.6213 18.9684L10.2071 25.0032C10.1587 25.1239 10.0935 25.2342 10.0148 25.3316C9.70322 25.2303 9.37741 25.1613 9.03225 25.1613C8.68257 25.1613 8.35225 25.2316 8.03677 25.3348C7.85548 25.1142 7.74193 24.8355 7.74193 24.5284V24.1832ZM7.89677 26.8271C8.23806 26.9942 8.61548 27.0968 9.01999 27.0968C9.42903 27.0968 9.8187 27 10.1664 26.8265C10.6497 27.1787 10.9677 27.7452 10.9677 28.3871H7.09677C7.09677 27.7452 7.41419 27.1794 7.89677 26.8271ZM13.5484 37.4194H4.51612V29.6774H5.80644V30.9677H7.09677V29.6774H10.9677V30.9677H12.2581V29.6774H13.5484V37.4194ZM13.5484 28.3871H12.2581C12.2581 27.4181 11.82 26.5581 11.1413 25.9665C11.2432 25.8155 11.3355 25.6568 11.4058 25.4819L13.5484 20.1245V28.3871ZM19.3548 38.7097H14.8387V37.4194H19.3548V38.7097ZM25.1613 38.7097H20.6452V37.4194H25.1613V38.7097ZM25.1613 36.129H20.6452V29.0323H19.3548V36.129H14.8387V29.6123C16.309 29.3123 17.4193 28.009 17.4193 26.4516H22.5806C22.5806 28.009 23.691 29.3123 25.1613 29.6123V36.129ZM14.8387 28.2684V26.4516H16.129C16.129 27.2916 15.5877 28.0013 14.8387 28.2684ZM25.1613 28.2684C24.4116 28.0013 23.871 27.2916 23.871 26.4516H25.1613V28.2684ZM25.1613 16.129V25.1613H14.8387V16.129H13.5484V16.6497L13.1019 17.7652L10.2813 16.3548L10.5497 15.5497C11.0781 13.9665 12.5542 12.9032 14.2226 12.9032H16.2071C16.5664 14.3735 18.1303 15.4839 20 15.4839C21.8697 15.4839 23.4329 14.3735 23.7929 12.9032H25.7774C27.4458 12.9032 28.9219 13.9665 29.4497 15.5503L29.7181 16.3555L26.8974 17.7658L26.4516 16.6497V16.129H25.1613ZM35.4839 37.4194H26.4516V29.6774H27.7419V30.9677H29.0323V29.6774H32.9032V30.9677H34.1935V29.6774H35.4839V37.4194Z" fill="#26B074"/>
</g>
<defs>
<clipPath id="clip0_1421_1095">
<rect width="40" height="40" fill="white"/>
</clipPath>
</defs>
</svg>
