<svg width="60" height="60" viewBox="0 0 60 60" fill="none" xmlns="http://www.w3.org/2000/svg">
<path d="M35.22 47.3402C35.949 47.3402 36.54 46.7492 36.54 46.0202C36.54 45.2912 35.949 44.7002 35.22 44.7002C34.491 44.7002 33.9 45.2912 33.9 46.0202C33.9 46.7492 34.491 47.3402 35.22 47.3402Z" fill="black"/>
<path d="M41.7 47.3402C42.429 47.3402 43.02 46.7492 43.02 46.0202C43.02 45.2912 42.429 44.7002 41.7 44.7002C40.971 44.7002 40.38 45.2912 40.38 46.0202C40.38 46.7492 40.971 47.3402 41.7 47.3402Z" fill="black"/>
<path d="M22.38 25.8604C21.48 24.4204 20.94 22.7404 20.94 20.8804C20.94 17.7604 22.26 15.1204 24.36 13.5604C23.58 12.2404 22.26 11.4004 20.4 11.4004C17.34 11.4004 15.66 13.8604 15.66 16.6804C15.66 18.2404 16.2 19.5004 17.22 20.4604C17.82 21.0004 18.3 21.6604 18.3 22.4404C18.3 23.1604 18.06 23.8204 16.32 24.5404C13.86 25.6804 11.58 27.0604 11.52 29.4004C11.52 30.9604 12.54 32.0404 13.98 32.0404H16.26C16.62 32.0404 16.98 31.8004 17.16 31.5004C18.3 29.5204 20.34 28.2004 22.08 27.3604C22.5 27.0604 22.74 26.3404 22.38 25.8604Z" fill="black"/>
<path d="M35.04 39.8407H43.02C43.26 39.8407 43.5 39.6607 43.5 39.4207L44.9401 34.2607C45.0601 33.9007 44.76 33.6007 44.46 33.6007H36H32.16L31.98 32.8207C31.86 32.4607 31.56 32.2207 31.2 32.2207H29.88C29.46 32.2207 29.04 32.5807 29.04 33.0007C28.98 33.4807 29.4 33.8407 29.82 33.8407H30.6L31.32 36.2407L33.12 42.4207C33.24 42.7807 33.54 43.0207 33.9 43.0207H43.26C43.68 43.0207 44.1 42.6607 44.1 42.2407C44.16 41.7607 43.74 41.4007 43.32 41.4007H35.04C34.68 41.4007 34.38 41.1607 34.26 40.8607V40.8007C34.14 40.3207 34.5 39.8407 35.04 39.8407Z" fill="black"/>
<path d="M29.0401 36.9605L28.8001 36.0605C28.2601 35.8805 27.8401 35.5805 27.4801 35.1605C26.9401 34.5005 26.6401 33.7205 26.7001 32.8805C26.7601 31.2005 28.2601 29.8805 29.9401 29.8805H31.2001C32.2801 29.8805 33.2401 30.4205 33.8401 31.2605H36.0001H37.2601C36.3001 30.6005 35.1601 30.0605 34.0201 29.5805C32.1001 28.8005 31.8601 28.0205 31.8601 27.2405C31.8601 26.4605 32.4001 25.6805 33.0001 25.0805C34.1401 24.0605 34.7401 22.6205 34.7401 20.8805C34.7401 17.7605 32.8201 15.0605 29.4601 15.0605C26.1001 15.0605 24.1801 17.7605 24.1801 20.8805C24.1801 22.5605 24.8401 24.0005 25.9201 25.0805C26.5801 25.6805 27.0601 26.4605 27.0601 27.2405C27.0601 28.0205 26.7601 28.8005 24.9001 29.5805C22.0201 30.7205 19.3801 32.1005 19.3201 34.6805C19.3201 36.3605 20.5201 37.8605 22.1401 37.8605H29.2201L29.0401 36.9605Z" fill="black"/>
<path d="M37.86 20.8804C37.86 22.7404 37.38 24.4204 36.42 25.8604C36.06 26.4004 36.24 27.0604 36.84 27.4204C38.52 28.2004 40.44 29.4004 41.58 31.2604H44.46C45.06 31.2604 45.6 31.4404 46.08 31.8004C46.86 31.3804 47.34 30.5404 47.34 29.4604C47.28 27.1204 45 25.6804 42.54 24.5404C40.8 23.8204 40.56 23.1004 40.56 22.4404C40.56 21.7204 41.04 21.0004 41.64 20.4604C42.66 19.5004 43.2 18.2404 43.2 16.6804C43.2 13.8004 41.52 11.4004 38.46 11.4004C36.6 11.4004 35.28 12.2404 34.5 13.5604C36.54 15.1204 37.86 17.7004 37.86 20.8804Z" fill="black"/>
</svg>
