<svg width="20" height="20" viewBox="0 0 20 20" fill="none" xmlns="http://www.w3.org/2000/svg">
<path fill-rule="evenodd" clip-rule="evenodd" d="M14.7064 0C15.0311 0 15.2946 0.263531 15.2946 0.58824V1.17647H17.0594C18.0323 1.17647 18.8241 1.96824 18.8241 2.94118V20H1.177V2.94118C1.177 1.96824 1.96876 1.17647 2.94171 1.17647H4.70641V0.58824C4.70641 0.263531 4.96995 0 5.29465 0C5.61936 0 5.88289 0.263531 5.88289 0.58824V1.17647H14.1182V0.58824C14.1182 0.263531 14.3817 0 14.7064 0ZM16.4711 12.9412H12.9417V16.4706H16.4711V12.9412ZM11.7652 12.9412H8.23582V16.4706H11.7652V12.9412ZM7.05936 12.9412H3.52994V16.4706H7.05936V12.9412ZM16.4711 8.23529H12.9417V11.7647H16.4711V8.23529ZM11.7652 8.23529H8.23582V11.7647H11.7652V8.23529ZM7.05936 8.23529H3.52994V11.7647H7.05936V8.23529ZM4.70641 2.35294H2.94171C2.61818 2.35294 2.35348 2.61647 2.35348 2.94118V4.70589H17.6476V2.94118C17.6476 2.61647 17.3829 2.35294 17.0594 2.35294H15.2946V2.94118C15.2946 3.26589 15.0311 3.52942 14.7064 3.52942C14.3817 3.52942 14.1182 3.26589 14.1182 2.94118V2.35294H5.88289V2.94118C5.88289 3.26589 5.61936 3.52942 5.29465 3.52942C4.96995 3.52942 4.70641 3.26589 4.70641 2.94118V2.35294Z" fill="black"/>
</svg>
