<svg width="20" height="20" viewBox="0 0 20 20" fill="none" xmlns="http://www.w3.org/2000/svg">
<path fill-rule="evenodd" clip-rule="evenodd" d="M10 8.54175C10.3452 8.54175 10.625 8.82158 10.625 9.16675V10.2084H11.6667C12.0119 10.2084 12.2917 10.4882 12.2917 10.8334C12.2917 11.1786 12.0119 11.4584 11.6667 11.4584H10.625V12.5001C10.625 12.8452 10.3452 13.1251 10 13.1251C9.65487 13.1251 9.37504 12.8452 9.37504 12.5001V11.4584H8.33337C7.9882 11.4584 7.70837 11.1786 7.70837 10.8334C7.70837 10.4882 7.9882 10.2084 8.33337 10.2084H9.37504V9.16675C9.37504 8.82158 9.65487 8.54175 10 8.54175Z" fill="#0080A9"/>
<path fill-rule="evenodd" clip-rule="evenodd" d="M8.14811 17.5H11.8518C14.4527 17.5 15.7531 17.5 16.6873 16.8872C17.0916 16.6218 17.4389 16.2809 17.7091 15.8839C18.3333 14.9667 18.3333 13.6899 18.3333 11.1363C18.3333 8.58283 18.3333 7.30601 17.7091 6.38883C17.4389 5.99178 17.0916 5.65087 16.6873 5.38557C16.087 4.99177 15.3355 4.85102 14.185 4.80072C13.6359 4.80072 13.1632 4.39223 13.0555 3.86363C12.894 3.07074 12.1849 2.5 11.3614 2.5H8.63854C7.815 2.5 7.10592 3.07074 6.9444 3.86363C6.83673 4.39223 6.364 4.80072 5.81496 4.80072C4.6644 4.85102 3.91292 4.99177 3.31266 5.38557C2.90825 5.65087 2.56103 5.99178 2.29081 6.38883C1.66663 7.30601 1.66663 8.58283 1.66663 11.1363C1.66663 13.6899 1.66663 14.9667 2.29081 15.8839C2.56103 16.2809 2.90825 16.6218 3.31266 16.8872C4.24683 17.5 5.54725 17.5 8.14811 17.5ZM13.3333 10.8333C13.3333 12.6742 11.8409 14.1667 9.99996 14.1667C8.15901 14.1667 6.66663 12.6742 6.66663 10.8333C6.66663 8.99242 8.15901 7.5 9.99996 7.5C11.8409 7.5 13.3333 8.99242 13.3333 10.8333ZM15 7.70833C14.6548 7.70833 14.375 7.98816 14.375 8.33333C14.375 8.6785 14.6548 8.95833 15 8.95833H15.8333C16.1785 8.95833 16.4583 8.6785 16.4583 8.33333C16.4583 7.98816 16.1785 7.70833 15.8333 7.70833H15Z" fill="#0080A9"/>
</svg>
