<svg width="20" height="20" viewBox="0 0 20 20" fill="none" xmlns="http://www.w3.org/2000/svg">
<path d="M13.5287 10.4001C15.3397 10.4001 16.8 11.9215 16.8 13.7131C16.7947 15.0492 15.9843 16.2502 14.7473 16.7552C13.5102 17.2601 12.0908 16.9693 11.152 16.0186C10.2132 15.0679 9.94034 13.6449 10.4609 12.4143C10.9814 11.1838 12.1926 10.3886 13.5287 10.4001ZM15.22 11.6691C15.1419 11.5911 15.0153 11.5911 14.9372 11.6693L13.4793 13.1284L12.1007 11.7463C12.1006 11.7462 12.1005 11.7461 12.1005 11.7461L12.0816 11.7294C12.0032 11.6684 11.8897 11.674 11.8176 11.7461L11.4859 12.0778C11.4079 12.1558 11.4078 12.2823 11.4858 12.3604L12.8648 13.743L11.494 15.1126L11.4772 15.1314C11.4162 15.2099 11.4218 15.3233 11.4939 15.3954L11.8269 15.7283C11.905 15.8064 12.0316 15.8064 12.1097 15.7283L13.4806 14.3575L14.9308 15.8101C14.9307 15.8102 14.9308 15.8103 14.9308 15.8103L14.9496 15.8269C15.0281 15.8879 15.1415 15.8824 15.2135 15.8102L15.5452 15.4785C15.6232 15.4003 15.6232 15.2738 15.5453 15.1955L14.0951 13.743L15.553 12.2851C15.6311 12.207 15.6311 12.0803 15.553 12.0022L15.22 11.6691C15.2201 11.6691 15.22 11.6692 15.22 11.6691ZM8.16005 13.4C8.8007 13.4 9.32005 13.9194 9.32005 14.56C9.32005 15.2007 8.8007 15.72 8.16005 15.72C7.5194 15.72 7.00005 15.2007 7.00005 14.56C7.00005 13.9194 7.5194 13.4 8.16005 13.4ZM4.60914 3C4.90293 3 5.17412 3.2025 5.26452 3.495L5.44532 4.125H15.7506C16.0444 4.125 16.2704 4.395 16.1798 4.6875L14.9594 8.9625C14.9373 9.06183 14.8825 9.14492 14.8084 9.2038C14.3944 9.08272 13.9572 9.018 13.5055 9.018C12.9454 9.018 12.4074 9.11758 11.9083 9.29991L7.86345 9.3C7.43406 9.3 7.09507 9.7275 7.25327 10.155V10.1775C7.32106 10.4475 7.59226 10.65 7.88605 10.65L9.95795 10.6501C9.61451 11.048 9.33648 11.5037 9.141 12.0001L6.89168 12C6.57529 12 6.32669 11.7975 6.23629 11.505L4.11195 4.35H3.47917C3.09498 4.35 2.77859 4.0125 2.80119 3.63C2.82379 3.27 3.16278 3 3.52437 3H4.60914Z" fill="black" fill-opacity="0.7"/>
</svg>
