<svg width="31" height="30" viewBox="0 0 31 30" fill="none" xmlns="http://www.w3.org/2000/svg">
<path fill-rule="evenodd" clip-rule="evenodd" d="M11.0224 4.06361C11.3732 3.32396 12.1268 2.8125 12.9999 2.8125H17.9999C18.8729 2.8125 19.6265 3.32396 19.9774 4.06361C20.8318 4.06982 21.4978 4.10905 22.0921 4.34136C22.8024 4.61895 23.4201 5.09082 23.8748 5.70302C24.3334 6.32062 24.5488 7.11224 24.8451 8.2018L25.7725 11.6034L26.123 12.655C26.133 12.6674 26.1429 12.6797 26.1526 12.6924C27.2788 14.1345 26.7425 16.2794 25.6701 20.5691C24.988 23.2975 24.6469 24.6616 23.6298 25.4559C22.6125 26.2501 21.2064 26.2501 18.394 26.2501H12.6057C9.79333 26.2501 8.38717 26.2501 7.36994 25.4559C6.35272 24.6616 6.01167 23.2975 5.32958 20.5691C4.25714 16.2794 3.72093 14.1345 4.84697 12.6924C4.85682 12.6797 4.86675 12.6672 4.87678 12.6549L5.22725 11.6034L6.15468 8.20181C6.45103 7.11225 6.66633 6.32062 7.12499 5.70302C7.57964 5.09082 8.1974 4.61895 8.90764 4.34137C9.50207 4.10905 10.168 4.06982 11.0224 4.06361ZM11.0243 5.94039C10.1969 5.94875 9.86493 5.98034 9.59018 6.08772C9.20774 6.2372 8.8751 6.49129 8.63029 6.82092C8.41015 7.11735 8.28098 7.5315 7.91735 8.86507L7.2054 11.4761C8.48052 11.2501 10.2218 11.2501 12.6057 11.2501H18.394C20.7779 11.2501 22.5193 11.2501 23.7944 11.4761L23.0824 8.86507C22.7188 7.5315 22.5896 7.11735 22.3695 6.82092C22.1246 6.49129 21.792 6.2372 21.4096 6.08772C21.1349 5.98034 20.8029 5.94875 19.9755 5.94039C19.6239 6.67787 18.8714 7.1875 17.9999 7.1875H12.9999C12.1284 7.1875 11.3759 6.67787 11.0243 5.94039Z" fill="white"/>
</svg>
