<svg width="18" height="16" viewBox="0 0 18 16" fill="none" xmlns="http://www.w3.org/2000/svg">
<path d="M6.25 13C6.94036 13 7.5 13.5597 7.5 14.25C7.5 14.9403 6.94036 15.5 6.25 15.5C5.55964 15.5 5 14.9403 5 14.25C5 13.5597 5.55964 13 6.25 13Z" stroke="#FB803B"/>
<path d="M13.75 13.0001C14.4403 13.0001 15 13.5597 15 14.2501C15 14.9405 14.4403 15.5001 13.75 15.5001C13.0597 15.5001 12.5 14.9405 12.5 14.2501C12.5 13.5597 13.0597 13.0001 13.75 13.0001Z" stroke="#FB803B"/>
<path d="M9.16669 7L10.1191 8L12.5 5.5" stroke="#FB803B" stroke-linecap="round" stroke-linejoin="round"/>
<path d="M1.66669 0.5L1.88436 0.576533C2.96902 0.957875 3.51135 1.14855 3.82155 1.60248C4.13175 2.05643 4.13175 2.65938 4.13175 3.8653V6.13333C4.13175 8.58467 4.18445 9.39358 4.90645 10.1552C5.62845 10.9167 6.7905 10.9167 9.1146 10.9167H10M13.5337 10.9167C14.8345 10.9167 15.4849 10.9167 15.9447 10.542C16.4044 10.1673 16.5358 9.53033 16.7984 8.25625L17.2149 6.23562C17.5041 4.78641 17.6487 4.06181 17.2788 3.5809C16.9089 3.1 15.6449 3.1 14.2407 3.1H9.18627M4.13175 3.1H5.83335" stroke="#FB803B" stroke-linecap="round"/>
</svg>
