<svg width="21" height="19" viewBox="0 0 21 19" fill="none" xmlns="http://www.w3.org/2000/svg">
<path d="M19.5312 0.625C20.0938 4.8125 20 8.1875 19.1562 10.3437L11.4062 4.59375C12.9375 3 16.0625 1.09375 19.5312 0.625Z" fill="#DADEE0"/>
<path d="M18.5313 10.0625L15.3438 5.90625C15.3438 5.90625 15.9375 3.625 18.9687 2.03125C19.875 5.65625 18.5313 10.0625 18.5313 10.0625Z" fill="#F7A4A4"/>
<path d="M17.3125 9.125L15.3438 6.5625C15.3438 6.5625 16.1562 5 18.0312 4C16.9375 6.34375 17.3125 9.125 17.3125 9.125Z" fill="#F78D8D"/>
<path d="M1.4688 0.625C0.906305 4.8125 1.00005 8.1875 1.8438 10.3437L9.5938 4.5625C8.06255 3 4.93755 1.09375 1.4688 0.625Z" fill="#DADEE0"/>
<path d="M2.46881 10.0625L5.68756 5.90625C5.68756 5.90625 5.09381 3.625 2.06256 2.03125C1.12506 5.65625 2.46881 10.0625 2.46881 10.0625Z" fill="#F7A4A4"/>
<path d="M3.6875 9.125L5.6875 6.5625C5.6875 6.5625 4.875 5 3 4C4.0625 6.34375 3.6875 9.125 3.6875 9.125Z" fill="#F78D8D"/>
<path d="M18.6875 15.875C18.9375 15.5938 19.125 15.375 19.2188 15.1875C19.7188 14.375 19.875 13.5312 19.875 13.5312L19.25 13.6562C19.25 13.6562 19.9688 12.875 19.7812 11.2188L19.1562 11.875C19.1562 11.875 19.75 10.1875 19.25 8.625L18.5625 9.125C18.5625 9.125 18.7812 8.5 18.5938 8.0625L18.3125 8.28125C18.3125 8.28125 18.8438 6.8125 18.375 6.21875C18.0938 7.09375 17.7812 7.09375 17.7812 7.09375C17.7812 7.09375 18.1562 6.4375 17.875 6.15625C17.5625 6.65625 17.3125 6.34375 17.3125 6.1875C17.3438 6 17.25 5.71875 18.1562 5.5625C17.4375 5.125 16.5625 5.4375 16.5625 5.4375C16.5625 5.4375 16.5938 4.96875 17.2188 5C16.625 4.5 15.8125 4.8125 15.8125 4.8125C14.5312 3.84375 12.8125 3.28125 10.4688 3.28125C8.15625 3.28125 6.4375 3.84375 5.125 4.8125C5.125 4.8125 4.3125 4.53125 3.71875 5C4.34375 4.96875 4.375 5.4375 4.375 5.4375C4.375 5.4375 3.53125 5.125 2.78125 5.5625C3.6875 5.6875 3.625 5.96875 3.625 6.1875C3.625 6.34375 3.375 6.65625 3.0625 6.15625C2.75 6.4375 3.15625 7.09375 3.15625 7.09375C3.15625 7.09375 2.84375 7.09375 2.5625 6.21875C2.09375 6.84375 2.625 8.28125 2.625 8.28125L2.34375 8.0625C2.15625 8.5 2.375 9.125 2.375 9.125L1.75 8.625C1.21875 10.1875 1.84375 11.875 1.84375 11.875L1.25 11.2188C1.03125 12.875 1.75 13.6562 1.75 13.6562L1.125 13.5312C1.125 13.5312 1.28125 14.375 1.78125 15.1875C1.84375 15.3438 2.03125 15.5938 2.3125 15.875L2.34375 15.9062C3.625 17.1875 6.78125 19.375 10.5 19.375C14.2188 19.375 17.375 17.1875 18.6562 15.9062C18.6562 15.875 18.6875 15.875 18.6875 15.875Z" fill="#DADEE0"/>
<path d="M12.2813 3.375C11.7188 3.28125 11.125 3.25 10.5 3.25C9.875 3.25 9.28125 3.28125 8.71875 3.375C8.9375 4.59375 9.59375 5.4375 10.5 7C11.4375 5.40625 12.0625 4.5625 12.2813 3.375Z" fill="#94989B"/>
<path d="M15.125 4.3125C14.5312 3.96875 13.8438 3.71875 13.0938 3.53125C13.2812 4.25 13.6875 4.75 14.2188 5.6875C14.625 5.03125 14.9062 4.84375 15.125 4.3125Z" fill="#94989B"/>
<path d="M7.90625 3.53125C7.125 3.71875 6.46875 3.96875 5.875 4.3125C6.09375 4.875 6.40625 5.03125 6.78125 5.6875C7.34375 4.71875 7.71875 4.21875 7.90625 3.53125Z" fill="#94989B"/>
<path d="M11.75 12.125C11.5 11.8438 10.7187 11.8125 10.5 11.8125C10.2812 11.8125 9.49996 11.8438 9.24996 12.125C9.06246 12.3438 9.21871 12.8437 9.68746 13.3125C9.99996 13.5937 10.2812 13.6875 10.5 13.6875C10.7187 13.6875 11.0312 13.5937 11.3125 13.3125C11.8125 12.8437 11.9375 12.3125 11.75 12.125Z" fill="#4C5359"/>
<path d="M8.09378 9.62541C8.09378 9.62541 7.93753 8.50041 6.68753 8.06291C5.28128 7.53166 4.31253 8.50041 4.03128 9.21916C3.65628 10.2817 4.12503 11.4379 4.28128 11.7192C4.37503 11.9067 5.43753 12.7192 7.78128 11.9379C7.78128 11.9379 8.37503 10.7504 8.09378 9.62541Z" fill="white"/>
<path d="M8.09373 9.6252C8.09373 9.6252 6.24999 8.1252 6.12499 8.1252C5.65624 8.1252 5.24999 8.0002 4.90624 8.3127C4.56249 8.6252 4.31249 9.03145 4.18749 9.46895C4.06249 9.90645 4.09374 10.4065 4.18749 10.844C4.24999 11.0627 4.31249 11.3127 4.40624 11.5315L4.43749 11.594L4.46874 11.6252C4.49999 11.6565 4.53124 11.6877 4.59374 11.719C4.68749 11.7815 4.78124 11.844 4.87499 11.8752C5.31249 12.0627 5.78123 12.1252 6.28124 12.1252C6.78124 12.1252 7.28123 12.0315 7.78123 11.9065C7.31248 12.1252 6.81249 12.2502 6.31249 12.344C5.81249 12.4065 5.24999 12.4065 4.74999 12.219C4.62499 12.1877 4.49998 12.1252 4.37498 12.0315C4.31248 12.0002 4.24999 11.9377 4.18749 11.9065C4.15624 11.9065 4.15624 11.8752 4.12499 11.844L4.09374 11.8127L4.06248 11.7815L3.99999 11.6877C3.87499 11.4377 3.78124 11.1877 3.71874 10.9377C3.59374 10.4377 3.56249 9.8752 3.68749 9.34395C3.84374 8.8127 4.15624 8.34395 4.56249 7.96895C4.96874 7.6252 5.53123 7.6877 6.09373 7.7502C6.28123 7.78145 8.09373 9.6252 8.09373 9.6252Z" fill="#B2B6B8"/>
<path d="M12.9062 9.62541C12.9062 9.62541 13.0624 8.50041 14.3124 8.06291C15.7187 7.53166 16.6874 8.50041 16.9687 9.21916C17.3437 10.2817 16.8749 11.4379 16.7187 11.7192C16.6249 11.9067 15.5624 12.7192 13.2187 11.9379C13.2187 11.9379 12.6249 10.7504 12.9062 9.62541Z" fill="white"/>
<path d="M12.9062 9.6252C12.9062 9.6252 14.7188 7.78145 14.8438 7.7502C15.4063 7.6877 15.9687 7.6252 16.375 7.96895C16.7812 8.34395 17.0937 8.78145 17.25 9.34395C17.375 9.8752 17.3438 10.4377 17.2188 10.969C17.1562 11.219 17.0625 11.469 16.9375 11.719L16.875 11.8127L16.8437 11.844V11.8752L16.7812 11.9377C16.7187 12.0002 16.6562 12.0315 16.5937 12.0627L16.2187 12.2502C15.6875 12.4377 15.1562 12.4377 14.6562 12.3752C14.1562 12.2815 13.6562 12.1565 13.1875 11.9377C13.6875 12.0315 14.1875 12.1252 14.6875 12.1565C15.1875 12.1565 15.6875 12.094 16.0938 11.9065C16.1875 11.8752 16.3125 11.8127 16.375 11.7502C16.4062 11.719 16.4688 11.6877 16.5 11.6565L16.5312 11.6252L16.5625 11.5627C16.6563 11.344 16.7187 11.1252 16.7812 10.8752C16.875 10.4065 16.9062 9.9377 16.7812 9.5002C16.6562 9.0627 16.4062 8.65645 16.0625 8.34395C15.7187 8.03145 15.3125 8.15645 14.8438 8.15645C14.75 8.1252 12.9062 9.6252 12.9062 9.6252Z" fill="#B2B6B8"/>
<path d="M14.25 11.5625C14.9404 11.5625 15.5 10.9329 15.5 10.1562C15.5 9.3796 14.9404 8.75 14.25 8.75C13.5596 8.75 13 9.3796 13 10.1562C13 10.9329 13.5596 11.5625 14.25 11.5625Z" fill="#4C5359"/>
<path d="M6.75 11.5625C7.44036 11.5625 8 10.9329 8 10.1562C8 9.3796 7.44036 8.75 6.75 8.75C6.05964 8.75 5.5 9.3796 5.5 10.1562C5.5 10.9329 6.05964 11.5625 6.75 11.5625Z" fill="#4C5359"/>
<path d="M17.9688 7.65625C17.375 7.71875 16.875 7.8125 16.3437 7.9375C15.8437 8.0625 15.375 8.25 14.9062 8.46875C14.4375 8.6875 14 8.9375 13.5938 9.21875C13.1562 9.53125 12.7812 9.875 12.3438 10.2813C12.4062 9.6875 12.6875 9.125 13.0937 8.6875C13.4687 8.21875 14 7.875 14.5312 7.625C15.0938 7.375 15.6875 7.21875 16.2812 7.21875C16.875 7.21875 17.4688 7.34375 17.9688 7.65625Z" fill="#4C5359"/>
<path d="M3.03125 7.65627C3.53125 7.34377 4.125 7.18752 4.71875 7.21877C5.3125 7.21877 5.90625 7.37502 6.46875 7.62502C7 7.87502 7.5 8.25002 7.90625 8.68752C8.28125 9.15627 8.59375 9.68752 8.65625 10.2813C8.25 9.87502 7.84375 9.53127 7.40625 9.21877C6.96875 8.90627 6.53125 8.65627 6.09375 8.46877C5.625 8.25002 5.15625 8.09377 4.65625 7.93752C4.125 7.81252 3.625 7.71877 3.03125 7.65627Z" fill="#4C5359"/>
<path d="M8.56245 16.7186C10.3749 17.1561 13.2812 16.7186 14.7499 15.6249C15.1249 15.3436 14.3749 14.3749 14.0312 14.6561C13.0312 15.3749 10.5312 15.9374 8.8437 15.5624C8.4062 15.4374 8.0937 16.5936 8.56245 16.7186Z" fill="#4C5359"/>
</svg>
