<svg width="27" height="27" viewBox="0 0 27 27" fill="none" xmlns="http://www.w3.org/2000/svg">
<path d="M6.75 12.375C6.75 9.19302 6.75 7.60203 7.73852 6.61352C8.72703 5.625 10.318 5.625 13.5 5.625H16.875C20.0569 5.625 21.6479 5.625 22.6365 6.61352C23.625 7.60203 23.625 9.19302 23.625 12.375V18C23.625 21.182 23.625 22.7729 22.6365 23.7615C21.6479 24.75 20.0569 24.75 16.875 24.75H13.5C10.318 24.75 8.72703 24.75 7.73852 23.7615C6.75 22.7729 6.75 21.182 6.75 18V12.375Z" stroke="#1C274C"/>
<path d="M6.75 21.375C4.88604 21.375 3.375 19.864 3.375 18V11.25C3.375 7.00736 3.375 4.88604 4.69302 3.56802C6.01104 2.25 8.13236 2.25 12.375 2.25H16.875C18.739 2.25 20.25 3.76104 20.25 5.625" stroke="#1C274C"/>
</svg>
