<svg width="15" height="15" viewBox="0 0 15 15" fill="none" xmlns="http://www.w3.org/2000/svg">
<g clip-path="url(#clip0_1366_708)">
<path d="M0.785149 14.9883C0.691399 14.9883 0.597649 14.9531 0.527337 14.8711C0.457024 14.8008 0.421868 14.707 0.433587 14.6016L1.17187 3.25781C1.18359 3.07031 1.33593 2.92969 1.52343 2.92969H4.61718V2.88281C4.61718 2.10938 4.92187 1.39453 5.46093 0.84375C6.01171 0.316406 6.72656 0.0117188 7.49999 0.0117188C9.08203 0.0117188 10.3828 1.30078 10.3828 2.89453C10.3828 2.90625 10.3711 2.91797 10.3711 2.92969V2.94141H13.4766C13.6641 2.94141 13.8164 3.08203 13.8281 3.26953L14.5547 14.5313C14.5664 14.5664 14.5664 14.5898 14.5664 14.625C14.5547 14.8242 14.4023 14.9883 14.2031 14.9883H0.785149ZM1.16015 14.2852H13.8281L13.1484 3.64453H10.3711V4.48828H10.3828C10.5703 4.61719 10.6758 4.80469 10.6758 5.01563C10.6758 5.37891 10.3828 5.67188 10.0195 5.67188C9.65624 5.67188 9.36328 5.37891 9.36328 5.01563C9.36328 4.80469 9.46874 4.61719 9.65624 4.48828H9.66796V3.64453H5.32031V4.48828H5.33202C5.51952 4.61719 5.62499 4.80469 5.62499 5.01563C5.62499 5.37891 5.33203 5.67188 4.96874 5.67188C4.60546 5.67188 4.31249 5.37891 4.31249 5.01563C4.31249 4.80469 4.41796 4.61719 4.60546 4.48828H4.61718V3.64453H1.83984L1.16015 14.2852ZM7.49999 0.726562C6.30468 0.726562 5.32031 1.69922 5.32031 2.90625V2.95313H9.6914L9.67968 2.92969V2.90625C9.67968 1.69922 8.69531 0.726562 7.49999 0.726562Z" fill="#26B074"/>
</g>
<defs>
<clipPath id="clip0_1366_708">
<rect width="15" height="15" fill="white"/>
</clipPath>
</defs>
</svg>
