<svg width="20" height="20" viewBox="0 0 20 20" fill="none" xmlns="http://www.w3.org/2000/svg">
<g clip-path="url(#clip0_1045_671)">
<path d="M18.3334 2.95833V5.83333C18.3334 6.05434 18.2456 6.26631 18.0893 6.42259C17.933 6.57887 17.721 6.66666 17.5 6.66666H14.5834C14.4626 6.66803 14.3429 6.64312 14.2327 6.59366C14.1225 6.54419 14.0244 6.47136 13.9451 6.3802C13.8658 6.28904 13.8073 6.18174 13.7736 6.06573C13.74 5.94971 13.7319 5.82777 13.75 5.70833C13.7892 5.50618 13.8984 5.32432 14.0585 5.19476C14.2185 5.0652 14.4191 4.99623 14.625 5H15.5834C14.6127 3.91907 13.3491 3.14331 11.9459 2.76696C10.5427 2.39062 9.06045 2.4299 7.67918 2.88002C6.29791 3.33015 5.0771 4.17175 4.16508 5.30256C3.25306 6.43338 2.68909 7.80473 2.54169 9.25C2.52097 9.45627 2.4241 9.64741 2.27001 9.78609C2.11592 9.92477 1.91567 10.001 1.70836 10C1.59155 10.0006 1.47591 9.9766 1.36897 9.92961C1.26202 9.88262 1.16615 9.81367 1.08757 9.72724C1.00899 9.6408 0.949459 9.53881 0.912844 9.42788C0.876229 9.31695 0.863345 9.19956 0.875028 9.08333C1.05004 7.3338 1.72453 5.67151 2.81806 4.29467C3.91159 2.91783 5.37803 1.88454 7.04252 1.318C8.70701 0.751455 10.4993 0.67557 12.2057 1.09939C13.9122 1.52321 15.4607 2.42885 16.6667 3.70833V2.91666C16.6653 2.79587 16.6902 2.67622 16.7397 2.56601C16.7892 2.4558 16.862 2.35766 16.9532 2.27839C17.0443 2.19912 17.1516 2.14062 17.2676 2.10694C17.3836 2.07326 17.5056 2.0652 17.625 2.08333C17.8272 2.12252 18.009 2.23174 18.1386 2.39179C18.2682 2.55184 18.3371 2.75245 18.3334 2.95833Z" fill="black"/>
<path d="M1.66665 17.0417V14.1667C1.66665 13.9457 1.75445 13.7337 1.91073 13.5774C2.06701 13.4211 2.27897 13.3333 2.49998 13.3333H5.41665C5.53745 13.332 5.65709 13.3569 5.76731 13.4064C5.87752 13.4558 5.97566 13.5287 6.05492 13.6198C6.13419 13.711 6.19269 13.8183 6.22638 13.9343C6.26006 14.0503 6.26811 14.1722 6.24998 14.2917C6.2108 14.4938 6.10157 14.6757 5.94152 14.8052C5.78148 14.9348 5.58086 15.0038 5.37498 15H4.41665C5.38728 16.0809 6.65095 16.8567 8.05412 17.233C9.45729 17.6094 10.9396 17.5701 12.3208 17.12C13.7021 16.6699 14.9229 15.8283 15.8349 14.6974C16.747 13.5666 17.3109 12.1953 17.4583 10.75C17.479 10.5437 17.5759 10.3526 17.73 10.2139C17.8841 10.0752 18.0843 9.99897 18.2917 10C18.4085 9.99942 18.5241 10.0234 18.631 10.0704C18.738 10.1174 18.8339 10.1863 18.9124 10.2728C18.991 10.3592 19.0506 10.4612 19.0872 10.5721C19.1238 10.6831 19.1367 10.8004 19.125 10.9167C18.95 12.6662 18.2755 14.3285 17.182 15.7053C16.0884 17.0822 14.622 18.1155 12.9575 18.682C11.293 19.2486 9.50069 19.3244 7.79427 18.9006C6.08785 18.4768 4.53932 17.5712 3.33332 16.2917V17.0833C3.33468 17.2041 3.30977 17.3238 3.26031 17.434C3.21085 17.5442 3.13801 17.6424 3.04685 17.7216C2.95569 17.8009 2.84839 17.8594 2.73238 17.8931C2.61637 17.9268 2.49442 17.9348 2.37498 17.9167C2.17283 17.8775 1.99098 17.7683 1.86141 17.6082C1.73185 17.4482 1.66289 17.2476 1.66665 17.0417Z" fill="black"/>
<path d="M10.2918 9.16683C8.83348 8.87516 8.83348 8.62516 8.83348 8.41683C8.83348 8.2085 8.91681 8.16683 9.04181 8.04183C9.27169 7.91825 9.53123 7.86057 9.79181 7.87516C10.276 7.87097 10.7518 8.00075 11.1668 8.25016C11.2512 8.319 11.3495 8.36864 11.455 8.39565C11.5604 8.42265 11.6705 8.42637 11.7776 8.40655C11.8846 8.38672 11.9861 8.34383 12.0749 8.28085C12.1637 8.21787 12.2377 8.1363 12.2918 8.04183C12.3632 7.95663 12.4159 7.85733 12.4464 7.75042C12.4769 7.64351 12.4845 7.53137 12.4688 7.42131C12.4531 7.31124 12.4144 7.20573 12.3551 7.11163C12.2959 7.01753 12.2176 6.93696 12.1251 6.87516C11.7289 6.6306 11.2911 6.46111 10.8335 6.37516V5.41683C10.8335 5.19582 10.7457 4.98385 10.5894 4.82757C10.4331 4.67129 10.2212 4.5835 10.0001 4.5835C9.77913 4.5835 9.56717 4.67129 9.41089 4.82757C9.25461 4.98385 9.16681 5.19582 9.16681 5.41683V6.3335C7.91681 6.54183 7.08348 7.37516 7.08348 8.50016C7.08348 9.62516 8.45848 10.5418 9.79181 10.7918C11.1251 11.0418 11.1668 11.3335 11.1668 11.5418C11.1668 11.7502 10.7085 12.1252 10.1251 12.1252C9.51165 12.1373 8.91125 11.9469 8.41681 11.5835C8.32422 11.5219 8.22025 11.4795 8.11102 11.4588C8.00179 11.438 7.8895 11.4393 7.78078 11.4626C7.67206 11.4859 7.56911 11.5307 7.47797 11.5944C7.38684 11.6581 7.30938 11.7394 7.25015 11.8335C7.18444 11.9116 7.13539 12.0024 7.10599 12.1002C7.07659 12.1979 7.06746 12.3007 7.07916 12.4021C7.09086 12.5035 7.12315 12.6015 7.17405 12.69C7.22494 12.7785 7.29337 12.8557 7.37515 12.9168C7.9113 13.2931 8.52249 13.549 9.16681 13.6668V14.5835C9.16681 14.8045 9.25461 15.0165 9.41089 15.1728C9.56717 15.329 9.77913 15.4168 10.0001 15.4168C10.2212 15.4168 10.4331 15.329 10.5894 15.1728C10.7457 15.0165 10.8335 14.8045 10.8335 14.5835V13.6668C11.2906 13.5994 11.7217 13.4126 12.0835 13.1252C12.3447 12.9334 12.5565 12.6823 12.7014 12.3924C12.8463 12.1026 12.9201 11.7825 12.9168 11.4585C12.9168 9.91683 11.5001 9.41683 10.2918 9.16683Z" fill="black"/>
</g>
<defs>
<clipPath id="clip0_1045_671">
<rect width="20" height="20" fill="white"/>
</clipPath>
</defs>
</svg>
