<svg width="14" height="14" viewBox="0 0 14 14" fill="none" xmlns="http://www.w3.org/2000/svg">
<g clip-path="url(#clip0_217_509)">
<path d="M12.8333 2.07084V4.08334C12.8333 4.23805 12.7719 4.38643 12.6625 4.49582C12.5531 4.60522 12.4047 4.66668 12.25 4.66668H10.2083C10.1238 4.66763 10.04 4.6502 9.96286 4.61557C9.88571 4.58095 9.81701 4.52996 9.76152 4.46615C9.70604 4.40234 9.66508 4.32723 9.64151 4.24602C9.61793 4.16481 9.61229 4.07945 9.62498 3.99584C9.65241 3.85434 9.72887 3.72704 9.8409 3.63635C9.95294 3.54565 10.0934 3.49738 10.2375 3.50001H10.9083C10.2289 2.74336 9.34431 2.20033 8.36209 1.93689C7.37987 1.67345 6.34228 1.70094 5.37539 2.01603C4.4085 2.33112 3.55393 2.92024 2.91552 3.71181C2.2771 4.50338 1.88233 5.46332 1.77915 6.47501C1.76464 6.6194 1.69683 6.7532 1.58897 6.85027C1.48111 6.94735 1.34093 7.00074 1.19582 7.00001C1.11405 7.00042 1.0331 6.98363 0.95824 6.95074C0.883376 6.91785 0.816265 6.86958 0.76126 6.80908C0.706255 6.74857 0.664585 6.67718 0.638954 6.59953C0.613324 6.52188 0.604305 6.43971 0.612483 6.35834C0.734994 5.13367 1.20713 3.97007 1.97261 3.00628C2.73808 2.04249 3.76459 1.31919 4.92973 0.92261C6.09487 0.52603 7.34949 0.472911 8.54398 0.769585C9.73848 1.06626 10.8224 1.70021 11.6666 2.59584V2.04168C11.6657 1.95712 11.6831 1.87337 11.7178 1.79622C11.7524 1.71907 11.8034 1.65037 11.8672 1.59489C11.931 1.5394 12.0061 1.49845 12.0873 1.47487C12.1685 1.45129 12.2539 1.44565 12.3375 1.45834C12.479 1.48578 12.6063 1.56223 12.697 1.67427C12.7877 1.7863 12.8359 1.92673 12.8333 2.07084Z" fill="#079D55"/>
<path d="M1.16667 11.9292V9.91667C1.16667 9.76196 1.22813 9.61359 1.33752 9.50419C1.44692 9.3948 1.59529 9.33334 1.75 9.33334H3.79167C3.87622 9.33238 3.95998 9.34982 4.03713 9.38445C4.11427 9.41907 4.18297 9.47006 4.23846 9.53387C4.29395 9.59768 4.3349 9.67279 4.35847 9.754C4.38205 9.83521 4.38769 9.92057 4.375 10.0042C4.34757 10.1457 4.27111 10.273 4.15908 10.3637C4.04705 10.4544 3.90662 10.5026 3.7625 10.5H3.09167C3.77111 11.2567 4.65568 11.7997 5.63789 12.0631C6.62011 12.3266 7.6577 12.2991 8.62459 11.984C9.59148 11.6689 10.4461 11.0798 11.0845 10.2882C11.7229 9.49664 12.1177 8.53669 12.2208 7.52501C12.2353 7.38062 12.3032 7.24682 12.411 7.14974C12.5189 7.05267 12.6591 6.99928 12.8042 7.00001C12.8859 6.9996 12.9669 7.01638 13.0417 7.04928C13.1166 7.08217 13.1837 7.13044 13.2387 7.19094C13.2937 7.25145 13.3354 7.32284 13.361 7.40049C13.3867 7.47814 13.3957 7.56031 13.3875 7.64167C13.265 8.86635 12.7929 10.0299 12.0274 10.9937C11.2619 11.9575 10.2354 12.6808 9.07026 13.0774C7.90511 13.474 6.6505 13.5271 5.456 13.2304C4.2615 12.9338 3.17753 12.2998 2.33333 11.4042V11.9583C2.33429 12.0429 2.31685 12.1267 2.28223 12.2038C2.2476 12.2809 2.19662 12.3496 2.13281 12.4051C2.069 12.4606 1.99389 12.5016 1.91268 12.5251C1.83147 12.5487 1.7461 12.5544 1.6625 12.5417C1.52099 12.5142 1.3937 12.4378 1.303 12.3258C1.21231 12.2137 1.16403 12.0733 1.16667 11.9292Z" fill="#079D55"/>
<path d="M7.20416 6.41671C6.18333 6.21254 6.18333 6.03754 6.18333 5.89171C6.18333 5.74587 6.24166 5.71671 6.32916 5.62921C6.49007 5.5427 6.67175 5.50233 6.85416 5.51254C7.19306 5.5096 7.52617 5.60045 7.81666 5.77504C7.8757 5.82322 7.94453 5.85798 8.01836 5.87688C8.09219 5.89578 8.16925 5.89839 8.24418 5.88451C8.31912 5.87063 8.39014 5.84061 8.4523 5.79652C8.51446 5.75243 8.56628 5.69534 8.60416 5.62921C8.65415 5.56956 8.69102 5.50006 8.71237 5.42522C8.73372 5.35038 8.73906 5.27188 8.72806 5.19484C8.71705 5.1178 8.68994 5.04394 8.64849 4.97807C8.60704 4.9122 8.55219 4.8558 8.48749 4.81254C8.21015 4.64135 7.90365 4.5227 7.58333 4.46254V3.79171C7.58333 3.637 7.52187 3.48862 7.41247 3.37923C7.30307 3.26983 7.1547 3.20837 6.99999 3.20837C6.84528 3.20837 6.69691 3.26983 6.58751 3.37923C6.47812 3.48862 6.41666 3.637 6.41666 3.79171V4.43337C5.54166 4.57921 4.95833 5.16254 4.95833 5.95004C4.95833 6.73754 5.92083 7.37921 6.85416 7.55421C7.78749 7.72921 7.81666 7.93337 7.81666 8.07921C7.81666 8.22504 7.49583 8.48754 7.08749 8.48754C6.65804 8.49601 6.23777 8.36275 5.89166 8.10837C5.82685 8.06528 5.75407 8.03559 5.6776 8.02105C5.60114 8.00652 5.52254 8.00743 5.44644 8.02374C5.37033 8.04005 5.29826 8.07142 5.23447 8.11601C5.17068 8.1606 5.11645 8.21751 5.07499 8.28337C5.029 8.33808 4.99466 8.4016 4.97408 8.47004C4.9535 8.53848 4.94711 8.6104 4.9553 8.6814C4.9635 8.7524 4.9861 8.82097 5.02172 8.88293C5.05735 8.94489 5.10525 8.99892 5.16249 9.04171C5.5378 9.3051 5.96564 9.48419 6.41666 9.56671V10.2084C6.41666 10.3631 6.47812 10.5115 6.58751 10.6209C6.69691 10.7303 6.84528 10.7917 6.99999 10.7917C7.1547 10.7917 7.30307 10.7303 7.41247 10.6209C7.52187 10.5115 7.58333 10.3631 7.58333 10.2084V9.56671C7.90328 9.51952 8.20511 9.38873 8.45833 9.18754C8.64116 9.05332 8.78942 8.8775 8.89085 8.67464C8.99229 8.47177 9.04398 8.24767 9.04166 8.02087C9.04166 6.94171 8.04999 6.59171 7.20416 6.41671Z" fill="#079D55"/>
</g>
<defs>
<clipPath id="clip0_217_509">
<rect width="14" height="14" fill="white"/>
</clipPath>
</defs>
</svg>
