<svg width="21" height="20" viewBox="0 0 21 20" fill="none" xmlns="http://www.w3.org/2000/svg">
<path d="M3.625 5.00027H2.375C2.20924 5.00027 2.05027 4.93442 1.93306 4.81721C1.81585 4.7 1.75 4.54103 1.75 4.37527C1.75 4.20951 1.81585 4.05054 1.93306 3.93333C2.05027 3.81612 2.20924 3.75027 2.375 3.75027H7.375V1.87402C7.375 1.70826 7.44085 1.54929 7.55806 1.43208C7.67527 1.31487 7.83424 1.24902 8 1.24902H13C13.1658 1.24902 13.3247 1.31487 13.4419 1.43208C13.5592 1.54929 13.625 1.70826 13.625 1.87402V3.75027H18.625C18.7908 3.75027 18.9497 3.81612 19.0669 3.93333C19.1842 4.05054 19.25 4.20951 19.25 4.37527C19.25 4.54103 19.1842 4.7 19.0669 4.81721C18.9497 4.93442 18.7908 5.00027 18.625 5.00027H17.375V18.1253C17.375 18.291 17.3092 18.45 17.1919 18.5672C17.0747 18.6844 16.9158 18.7503 16.75 18.7503H4.25C4.08424 18.7503 3.92527 18.6844 3.80806 18.5672C3.69085 18.45 3.625 18.291 3.625 18.1253V5.00027ZM12.375 3.75027V2.50027H8.625V3.75027H12.375ZM4.875 17.5003H16.125V5.00027H4.875V17.5003ZM8.625 15.0003C8.45924 15.0003 8.30027 14.9344 8.18306 14.8172C8.06585 14.7 8 14.541 8 14.3753V8.12527C8 7.95951 8.06585 7.80054 8.18306 7.68333C8.30027 7.56612 8.45924 7.50027 8.625 7.50027C8.79076 7.50027 8.94973 7.56612 9.06694 7.68333C9.18415 7.80054 9.25 7.95951 9.25 8.12527V14.3753C9.25 14.541 9.18415 14.7 9.06694 14.8172C8.94973 14.9344 8.79076 15.0003 8.625 15.0003ZM12.375 15.0003C12.2092 15.0003 12.0503 14.9344 11.9331 14.8172C11.8158 14.7 11.75 14.541 11.75 14.3753V8.12527C11.75 7.95951 11.8158 7.80054 11.9331 7.68333C12.0503 7.56612 12.2092 7.50027 12.375 7.50027C12.5408 7.50027 12.6997 7.56612 12.8169 7.68333C12.9342 7.80054 13 7.95951 13 8.12527V14.3753C13 14.541 12.9342 14.7 12.8169 14.8172C12.6997 14.9344 12.5408 15.0003 12.375 15.0003Z" fill="#CF0000"/>
</svg>
