<svg width="20" height="20" viewBox="0 0 20 20" fill="none" xmlns="http://www.w3.org/2000/svg">
<path d="M10.625 1.875L1.875 10.625L9.375 18.125L18.125 9.375V1.875H10.625ZM7.50187 8.46973C7.86827 8.10337 8.46226 8.10337 8.82862 8.46973C9.19498 8.83614 9.19498 9.43012 8.82862 9.79649C8.46226 10.1628 7.86827 10.1628 7.50187 9.79649C7.13551 9.43012 7.13551 8.83614 7.50187 8.46973ZM8.52509 12.3587C8.40302 12.4808 8.2431 12.5418 8.08319 12.5418C7.92328 12.5418 7.76337 12.4808 7.6413 12.3587C7.39716 12.1146 7.39716 11.7191 7.6413 11.4749L10.5069 8.60931C10.751 8.36517 11.1465 8.36517 11.3907 8.60931C11.6348 8.85345 11.6348 9.24896 11.3907 9.4931L8.52509 12.3587ZM11.5302 12.4981C11.1639 12.8645 10.5699 12.8645 10.2035 12.4981C9.83711 12.1317 9.83711 11.5377 10.2035 11.1714C10.5699 10.805 11.1639 10.805 11.5302 11.1714C11.8966 11.5377 11.8966 12.1317 11.5302 12.4981ZM14.375 7.29164C13.9148 7.75188 13.1686 7.75188 12.7083 7.29164C12.2481 6.83144 12.2481 6.08524 12.7083 5.625C13.1686 5.16476 13.9148 5.16476 14.375 5.625C14.8352 6.08524 14.8352 6.83144 14.375 7.29164Z" fill="#F15A29"/>
</svg>
