<svg width="20" height="20" viewBox="0 0 20 20" fill="none" xmlns="http://www.w3.org/2000/svg">
<g clip-path="url(#clip0_1386_787)">
<path d="M18.3331 20H1.66688C0.75 20 0 19.25 0 18.3331V1.66688C0 0.75 0.75 0 1.66688 0H18.3331C19.25 0 20 0.75 20 1.66688V18.3331C20 19.25 19.25 20 18.3331 20Z" fill="#32BEA6"/>
<path d="M9.48309 13.488V10.3945C8.51809 10.1189 7.8109 9.70172 7.36027 9.14297C6.90996 8.58422 6.68496 7.90609 6.68496 7.10859C6.68496 6.30109 6.93934 5.62328 7.44902 5.07422C7.9584 4.52578 8.63621 4.20953 9.4834 4.12547V3.39453H10.554V4.12547C11.3365 4.21891 11.9593 4.48609 12.4218 4.92672C12.884 5.36734 13.1796 5.95672 13.3078 6.69484L11.44 6.93891C11.3265 6.35797 11.0312 5.96422 10.554 5.75734V8.64422C11.735 8.96422 12.54 9.37891 12.9681 9.88828C13.3962 10.3973 13.6106 11.0511 13.6106 11.8483C13.6106 12.7392 13.3412 13.4902 12.8018 14.1005C12.2628 14.7108 11.5137 15.0848 10.554 15.2227V16.6033H9.4834V15.2592C8.63152 15.1561 7.94027 14.8383 7.40871 14.3067C6.87715 13.7755 6.53715 13.0248 6.38965 12.0552L8.31684 11.8483C8.39527 12.242 8.54277 12.582 8.75996 12.8673C8.97621 13.1533 9.21715 13.3602 9.48309 13.488ZM9.48309 5.73547C9.19246 5.83391 8.9609 6.00109 8.78902 6.23766C8.61652 6.47391 8.53059 6.73453 8.53059 7.02016C8.53059 7.28109 8.60902 7.52328 8.76684 7.74766C8.92434 7.97172 9.16309 8.15266 9.48309 8.29047V5.73547ZM10.5537 13.5914C10.9225 13.5223 11.2228 13.3514 11.4543 13.078C11.6856 12.8052 11.8015 12.4836 11.8015 12.1142C11.8015 11.7845 11.704 11.5005 11.51 11.2614C11.3156 11.0227 10.9971 10.8395 10.554 10.7114V13.5914H10.5537Z" fill="white"/>
</g>
<defs>
<clipPath id="clip0_1386_787">
<rect width="20" height="20" fill="white"/>
</clipPath>
</defs>
</svg>
