<svg width="27" height="27" viewBox="0 0 27 27" fill="none" xmlns="http://www.w3.org/2000/svg">
<path d="M10.125 5.625H7.875C6.63236 5.625 5.625 6.63236 5.625 7.875V21.375C5.625 22.6177 6.63236 23.625 7.875 23.625H10.125M16.875 5.625H19.125C20.3677 5.625 21.375 6.63236 21.375 7.875V10.125" stroke="black" stroke-linecap="round" stroke-linejoin="round"/>
<path d="M16.7647 22.8761L14.3047 23.3681L14.7967 20.9081C14.8403 20.6903 14.9473 20.4903 15.1043 20.3332L19.6875 15.75L21.9375 13.5L24.1727 15.7353L21.9227 17.9853L17.3396 22.5684C17.1826 22.7255 16.9825 22.8325 16.7647 22.8761Z" stroke="black" stroke-linecap="round" stroke-linejoin="round"/>
<path d="M10.125 5.625C10.125 4.38236 11.1324 3.375 12.375 3.375H14.625C15.8677 3.375 16.875 4.38236 16.875 5.625V7.875H10.125V5.625Z" stroke="black" stroke-linecap="round" stroke-linejoin="round"/>
</svg>
