<svg width="20" height="20" viewBox="0 0 20 20" fill="none" xmlns="http://www.w3.org/2000/svg">
<path d="M3.33337 16.6668H16.6667M3.33337 16.6668V13.3335L10 6.66685M3.33337 16.6668H6.66671L13.3334 10.0002M10 6.66685L12.3905 4.2763L12.392 4.27488C12.721 3.94581 12.8859 3.78099 13.0759 3.71925C13.2433 3.66487 13.4235 3.66487 13.591 3.71925C13.7808 3.78095 13.9455 3.94558 14.274 4.27418L15.7239 5.72401C16.0539 6.05403 16.219 6.21911 16.2808 6.40939C16.3352 6.57675 16.3351 6.75704 16.2808 6.92441C16.219 7.11455 16.0542 7.27938 15.7246 7.60892L15.7239 7.60963L13.3334 10.0002M10 6.66685L13.3334 10.0002" stroke="#0080A9" stroke-linecap="round" stroke-linejoin="round"/>
</svg>
