<svg width="20" height="21" viewBox="0 0 20 21" fill="none" xmlns="http://www.w3.org/2000/svg">
<path d="M10 16.125C5.14168 16.125 2.85834 10.9667 2.75834 10.75C2.72534 10.6708 2.70834 10.5858 2.70834 10.5C2.70834 10.4142 2.72534 10.3292 2.75834 10.25C2.85834 10.0333 5.14168 4.875 10 4.875C14.8583 4.875 17.1417 10.0333 17.2417 10.25C17.2747 10.3292 17.2917 10.4142 17.2917 10.5C17.2917 10.5858 17.2747 10.6708 17.2417 10.75C17.1417 10.9667 14.8583 16.125 10 16.125ZM4.02501 10.5C4.51668 11.4583 6.52501 14.875 10 14.875C13.475 14.875 15.4833 11.4583 15.975 10.5C15.4833 9.54167 13.475 6.125 10 6.125C6.52501 6.125 4.51668 9.54167 4.02501 10.5Z" fill="black"/>
<path d="M9.99999 13.2084C9.46432 13.2084 8.94074 13.0496 8.49532 12.752C8.04994 12.4544 7.7028 12.0314 7.49781 11.5365C7.29283 11.0417 7.2392 10.4971 7.3437 9.97175C7.4482 9.44633 7.70614 8.96375 8.0849 8.585C8.46365 8.20623 8.94624 7.94829 9.47166 7.84379C9.99699 7.73929 10.5416 7.79292 11.0364 7.9979C11.5313 8.2029 11.9543 8.55003 12.2519 8.99541C12.5495 9.44083 12.7083 9.96441 12.7083 10.5001C12.7062 11.2177 12.4201 11.9053 11.9127 12.4127C11.4052 12.9202 10.7176 13.2062 9.99999 13.2084ZM9.99999 9.04175C9.71157 9.04175 9.42957 9.12725 9.18982 9.2875C8.94999 9.44775 8.76307 9.6755 8.65265 9.942C8.54232 10.2085 8.5134 10.5017 8.56965 10.7846C8.62599 11.0675 8.76482 11.3273 8.96882 11.5312C9.17274 11.7352 9.43257 11.8742 9.71549 11.9304C9.99841 11.9867 10.2916 11.9577 10.5581 11.8474C10.8246 11.737 11.0523 11.5501 11.2126 11.3102C11.3728 11.0705 11.4583 10.7885 11.4583 10.5001C11.4562 10.114 11.3018 9.74433 11.0287 9.47133C10.7557 9.19825 10.3861 9.04391 9.99999 9.04175Z" fill="black"/>
</svg>
