<svg width="20" height="21" viewBox="0 0 20 21" fill="none" xmlns="http://www.w3.org/2000/svg">
<path d="M17.2417 10.25C17.1417 10.0333 14.8583 4.875 10 4.875C9.53484 4.87452 9.07093 4.92481 8.61668 5.025C8.46701 5.07133 8.34026 5.17214 8.26142 5.3075C8.18258 5.44285 8.15744 5.60286 8.19098 5.75587C8.22451 5.90887 8.31428 6.0437 8.44251 6.13368C8.57076 6.22364 8.72801 6.26219 8.88334 6.24167C9.25059 6.16491 9.62476 6.12582 10 6.125C13.4833 6.125 15.4833 9.54167 15.975 10.5C15.6753 11.0857 15.3238 11.6434 14.925 12.1667C14.8533 12.2589 14.809 12.3694 14.797 12.4856C14.7849 12.6018 14.8057 12.7189 14.8568 12.8239C14.9081 12.9289 14.9876 13.0174 15.0866 13.0795C15.1855 13.1416 15.2998 13.1747 15.4167 13.175C15.5116 13.1747 15.6052 13.1528 15.6904 13.1109C15.7756 13.069 15.8501 13.0083 15.9083 12.9333C16.4332 12.2668 16.8805 11.5427 17.2417 10.775C17.2782 10.6923 17.297 10.6029 17.297 10.5125C17.297 10.4221 17.2782 10.3327 17.2417 10.25Z" fill="black"/>
<path d="M5.44167 5.05837C5.32319 4.94797 5.16648 4.88787 5.00456 4.89072C4.84265 4.89358 4.68816 4.95917 4.57365 5.07369C4.45914 5.1882 4.39355 5.34269 4.39069 5.50461C4.38783 5.66652 4.44794 5.82322 4.55834 5.94171L5.325 6.70837C4.2394 7.70705 3.36644 8.91443 2.75834 10.2583C2.72556 10.3362 2.70868 10.4198 2.70868 10.5042C2.70868 10.5887 2.72556 10.6723 2.75834 10.75C2.85834 10.9667 5.14167 16.125 10 16.125C11.2994 16.1314 12.5719 15.7547 13.6583 15.0417L14.5583 15.9417C14.6755 16.0588 14.8343 16.1245 15 16.1245C15.1656 16.1245 15.3245 16.0588 15.4417 15.9417C15.5587 15.8245 15.6244 15.6657 15.6244 15.5C15.6244 15.3344 15.5587 15.1756 15.4417 15.0583L5.44167 5.05837ZM8.63335 10.0583L10.475 11.9083C10.2169 11.9939 9.94043 12.0081 9.67493 11.9494C9.40943 11.8908 9.16468 11.7614 8.96668 11.575C8.76501 11.3762 8.62593 11.1227 8.56676 10.8458C8.50751 10.5688 8.53068 10.2806 8.63335 10.0167V10.0583ZM10 14.875C6.50834 14.875 4.51667 11.45 4.025 10.5C4.5689 9.40526 5.30891 8.41956 6.20834 7.59171L7.7 9.08335C7.37985 9.60076 7.24387 10.2112 7.3141 10.8156C7.38431 11.42 7.65662 11.9829 8.08686 12.4132C8.5171 12.8434 9.0801 13.1158 9.68443 13.1859C10.2888 13.2562 10.8993 13.1202 11.4167 12.8L12.7583 14.1417C11.921 14.6283 10.9685 14.8816 10 14.875Z" fill="black"/>
</svg>
