<svg width="27" height="27" viewBox="0 0 27 27" fill="none" xmlns="http://www.w3.org/2000/svg">
<path d="M22.5 6.30011C22.5 5.67006 22.4996 5.35479 22.3769 5.11414C22.2692 4.90246 22.0976 4.73048 21.886 4.62261C21.6453 4.5 21.3297 4.5 20.6995 4.5H6.29956C5.6695 4.5 5.35479 4.5 5.11414 4.62261C4.90246 4.73048 4.73048 4.90246 4.62261 5.11414C4.5 5.35479 4.5 5.67006 4.5 6.30011V7.12953C4.5 7.40469 4.5 7.54237 4.53108 7.67185C4.55865 7.78664 4.60421 7.8963 4.66589 7.99695C4.73544 8.11044 4.8329 8.2079 5.02734 8.40234L10.7229 14.0979C10.9175 14.2924 11.0142 14.3892 11.0838 14.5028C11.1455 14.6034 11.1917 14.7134 11.2192 14.8283C11.25 14.9564 11.25 15.0924 11.25 15.3621V20.7124C11.25 21.6767 11.25 22.1592 11.4531 22.4496C11.6305 22.7032 11.9041 22.8724 12.2102 22.9176C12.5607 22.9693 12.9923 22.7539 13.8548 22.3227L14.7548 21.8727C15.1161 21.6921 15.2962 21.6015 15.4281 21.4667C15.5448 21.3475 15.6341 21.2046 15.6885 21.0469C15.75 20.8686 15.75 20.6662 15.75 20.2624V15.3704C15.75 15.0952 15.75 14.9578 15.7811 14.8283C15.8086 14.7134 15.8542 14.6034 15.9159 14.5028C15.985 14.39 16.0815 14.2935 16.2735 14.1015L16.2774 14.0979L21.9729 8.40234C22.1674 8.20777 22.2642 8.11048 22.3338 7.99695C22.3955 7.8963 22.4417 7.78664 22.4693 7.67185C22.5 7.5437 22.5 7.40749 22.5 7.1379V6.30011Z" stroke="black" stroke-linecap="round" stroke-linejoin="round"/>
</svg>
