<svg width="50" height="50" viewBox="0 0 50 50" fill="none" xmlns="http://www.w3.org/2000/svg">
<path d="M9.375 17.1875H40.625L43.75 43.75H6.25L9.375 17.1875ZM15.625 28.125H18.75V21.875H15.625V28.125ZM31.25 28.125H34.375V21.875H31.25V28.125ZM18.75 14.0625H15.625C15.625 11.5761 16.6127 9.19153 18.3709 7.43337C20.129 5.67522 22.5136 4.6875 25 4.6875C27.4864 4.6875 29.871 5.67522 31.6291 7.43337C33.3873 9.19153 34.375 11.5761 34.375 14.0625H31.25C31.25 12.4049 30.5915 10.8152 29.4194 9.64308C28.2473 8.47098 26.6576 7.8125 25 7.8125C23.3424 7.8125 21.7527 8.47098 20.5806 9.64308C19.4085 10.8152 18.75 12.4049 18.75 14.0625Z" fill="#00CD77"/>
</svg>
