<svg width="27" height="27" viewBox="0 0 27 27" fill="none" xmlns="http://www.w3.org/2000/svg">
<path fill-rule="evenodd" clip-rule="evenodd" d="M13.5 15.1875C12.5685 15.1875 11.8125 14.4315 11.8125 13.5C11.8125 12.5685 12.5685 11.8125 13.5 11.8125C14.4315 11.8125 15.1875 12.5685 15.1875 13.5C15.1875 14.4315 14.4315 15.1875 13.5 15.1875ZM13.5 10.125C11.6362 10.125 10.125 11.6362 10.125 13.5C10.125 15.3639 11.6362 16.875 13.5 16.875C15.3638 16.875 16.875 15.3639 16.875 13.5C16.875 11.6362 15.3638 10.125 13.5 10.125ZM13.5 23.625C12.5685 23.625 11.8125 22.869 11.8125 21.9375C11.8125 21.006 12.5685 20.25 13.5 20.25C14.4315 20.25 15.1875 21.006 15.1875 21.9375C15.1875 22.869 14.4315 23.625 13.5 23.625ZM13.5 18.5625C11.6362 18.5625 10.125 20.0737 10.125 21.9375C10.125 23.8013 11.6362 25.3125 13.5 25.3125C15.3638 25.3125 16.875 23.8013 16.875 21.9375C16.875 20.0737 15.3638 18.5625 13.5 18.5625ZM13.5 6.75001C12.5685 6.75001 11.8125 5.99401 11.8125 5.06251C11.8125 4.13101 12.5685 3.37501 13.5 3.37501C14.4315 3.37501 15.1875 4.13101 15.1875 5.06251C15.1875 5.99401 14.4315 6.75001 13.5 6.75001ZM13.5 1.68751C11.6362 1.68751 10.125 3.19866 10.125 5.06251C10.125 6.92635 11.6362 8.43751 13.5 8.43751C15.3638 8.43751 16.875 6.92635 16.875 5.06251C16.875 3.19866 15.3638 1.68751 13.5 1.68751ZM23.625 15.1875C22.6935 15.1875 21.9375 14.4315 21.9375 13.5C21.9375 12.5685 22.6935 11.8125 23.625 11.8125C24.5565 11.8125 25.3125 12.5685 25.3125 13.5C25.3125 14.4315 24.5565 15.1875 23.625 15.1875ZM23.625 10.125C21.7612 10.125 20.25 11.6362 20.25 13.5C20.25 15.3639 21.7612 16.875 23.625 16.875C25.4888 16.875 27 15.3639 27 13.5C27 11.6362 25.4888 10.125 23.625 10.125ZM23.625 23.625C22.6935 23.625 21.9375 22.869 21.9375 21.9375C21.9375 21.006 22.6935 20.25 23.625 20.25C24.5565 20.25 25.3125 21.006 25.3125 21.9375C25.3125 22.869 24.5565 23.625 23.625 23.625ZM23.625 18.5625C21.7612 18.5625 20.25 20.0737 20.25 21.9375C20.25 23.8013 21.7612 25.3125 23.625 25.3125C25.4888 25.3125 27 23.8013 27 21.9375C27 20.0737 25.4888 18.5625 23.625 18.5625ZM23.625 3.37501C24.5565 3.37501 25.3125 4.13101 25.3125 5.06251C25.3125 5.99401 24.5565 6.75001 23.625 6.75001C22.6935 6.75001 21.9375 5.99401 21.9375 5.06251C21.9375 4.13101 22.6935 3.37501 23.625 3.37501ZM23.625 8.43751C25.4888 8.43751 27 6.92635 27 5.06251C27 3.19866 25.4888 1.68751 23.625 1.68751C21.7612 1.68751 20.25 3.19866 20.25 5.06251C20.25 6.92635 21.7612 8.43751 23.625 8.43751Z" fill="black"/>
<path fill-rule="evenodd" clip-rule="evenodd" d="M0 1.6875L6.75 1.68751V25.3125H0V1.6875ZM5.0625 23.625V3.37501H1.6875V23.625H5.0625Z" fill="black"/>
</svg>
