<svg width="27" height="27" viewBox="0 0 27 27" fill="none" xmlns="http://www.w3.org/2000/svg">
<path fill-rule="evenodd" clip-rule="evenodd" d="M13.5 15.1875C12.5685 15.1875 11.8125 14.4315 11.8125 13.5C11.8125 12.5685 12.5685 11.8125 13.5 11.8125C14.4315 11.8125 15.1875 12.5685 15.1875 13.5C15.1875 14.4315 14.4315 15.1875 13.5 15.1875ZM13.5 10.125C11.6362 10.125 10.125 11.6362 10.125 13.5C10.125 15.3638 11.6362 16.875 13.5 16.875C15.3638 16.875 16.875 15.3638 16.875 13.5C16.875 11.6362 15.3638 10.125 13.5 10.125ZM13.5 23.625C12.5685 23.625 11.8125 22.869 11.8125 21.9375C11.8125 21.006 12.5685 20.25 13.5 20.25C14.4315 20.25 15.1875 21.006 15.1875 21.9375C15.1875 22.869 14.4315 23.625 13.5 23.625ZM13.5 18.5625C11.6362 18.5625 10.125 20.0737 10.125 21.9375C10.125 23.8013 11.6362 25.3125 13.5 25.3125C15.3638 25.3125 16.875 23.8013 16.875 21.9375C16.875 20.0737 15.3638 18.5625 13.5 18.5625ZM13.5 6.75C12.5685 6.75 11.8125 5.994 11.8125 5.0625C11.8125 4.131 12.5685 3.375 13.5 3.375C14.4315 3.375 15.1875 4.131 15.1875 5.0625C15.1875 5.994 14.4315 6.75 13.5 6.75ZM13.5 1.6875C11.6362 1.6875 10.125 3.19866 10.125 5.0625C10.125 6.92634 11.6362 8.4375 13.5 8.4375C15.3638 8.4375 16.875 6.92634 16.875 5.0625C16.875 3.19866 15.3638 1.6875 13.5 1.6875ZM23.625 15.1875C22.6935 15.1875 21.9375 14.4315 21.9375 13.5C21.9375 12.5685 22.6935 11.8125 23.625 11.8125C24.5565 11.8125 25.3125 12.5685 25.3125 13.5C25.3125 14.4315 24.5565 15.1875 23.625 15.1875ZM23.625 10.125C21.7612 10.125 20.25 11.6362 20.25 13.5C20.25 15.3638 21.7612 16.875 23.625 16.875C25.4888 16.875 27 15.3638 27 13.5C27 11.6362 25.4888 10.125 23.625 10.125ZM3.375 6.75C2.4435 6.75 1.6875 5.994 1.6875 5.0625C1.6875 4.131 2.4435 3.375 3.375 3.375C4.3065 3.375 5.0625 4.131 5.0625 5.0625C5.0625 5.994 4.3065 6.75 3.375 6.75ZM3.375 1.6875C1.51116 1.6875 0 3.19866 0 5.0625C0 6.92634 1.51116 8.4375 3.375 8.4375C5.23884 8.4375 6.75 6.92634 6.75 5.0625C6.75 3.19866 5.23884 1.6875 3.375 1.6875ZM23.625 23.625C22.6935 23.625 21.9375 22.869 21.9375 21.9375C21.9375 21.006 22.6935 20.25 23.625 20.25C24.5565 20.25 25.3125 21.006 25.3125 21.9375C25.3125 22.869 24.5565 23.625 23.625 23.625ZM23.625 18.5625C21.7612 18.5625 20.25 20.0737 20.25 21.9375C20.25 23.8013 21.7612 25.3125 23.625 25.3125C25.4888 25.3125 27 23.8013 27 21.9375C27 20.0737 25.4888 18.5625 23.625 18.5625ZM3.375 23.625C2.4435 23.625 1.6875 22.869 1.6875 21.9375C1.6875 21.006 2.4435 20.25 3.375 20.25C4.3065 20.25 5.0625 21.006 5.0625 21.9375C5.0625 22.869 4.3065 23.625 3.375 23.625ZM3.375 18.5625C1.51116 18.5625 0 20.0737 0 21.9375C0 23.8013 1.51116 25.3125 3.375 25.3125C5.23884 25.3125 6.75 23.8013 6.75 21.9375C6.75 20.0737 5.23884 18.5625 3.375 18.5625ZM23.625 3.375C24.5565 3.375 25.3125 4.131 25.3125 5.0625C25.3125 5.994 24.5565 6.75 23.625 6.75C22.6935 6.75 21.9375 5.994 21.9375 5.0625C21.9375 4.131 22.6935 3.375 23.625 3.375ZM23.625 8.4375C25.4888 8.4375 27 6.92634 27 5.0625C27 3.19866 25.4888 1.6875 23.625 1.6875C21.7612 1.6875 20.25 3.19866 20.25 5.0625C20.25 6.92634 21.7612 8.4375 23.625 8.4375ZM3.375 15.1875C2.4435 15.1875 1.6875 14.4315 1.6875 13.5C1.6875 12.5685 2.4435 11.8125 3.375 11.8125C4.3065 11.8125 5.0625 12.5685 5.0625 13.5C5.0625 14.4315 4.3065 15.1875 3.375 15.1875ZM3.375 10.125C1.51116 10.125 0 11.6362 0 13.5C0 15.3638 1.51116 16.875 3.375 16.875C5.23884 16.875 6.75 15.3638 6.75 13.5C6.75 11.6362 5.23884 10.125 3.375 10.125Z" fill="black"/>
</svg>
