<svg width="19" height="19" viewBox="0 0 19 19" fill="none" xmlns="http://www.w3.org/2000/svg">
<path d="M14.8372 6.75806L13.5921 8.90624L14.5795 9.89602L15.8353 7.75912L14.8372 6.75806Z" fill="#F8F7C5"/>
<path d="M4.7868 8.74298V10.5314L9.65971 15.4375V13.6485L4.7868 8.74298Z" fill="#225B49"/>
<path d="M13.7655 11.2925L15.8353 7.75914V9.5297L13.7785 13.0625L11.7165 11.8899L9.6597 15.4375C9.6597 15.4375 9.65792 13.6474 9.6597 13.6485L11.7081 10.1229L13.7655 11.2925ZM8.31249 6.5568L7.98889 6.37036L8.31249 6.69633V6.5568ZM10.0433 7.55311L9.06655 6.99083L9.06595 7.45514L9.93877 8.33389L11.9872 9.50477L10.0433 7.55311Z" fill="#569080"/>
<path d="M9.06596 7.45512L9.93878 8.33387L7.88559 11.875L5.92859 9.90493L7.98059 6.36559L7.98831 6.37034L8.3125 6.69631L8.31309 7.80662C8.303 8.09934 9.082 8.09815 9.06596 7.80662V7.45512ZM14.0582 5.97371L12.1 4.00543L10.0445 7.55071L11.9872 9.50415L14.0582 5.97371ZM13.7655 11.2925L11.9872 9.50415L9.94234 8.32734L11.7082 10.1234L13.7655 11.2925ZM8.3125 6.06337L6.84415 5.34374L7.98831 6.37034L8.3125 6.55678C8.3125 6.36559 8.3125 6.22131 8.3125 6.06337ZM9.06656 6.99081L10.0433 7.55309L9.06656 6.56687V6.99081Z" fill="#72C0AB"/>
<path d="M8.31251 3.81067V3.96742C8.30241 4.26014 9.08201 4.25895 9.06597 3.96742L9.06716 3.81245C9.06835 4.09626 8.31429 4.09626 8.31251 3.81067Z" fill="#72C0AB"/>
<path d="M13.5921 8.90625L14.5795 9.89603L13.7655 11.2925L11.9872 9.50475L14.0576 5.97372L14.8366 6.75806L13.5921 8.90625ZM7.88559 11.875L9.65912 13.6485L11.7076 10.1228L9.93818 8.33328L7.88559 11.875ZM4.7868 8.74297L5.92859 9.90494L7.98059 6.36559L6.84415 5.34375L4.7868 8.74297ZM10.9618 2.96875L10.1228 4.30706L10.4399 4.48519C10.3033 4.64372 9.20846 5.92028 9.06715 6.06813C9.06715 6.21894 9.06715 6.38697 9.06715 6.56628L10.0451 7.55072L12.1006 4.00544L10.9618 2.96875ZM9.05112 6.09662V6.08416C8.95493 6.35016 8.30477 6.28781 8.31309 6.0325C8.3119 6.25219 8.31309 7.57031 8.31309 7.80662C8.30299 8.09934 9.08199 8.09816 9.06596 7.80662C9.06596 7.63562 9.06715 6.2225 9.06715 6.07822L9.05112 6.09662ZM8.95552 3.6575C8.80768 3.572 8.56899 3.572 8.42174 3.65631C8.27509 3.74122 8.27568 3.87897 8.42352 3.96447C8.57137 4.04997 8.81005 4.04997 8.9573 3.96566C9.10396 3.88075 9.10396 3.743 8.95552 3.6575Z" fill="#7BD6C4"/>
<path d="M10.4399 4.4852L9.06714 4.00011C8.94602 4.29995 8.30536 4.21267 8.31367 3.96686L8.31249 6.03311C8.30417 6.28783 8.95493 6.35136 9.05111 6.08476V6.09723L10.4399 4.4852Z" fill="#F05A28"/>
<path d="M9.06714 4.00068L10.4399 4.48518L10.0035 4.23996L9.06714 3.90924V4.00068Z" fill="#BE1E2D"/>
<path d="M8.63159 3.75575L8.61472 3.75012V3.758C8.62034 3.75687 8.62597 3.75631 8.63159 3.75575Z" fill="#BE1E2D"/>
<path d="M9.04578 6.09317L9.05084 6.09598V6.08417C9.04971 6.08754 9.0469 6.09035 9.04578 6.09317Z" fill="#BE1E2D"/>
<path d="M9.06714 4.00068L10.4399 4.48518L10.0035 4.23996L9.06714 3.90924V4.00068Z" fill="#BE1E2D"/>
<path d="M8.63159 3.75575L8.61472 3.75012V3.758C8.62034 3.75687 8.62597 3.75631 8.63159 3.75575Z" fill="#BE1E2D"/>
<path d="M9.04578 6.09317L9.05084 6.09598V6.08417C9.04971 6.08754 9.0469 6.09035 9.04578 6.09317Z" fill="#BE1E2D"/>
</svg>
