<svg width="25" height="25" viewBox="0 0 25 25" fill="none" xmlns="http://www.w3.org/2000/svg">
<path d="M15.625 18.75H9.375" stroke="black" stroke-width="1.5" stroke-linecap="round"/>
<path d="M22.5374 13.4979L22.2471 15.5159C21.7392 19.0445 21.4854 20.8088 20.2614 21.8627C19.0374 22.9167 17.2423 22.9167 13.6522 22.9167H11.3478C7.75765 22.9167 5.96257 22.9167 4.73855 21.8627C3.51452 20.8088 3.26065 19.0445 2.75293 15.5159L2.46255 13.4979C2.0673 10.7509 1.86967 9.37743 2.43265 8.20311C2.99563 7.02879 4.19392 6.31498 6.59051 4.88734L8.03305 4.02803C10.2094 2.73159 11.2976 2.08337 12.5 2.08337C13.7024 2.08337 14.7906 2.73159 16.9669 4.02803L18.4095 4.88734C20.806 6.31498 22.0044 7.02879 22.5673 8.20311" stroke="black" stroke-width="1.5" stroke-linecap="round"/>
</svg>
