<svg width="14" height="14" viewBox="0 0 14 14" fill="none" xmlns="http://www.w3.org/2000/svg">
<g clip-path="url(#clip0_217_487)">
<path d="M3.79632 13.4192C3.87366 13.4192 3.93632 13.3566 3.93632 13.2792V6.82929C3.93632 6.75203 3.87359 6.68929 3.79632 6.68929H2.67632C2.59905 6.68929 2.53632 6.75203 2.53632 6.82929V13.2792C2.53632 13.3566 2.59898 13.4192 2.67632 13.4192H3.79632ZM3.79632 13.9792H2.67632C2.28971 13.9792 1.97632 13.6658 1.97632 13.2792V6.82929C1.97632 6.44278 2.28973 6.12929 2.67632 6.12929H3.79632C4.1829 6.12929 4.49632 6.44278 4.49632 6.82929V13.2792C4.49632 13.6658 4.18293 13.9792 3.79632 13.9792ZM7.56232 13.4192C7.63966 13.4192 7.70232 13.3566 7.70232 13.2792V5.58875C7.70232 5.51141 7.63966 5.44875 7.56232 5.44875H6.44232C6.42393 5.44874 6.40573 5.45236 6.38874 5.4594C6.37175 5.46643 6.35632 5.47674 6.34332 5.48975C6.33031 5.50275 6.32 5.51818 6.31297 5.53517C6.30593 5.55216 6.30231 5.57036 6.30232 5.58875V13.2792C6.30232 13.3566 6.36498 13.4192 6.44232 13.4192H7.56232ZM7.56232 13.9792H6.44232C6.05571 13.9792 5.74232 13.6658 5.74232 13.2792V5.58875C5.74232 5.20214 6.05571 4.88875 6.44232 4.88875H7.56232C7.94893 4.88875 8.26232 5.20214 8.26232 5.58875V13.2792C8.26232 13.6658 7.94893 13.9792 7.56232 13.9792ZM11.3283 13.4321C11.4057 13.4321 11.4683 13.3695 11.4683 13.2921V4.36097C11.4683 4.28371 11.4056 4.22097 11.3283 4.22097H10.2083C10.131 4.22097 10.0683 4.28371 10.0683 4.36097V13.2921C10.0683 13.3695 10.131 13.4321 10.2083 13.4321H11.3283ZM11.3283 13.9921H10.2083C9.8217 13.9921 9.50832 13.6788 9.50832 13.2921V4.36097C9.50832 3.97446 9.82173 3.66097 10.2083 3.66097H11.3283C11.7149 3.66097 12.0283 3.97446 12.0283 4.36097V13.2921C12.0283 13.6788 11.7149 13.9921 11.3283 13.9921ZM9.5272 0.56L10.9271 0.562106C11.0817 0.562338 11.2073 0.437172 11.2075 0.28253C11.2077 0.127887 11.0826 0.00233821 10.9279 0.00210579L9.52805 3.23166e-07C9.3734 -0.000232099 9.24786 0.124934 9.24762 0.279576C9.24739 0.434219 9.37256 0.559768 9.5272 0.56Z" fill="#F3BE00"/>
<path d="M10.6475 0.281229L10.6433 1.67339C10.6428 1.82804 10.7678 1.95378 10.9225 1.95424C11.0771 1.95471 11.2028 1.82973 11.2033 1.67509L11.2075 0.282924C11.208 0.128282 11.083 0.00254133 10.9284 0.00207649C10.7737 0.00161164 10.648 0.126586 10.6475 0.281229Z" fill="#F3BE00"/>
<path d="M2.23997 4.34329H4.34796C4.4399 4.3433 4.53095 4.32519 4.61589 4.29C4.70084 4.25482 4.77802 4.20324 4.84303 4.13823L6.25087 2.7304C6.27712 2.70416 6.3127 2.6894 6.34981 2.68934H8.53395C8.71952 2.68934 8.89751 2.6157 9.02884 2.48459L10.9584 0.555077C11.0677 0.445729 11.0677 0.268446 10.9584 0.159098C10.849 0.0497505 10.6717 0.0497505 10.5624 0.159098L8.63304 2.08843C8.60672 2.11464 8.57109 2.12935 8.53395 2.12934H6.34981C6.16417 2.1294 5.98616 2.20316 5.85487 2.3344L4.44704 3.74224C4.43403 3.75526 4.41858 3.76558 4.40158 3.77263C4.38458 3.77967 4.36635 3.7833 4.34795 3.78329H2.23996C2.08532 3.78329 1.95996 3.90865 1.95996 4.06329C1.95996 4.21794 2.08533 4.34329 2.23997 4.34329Z" fill="#F3BE00"/>
</g>
<defs>
<clipPath id="clip0_217_487">
<rect width="14" height="14" fill="white"/>
</clipPath>
</defs>
</svg>
