<svg width="20" height="20" viewBox="0 0 20 20" fill="none" xmlns="http://www.w3.org/2000/svg">
<g clip-path="url(#clip0_1428_1157)">
<path d="M13.375 5.41629L17.25 9.99962L13.375 14.583H2.50004V5.41629H13.375ZM13.9584 3.74962H1.66671C1.44569 3.74962 1.23373 3.83742 1.07745 3.9937C0.921171 4.14998 0.833374 4.36194 0.833374 4.58295V15.4163C0.833374 15.6373 0.921171 15.8493 1.07745 16.0055C1.23373 16.1618 1.44569 16.2496 1.66671 16.2496H13.9584C14.0236 16.2533 14.0887 16.2399 14.1472 16.2106C14.2057 16.1814 14.2555 16.1374 14.2917 16.083L19 10.4996C19.1022 10.3529 19.157 10.1784 19.157 9.99962C19.157 9.82083 19.1022 9.64634 19 9.49962L14.2917 3.91629C14.2555 3.86186 14.2057 3.81785 14.1472 3.78861C14.0887 3.75938 14.0236 3.74594 13.9584 3.74962Z" fill="black" fill-opacity="0.7"/>
</g>
<defs>
<clipPath id="clip0_1428_1157">
<rect width="20" height="20" fill="white"/>
</clipPath>
</defs>
</svg>
