<svg width="27" height="27" viewBox="0 0 27 27" fill="none" xmlns="http://www.w3.org/2000/svg">
<path d="M9 6.75075L23.625 6.75156M9 13.5008L23.625 13.5017M9 20.2508L23.625 20.2517M3.9375 6.75H3.94875M3.9375 13.5H3.94875M3.9375 20.25H3.94875M4.5 6.75C4.5 7.06066 4.24816 7.3125 3.9375 7.3125C3.62684 7.3125 3.375 7.06066 3.375 6.75C3.375 6.43934 3.62684 6.1875 3.9375 6.1875C4.24816 6.1875 4.5 6.43934 4.5 6.75ZM4.5 13.5C4.5 13.8106 4.24816 14.0625 3.9375 14.0625C3.62684 14.0625 3.375 13.8106 3.375 13.5C3.375 13.1894 3.62684 12.9375 3.9375 12.9375C4.24816 12.9375 4.5 13.1894 4.5 13.5ZM4.5 20.25C4.5 20.5606 4.24816 20.8125 3.9375 20.8125C3.62684 20.8125 3.375 20.5606 3.375 20.25C3.375 19.9394 3.62684 19.6875 3.9375 19.6875C4.24816 19.6875 4.5 19.9394 4.5 20.25Z" stroke="black" stroke-linecap="round" stroke-linejoin="round"/>
</svg>
