<svg width="50" height="50" viewBox="0 0 50 50" fill="none" xmlns="http://www.w3.org/2000/svg">
<g clip-path="url(#clip0_1479_765)">
<circle cx="25" cy="25" r="24.5" fill="white" stroke="black"/>
<path d="M32.2916 16.6667C31.5971 13.8889 29.1666 12.5 24.9999 12.5C18.7499 12.5 17.7083 16.5761 17.7083 18.75C17.7083 27.3757 32.2916 22.8436 32.2916 31.25C32.2916 33.4239 31.2499 37.5 24.9999 37.5C20.8333 37.5 18.4027 36.1111 17.7083 33.3333" stroke="black" stroke-width="4.5" stroke-linecap="round" stroke-linejoin="round"/>
<path d="M22.5 40.4072C22.5 40.4072 23.875 40.6248 25 40.6248C26.125 40.6248 27.5 40.4072 27.5 40.4072V42.9072C27.5 42.9072 25.4167 46.2446 25 46.2446C24.5833 46.2446 22.5 42.9072 22.5 42.9072V40.4072Z" fill="black" stroke="black" stroke-width="0.25"/>
<path d="M27.7992 3.41276L28.2159 9.66276C28.2159 9.66276 26.1326 9.24609 25.2992 9.24609C24.4659 9.24609 22.3826 9.66276 22.3826 9.66276L22.7992 3.41276C22.7992 3.41276 24.0492 2.99609 25.2992 2.99609C26.5492 2.99609 27.7992 3.41276 27.7992 3.41276Z" fill="black" stroke="black" stroke-width="0.25"/>
</g>
<defs>
<clipPath id="clip0_1479_765">
<rect width="50" height="50" fill="white"/>
</clipPath>
</defs>
</svg>
