<svg width="100" height="100" viewBox="0 0 100 100" fill="none" xmlns="http://www.w3.org/2000/svg">
<g clip-path="url(#clip0_1071_857)">
<path d="M64.5833 33.3333C63.1944 27.7778 58.3333 25 50 25C37.5 25 35.4166 33.1522 35.4166 37.5C35.4166 54.7514 64.5833 45.6873 64.5833 62.5C64.5833 66.8478 62.5 75 50 75C41.6666 75 36.8055 72.2222 35.4166 66.6667" stroke="black" stroke-width="9" stroke-linecap="round" stroke-linejoin="round"/>
<path d="M45 80.8154C45 80.8154 47.75 81.2505 50 81.2505C52.25 81.2505 55 80.8154 55 80.8154V85.8154C55 85.8154 50.8333 92.4902 50 92.4902C49.1667 92.4902 45 85.8154 45 85.8154V80.8154Z" fill="black" stroke="black" stroke-width="0.5"/>
<path d="M55.5983 6.82454L56.4317 19.3245C56.4317 19.3245 52.265 18.4912 50.5983 18.4912C48.9317 18.4912 44.765 19.3245 44.765 19.3245L45.5983 6.82454C45.5983 6.82454 48.0983 5.99121 50.5983 5.99121C53.0983 5.99121 55.5983 6.82454 55.5983 6.82454Z" fill="black" stroke="black" stroke-width="0.5"/>
<circle cx="50" cy="50" r="49" stroke="black" stroke-width="2"/>
</g>
<defs>
<clipPath id="clip0_1071_857">
<rect width="100" height="100" fill="white"/>
</clipPath>
</defs>
</svg>
