<svg width="30" height="30" viewBox="0 0 30 30" fill="none" xmlns="http://www.w3.org/2000/svg">
<g clip-path="url(#clip0_1157_773)">
<path fill-rule="evenodd" clip-rule="evenodd" d="M15 28.125C7.75125 28.125 1.875 22.2469 1.875 15C1.875 7.75312 7.75125 1.875 15 1.875C22.2487 1.875 28.125 7.75312 28.125 15C28.125 22.2469 22.2487 28.125 15 28.125ZM15 0C6.71531 0 0 6.7125 0 15C0 23.2875 6.71531 30 15 30C23.2847 30 30 23.2875 30 15C30 6.7125 23.2847 0 15 0ZM20.625 14.0625H9.375C8.85656 14.0625 8.4375 14.4844 8.4375 15C8.4375 15.5156 8.85656 15.9375 9.375 15.9375H20.625C21.1434 15.9375 21.5625 15.5156 21.5625 15C21.5625 14.4844 21.1434 14.0625 20.625 14.0625Z" fill="white"/>
</g>
<defs>
<clipPath id="clip0_1157_773">
<rect width="30" height="30" fill="white"/>
</clipPath>
</defs>
</svg>
