<svg width="15" height="15" viewBox="0 0 15 15" fill="none" xmlns="http://www.w3.org/2000/svg">
<path d="M7.5 1.25C4.05 1.25 1.25 4.05 1.25 7.5C1.25 10.95 4.05 13.75 7.5 13.75C10.95 13.75 13.75 10.95 13.75 7.5C13.75 4.05 10.95 1.25 7.5 1.25ZM8.38125 11.3062V12.5H6.7125V11.2937C5.64375 11.0687 4.7375 10.3813 4.66875 9.16875H5.89375C5.95625 9.825 6.40625 10.3375 7.55 10.3375C8.775 10.3375 9.05 9.725 9.05 9.34375C9.05 8.825 8.775 8.3375 7.38125 8.00625C5.83125 7.63125 4.76875 6.99375 4.76875 5.7125C4.76875 4.6375 5.6375 3.9375 6.7125 3.70625V2.5H8.38125V3.71875C9.54375 4 10.125 4.88125 10.1625 5.8375H8.9375C8.90625 5.14375 8.5375 4.66875 7.55 4.66875C6.6125 4.66875 6.05 5.09375 6.05 5.69375C6.05 6.21875 6.45625 6.5625 7.71875 6.8875C8.98125 7.2125 10.3313 7.75625 10.3313 9.33125C10.325 10.475 9.46875 11.1 8.38125 11.3062Z" fill="#239A66"/>
</svg>
