<svg width="50" height="50" viewBox="0 0 50 50" fill="none" xmlns="http://www.w3.org/2000/svg">
<path d="M14.6484 22.5781H35.3906V24.9219H14.6484V22.5781ZM14.6484 32.8906H27.3438V35.2344H14.6484V32.8906Z" fill="#F17B38"/>
<path d="M39.9609 47.9297H10.0391C9.41406 47.9297 8.82813 47.8125 8.24219 47.5781C7.69531 47.3438 7.1875 47.0312 6.79687 46.6016C6.36719 46.1719 6.05469 45.7031 5.82031 45.1562C5.58594 44.5703 5.46875 43.9844 5.46875 43.3594V12.2266C5.46875 11.6016 5.58594 11.0156 5.82031 10.4297C6.05469 9.88281 6.36719 9.375 6.79687 8.98438C7.22656 8.55469 7.69531 8.24219 8.24219 8.00781C8.82813 7.77344 9.41406 7.65625 10.0391 7.65625H14.5703V9.96094H10.0391C8.78906 9.96094 7.73437 10.9766 7.73437 12.2656V43.3984C7.73437 44.6484 8.75 45.7031 10.0391 45.7031H39.9219C41.1719 45.7031 42.2266 44.6875 42.2266 43.3984V12.2266C42.2266 10.9766 41.2109 9.92187 39.9219 9.92187H35.4297V7.61719H39.9609C40.5859 7.61719 41.1719 7.73437 41.7578 7.96875C42.3047 8.20312 42.8125 8.51562 43.2031 8.94531C43.6328 9.375 43.9453 9.84375 44.1797 10.3906C44.4141 10.9766 44.5312 11.5625 44.5312 12.1875V43.3203C44.5312 43.9453 44.4141 44.5312 44.1797 45.1172C43.9453 45.6641 43.6328 46.1719 43.2031 46.5625C42.7734 46.9922 42.3047 47.3047 41.7578 47.5391C41.1719 47.8125 40.5859 47.9297 39.9609 47.9297Z" fill="#F17B38"/>
<path d="M36.4844 14.5312H13.5156V7.03125C13.5156 5.42969 14.8047 4.14063 16.4063 4.14063H19.375C20.4297 2.03125 22.6172 0.664062 25.0391 0.664062C27.4609 0.664062 29.6484 2.03125 30.7031 4.14063H33.6719C35.2734 4.14063 36.5625 5.42969 36.5625 7.03125L36.4844 14.5312ZM15.8203 12.2266H34.2188V7.03125C34.2188 6.71875 33.9453 6.44531 33.6328 6.44531H29.0625L28.7891 5.66406C28.2422 4.0625 26.7188 2.96875 25 2.96875C23.2813 2.96875 21.7578 4.0625 21.2109 5.66406L20.9375 6.44531H16.3672C16.0547 6.44531 15.7813 6.71875 15.7813 7.03125V12.2266H15.8203Z" fill="#F17B38"/>
</svg>
