<svg width="21" height="20" viewBox="0 0 21 20" fill="none" xmlns="http://www.w3.org/2000/svg">
<g clip-path="url(#clip0_1407_991)">
<path d="M20.5 0H0.5V20H20.5V0Z" fill="white" fill-opacity="0.01"/>
<path d="M14.2707 2.91699H16.3333C16.7935 2.91699 17.1666 3.29009 17.1666 3.75033V17.5003C17.1666 17.9606 16.7935 18.3337 16.3333 18.3337H4.66659C4.20635 18.3337 3.83325 17.9606 3.83325 17.5003V3.75033C3.83325 3.29009 4.20635 2.91699 4.66659 2.91699H7.16659H7.58325V4.16699H13.4166V2.91699H14.2707Z" fill="#2F88FF" stroke="black" stroke-linejoin="round"/>
<path d="M13.4166 1.66699H7.58325V4.16699H13.4166V1.66699Z" stroke="black" stroke-linecap="round" stroke-linejoin="round"/>
<path d="M11.7499 7.91699L8.41675 11.2508H12.5851L9.25021 14.5844" stroke="white" stroke-linecap="round" stroke-linejoin="round"/>
</g>
<defs>
<clipPath id="clip0_1407_991">
<rect width="20" height="20" fill="white" transform="translate(0.5)"/>
</clipPath>
</defs>
</svg>
