<svg width="50" height="50" viewBox="0 0 50 50" fill="none" xmlns="http://www.w3.org/2000/svg">
<path d="M40.4939 32.8484H9.28442C6.5022 32.8484 4.24664 35.1145 4.24664 37.9101V40.8573H45.5316V37.9101C45.5316 35.1145 43.2755 32.8484 40.4939 32.8484Z" fill="#FFCA6C"/>
<path d="M18.8633 32.8484H9.28442C6.5022 32.8484 4.24664 35.1145 4.24664 37.9101V40.8573H13.8255V37.9101C13.8255 35.1145 16.0811 32.8484 18.8633 32.8484Z" fill="#E5B05C"/>
<path d="M41.77 32.8483C41.77 23.4806 34.2123 15.8861 24.8889 15.8861C15.5661 15.8861 8.00836 23.48 8.00836 32.8483" fill="#FFCA6C"/>
<path d="M27.6845 16.1195C26.7607 15.9647 25.8256 15.8868 24.8889 15.8867C15.5661 15.8867 8.00836 23.4806 8.00836 32.8489H13.5989C13.5989 24.4373 19.6917 17.4578 27.6845 16.1195Z" fill="#E5B05C"/>
<path d="M21.8406 10.3161C21.8405 10.7183 21.9193 11.1166 22.0725 11.4881C22.2257 11.8597 22.4502 12.1973 22.7333 12.4817C23.0163 12.7661 23.3524 12.9917 23.7223 13.1456C24.0921 13.2995 24.4886 13.3788 24.8889 13.3788C25.2893 13.3788 25.6857 13.2995 26.0555 13.1456C26.4254 12.9917 26.7615 12.7661 27.0445 12.4817C27.3276 12.1973 27.5521 11.8597 27.7053 11.4881C27.8585 11.1166 27.9373 10.7183 27.9372 10.3161C27.9373 9.91398 27.8585 9.51574 27.7053 9.14417C27.5521 8.7726 27.3276 8.43498 27.0445 8.15058C26.7615 7.86619 26.4254 7.64059 26.0555 7.48667C25.6857 7.33276 25.2893 7.25354 24.8889 7.25354C24.4886 7.25354 24.0921 7.33276 23.7223 7.48667C23.3524 7.64059 23.0163 7.86619 22.7333 8.15058C22.4502 8.43498 22.2257 8.7726 22.0725 9.14417C21.9193 9.51574 21.8405 9.91398 21.8406 10.3161Z" fill="#FFCA6C"/>
<path d="M24.2356 10.3166C24.2348 9.7176 24.4097 9.1315 24.7386 8.63087C25.0675 8.13023 25.536 7.73704 26.0861 7.49995C25.7079 7.33739 25.3005 7.25383 24.8889 7.2544C23.2056 7.2544 21.8411 8.62551 21.8411 10.3172C21.8411 12.0083 23.2061 13.3794 24.8889 13.3794C25.3139 13.3794 25.7183 13.2916 26.0861 13.1338C25.5361 12.8965 25.0677 12.5031 24.7388 12.0025C24.4099 11.5018 24.235 10.9157 24.2356 10.3166Z" fill="#E5B05C"/>
<path d="M38.2711 28.7383C37.9872 28.7383 37.7222 28.5617 37.6206 28.2778C36.0567 23.8917 32.2761 20.5561 27.755 19.5717C27.3817 19.4906 27.145 19.1206 27.2261 18.7461C27.3072 18.3717 27.675 18.1333 28.0478 18.2145C30.5313 18.7597 32.8337 19.9319 34.7356 21.6195C36.6289 23.2982 38.0687 25.4271 38.9217 27.8095C38.9589 27.914 38.9706 28.026 38.9557 28.136C38.9408 28.246 38.8999 28.3509 38.8362 28.4418C38.7725 28.5327 38.688 28.6071 38.5897 28.6587C38.4914 28.7103 38.3821 28.7376 38.2711 28.7383ZM42.4267 36.4006C42.3197 36.4006 42.2143 36.3757 42.1186 36.3278C42.0229 36.28 41.9397 36.2106 41.8756 36.125C41.7395 35.9439 41.4106 35.8189 41.3067 35.7939C41.1309 35.748 40.9801 35.6351 40.8866 35.4793C40.7931 35.3235 40.7644 35.1373 40.8066 34.9605C40.8489 34.7838 40.9587 34.6307 41.1125 34.534C41.2663 34.4373 41.4519 34.4048 41.6295 34.4433C41.7184 34.465 42.5145 34.6711 42.9778 35.2872C43.0552 35.3902 43.1024 35.5126 43.1143 35.6409C43.1262 35.7691 43.1022 35.8982 43.0451 36.0136C42.9879 36.129 42.8999 36.2263 42.7907 36.2947C42.6815 36.363 42.5555 36.3996 42.4267 36.4006Z" fill="white"/>
<path d="M42.4567 32.5022C42.2767 23.1572 34.8355 15.5688 25.5794 15.2072V14.0077C26.4374 13.8429 27.2111 13.3841 27.7673 12.7104C28.3236 12.0368 28.6277 11.1903 28.6272 10.3166C28.6273 9.68202 28.4676 9.05763 28.1628 8.50105C28.1191 8.42141 28.0602 8.35117 27.9893 8.29437C27.9184 8.23758 27.837 8.19534 27.7498 8.1701C27.6625 8.14485 27.5712 8.1371 27.4809 8.14727C27.3907 8.15745 27.3033 8.18535 27.2239 8.22939C27.0634 8.31912 26.945 8.46866 26.8944 8.6454C26.8438 8.82213 26.8652 9.01169 26.9539 9.17272C27.1455 9.5205 27.2461 9.9155 27.2461 10.3166C27.2461 11.6227 26.1889 12.6849 24.8889 12.6849C23.5889 12.6849 22.5317 11.6227 22.5317 10.3166C22.5317 9.0105 23.5889 7.94828 24.8883 7.94828C25.21 7.94828 25.5217 8.01217 25.8144 8.13772C25.8979 8.1735 25.9877 8.19242 26.0785 8.1934C26.1694 8.19438 26.2595 8.17739 26.3438 8.14342C26.428 8.10945 26.5047 8.05916 26.5695 7.99545C26.6342 7.93174 26.6858 7.85586 26.7211 7.77217C26.7935 7.60314 26.7959 7.41229 26.7278 7.24149C26.6597 7.07069 26.5266 6.93387 26.3578 6.86105C25.8936 6.66141 25.3936 6.55893 24.8883 6.55994C22.8272 6.55994 21.15 8.24494 21.15 10.3166C21.1497 11.1903 21.4539 12.0367 22.0101 12.7105C22.5663 13.3842 23.3399 13.8431 24.1978 14.0083V15.2072C21.9148 15.2912 19.671 15.8259 17.5955 16.7805C17.4287 16.8575 17.2991 16.9975 17.2352 17.1698C17.1712 17.3421 17.1782 17.5327 17.2544 17.6999C17.2917 17.7828 17.3451 17.8574 17.4113 17.9195C17.4776 17.9816 17.5555 18.03 17.6405 18.062C17.7255 18.0939 17.8161 18.1086 17.9068 18.1054C17.9976 18.1022 18.0869 18.0811 18.1694 18.0433C20.2767 17.0742 22.5695 16.5751 24.8889 16.5805C33.5939 16.5805 40.7155 23.5199 41.0644 32.1827C40.8748 32.1636 40.6844 32.1539 40.4939 32.1538H9.28443C9.09165 32.1538 8.90165 32.1638 8.71388 32.1827C8.8135 29.5931 9.53137 27.0649 10.8075 24.8093C12.0836 22.5538 13.881 20.6363 16.0494 19.2172C16.203 19.1161 16.3104 18.9583 16.348 18.7783C16.3855 18.5983 16.3503 18.4107 16.25 18.2566C16.2006 18.1804 16.1367 18.1147 16.0619 18.0632C15.987 18.0118 15.9027 17.9757 15.8139 17.9569C15.725 17.9382 15.6333 17.9372 15.5441 17.954C15.4548 17.9708 15.3698 18.0051 15.2939 18.0549C10.3955 21.2683 7.43499 26.6494 7.32276 32.5022C6.21733 32.9104 5.26357 33.6476 4.58999 34.6145C3.91642 35.5814 3.55538 36.7315 3.55554 37.9099V40.8572C3.55554 41.2399 3.86499 41.5511 4.24665 41.5511H45.5317C45.9128 41.5511 46.2222 41.2399 46.2222 40.8572V37.9099C46.2222 35.4283 44.6511 33.3088 42.4567 32.5022ZM4.93721 40.1627V37.9099C4.93721 35.5011 6.88721 33.5422 9.28443 33.5422H40.4933C42.6555 33.5422 44.4533 35.1361 44.7855 37.2161H39.35C38.9683 37.2161 38.6594 37.5272 38.6594 37.9099C38.6594 38.2933 38.9689 38.6044 39.35 38.6044H44.8411V40.1627H4.93721Z" fill="black"/>
<path d="M36.955 37.2161H16.0467C15.665 37.2161 15.3556 37.5272 15.3556 37.91C15.3556 38.2933 15.665 38.6044 16.0467 38.6044H36.9544C37.3361 38.6044 37.645 38.2933 37.645 37.91C37.6453 37.8191 37.6277 37.729 37.5932 37.645C37.5586 37.5609 37.5079 37.4845 37.4438 37.42C37.3797 37.3556 37.3036 37.3044 37.2197 37.2694C37.1358 37.2344 37.0459 37.2163 36.955 37.2161ZM13.8256 37.2161H7.94111C7.55944 37.2161 7.25 37.5272 7.25 37.91C7.25 38.2933 7.55944 38.6044 7.94111 38.6044H13.825C14.2067 38.6044 14.5161 38.2933 14.5161 37.91C14.5161 37.5272 14.2072 37.2161 13.8256 37.2161Z" fill="black"/>
</svg>
