<svg width="17" height="16" viewBox="0 0 17 16" fill="none" xmlns="http://www.w3.org/2000/svg">
<g clip-path="url(#clip0_217_517)">
<path d="M4.98047 7.17651H12.0328V7.97339H4.98047V7.17651ZM4.98047 10.6828H9.29688V11.4796H4.98047V10.6828Z" fill="#0080A9"/>
<path d="M13.5867 15.7961H3.41328C3.20078 15.7961 3.00156 15.7563 2.80234 15.6766C2.61641 15.5969 2.44375 15.4906 2.31094 15.3445C2.16484 15.1984 2.05859 15.0391 1.97891 14.8531C1.89922 14.6539 1.85938 14.4547 1.85938 14.2422V3.65703C1.85938 3.44453 1.89922 3.24531 1.97891 3.04609C2.05859 2.86016 2.16484 2.6875 2.31094 2.55469C2.45703 2.40859 2.61641 2.30234 2.80234 2.22266C3.00156 2.14297 3.20078 2.10313 3.41328 2.10313H4.95391V2.88672H3.41328C2.98828 2.88672 2.62969 3.23203 2.62969 3.67031V14.2555C2.62969 14.6805 2.975 15.0391 3.41328 15.0391H13.5734C13.9984 15.0391 14.357 14.6937 14.357 14.2555V3.65703C14.357 3.23203 14.0117 2.87344 13.5734 2.87344H12.0461V2.08984H13.5867C13.7992 2.08984 13.9984 2.12969 14.1977 2.20937C14.3836 2.28906 14.5562 2.39531 14.6891 2.54141C14.8352 2.6875 14.9414 2.84688 15.0211 3.03281C15.1008 3.23203 15.1406 3.43125 15.1406 3.64375V14.2289C15.1406 14.4414 15.1008 14.6406 15.0211 14.8398C14.9414 15.0258 14.8352 15.1984 14.6891 15.3312C14.543 15.4773 14.3836 15.5836 14.1977 15.6633C13.9984 15.7562 13.7992 15.7961 13.5867 15.7961Z" fill="#0080A9"/>
<path d="M12.4047 4.44067H4.59531V1.89067C4.59531 1.34614 5.03359 0.907861 5.57812 0.907861H6.58749C6.94609 0.190674 7.68984 -0.27417 8.51328 -0.27417C9.33671 -0.27417 10.0805 0.190674 10.4391 0.907861H11.4484C11.993 0.907861 12.4312 1.34614 12.4312 1.89067L12.4047 4.44067ZM5.3789 3.65708H11.6344V1.89067C11.6344 1.78442 11.5414 1.69146 11.4352 1.69146H9.88124L9.78827 1.42583C9.60234 0.881299 9.08437 0.509424 8.49999 0.509424C7.91562 0.509424 7.39765 0.881299 7.21171 1.42583L7.11874 1.69146H5.56484C5.45859 1.69146 5.36562 1.78442 5.36562 1.89067V3.65708H5.3789Z" fill="#0080A9"/>
</g>
<defs>
<clipPath id="clip0_217_517">
<rect width="17" height="17" fill="white" transform="translate(0 -0.5)"/>
</clipPath>
</defs>
</svg>
