<svg width="15" height="15" viewBox="0 0 15 15" fill="none" xmlns="http://www.w3.org/2000/svg">
<path fill-rule="evenodd" clip-rule="evenodd" d="M3.49112 2.86612C3.125 3.23223 3.125 3.82149 3.125 5V10.625C3.125 11.8035 3.125 12.3927 3.49112 12.7589C3.85723 13.125 4.44649 13.125 5.625 13.125H9.375C10.5535 13.125 11.1427 13.125 11.5089 12.7589C11.875 12.3927 11.875 11.8035 11.875 10.625V5C11.875 3.82149 11.875 3.23223 11.5089 2.86612C11.1427 2.5 10.5535 2.5 9.375 2.5H5.625C4.44649 2.5 3.85723 2.5 3.49112 2.86612ZM5.625 5C5.27982 5 5 5.27982 5 5.625C5 5.97018 5.27982 6.25 5.625 6.25H9.375C9.72019 6.25 10 5.97018 10 5.625C10 5.27982 9.72019 5 9.375 5H5.625ZM5.625 7.5C5.27982 7.5 5 7.77981 5 8.125C5 8.47019 5.27982 8.75 5.625 8.75H9.375C9.72019 8.75 10 8.47019 10 8.125C10 7.77981 9.72019 7.5 9.375 7.5H5.625ZM5.625 10C5.27982 10 5 10.2798 5 10.625C5 10.9702 5.27982 11.25 5.625 11.25H8.125C8.47019 11.25 8.75 10.9702 8.75 10.625C8.75 10.2798 8.47019 10 8.125 10H5.625Z" fill="#009BDD"/>
</svg>
