<svg width="28" height="27" viewBox="0 0 28 27" fill="none" xmlns="http://www.w3.org/2000/svg">
<path d="M22.0789 25.882H5.92109C5.58359 25.882 5.26719 25.8187 4.95078 25.6922C4.65547 25.5656 4.38125 25.3969 4.17031 25.1648C3.93828 24.9328 3.76953 24.6797 3.64297 24.3844C3.51641 24.068 3.45312 23.7516 3.45312 23.4141V6.60234C3.45312 6.26484 3.51641 5.94844 3.64297 5.63203C3.76953 5.33672 3.93828 5.0625 4.17031 4.85156C4.40234 4.61953 4.65547 4.45078 4.95078 4.32422C5.26719 4.19766 5.58359 4.13438 5.92109 4.13438H8.36797V5.37891H5.92109C5.24609 5.37891 4.67656 5.92734 4.67656 6.62344V23.4352C4.67656 24.1102 5.225 24.6797 5.92109 24.6797H22.0578C22.7328 24.6797 23.3023 24.1312 23.3023 23.4352V6.60234C23.3023 5.92734 22.7539 5.35781 22.0578 5.35781H19.632V4.11328H22.0789C22.4164 4.11328 22.7328 4.17656 23.0492 4.30312C23.3445 4.42969 23.6187 4.59844 23.8297 4.83047C24.0617 5.0625 24.2305 5.31562 24.357 5.61094C24.4836 5.92734 24.5469 6.24375 24.5469 6.58125V23.393C24.5469 23.7305 24.4836 24.0469 24.357 24.3633C24.2305 24.6586 24.0617 24.9328 23.8297 25.1437C23.5977 25.3758 23.3445 25.5445 23.0492 25.6711C22.7328 25.8187 22.4164 25.882 22.0789 25.882Z" fill="black"/>
<path d="M20.2016 7.84686H7.79846V3.79686C7.79846 2.93202 8.49456 2.23593 9.3594 2.23593H10.9625C11.5321 1.09686 12.7133 0.358582 14.0211 0.358582C15.3289 0.358582 16.5102 1.09686 17.0797 2.23593H18.6828C19.5477 2.23593 20.2438 2.93202 20.2438 3.79686L20.2016 7.84686ZM9.04299 6.60233H18.9781V3.79686C18.9781 3.62811 18.8305 3.48046 18.6617 3.48046H16.1938L16.0461 3.05858C15.7508 2.19374 14.9281 1.60311 14 1.60311C13.0719 1.60311 12.2492 2.19374 11.9539 3.05858L11.8063 3.48046H9.33831C9.16956 3.48046 9.0219 3.62811 9.0219 3.79686V6.60233H9.04299Z" fill="black"/>
<path d="M6.85294 12.3323C6.85294 11.7835 7.29789 11.3385 7.84673 11.3385C8.39556 11.3385 8.84051 11.7835 8.84051 12.3323H6.85294ZM7.84673 16.3074V17.3012C7.29789 17.3012 6.85294 16.8563 6.85294 16.3074H7.84673ZM11.8219 15.3136C12.3707 15.3136 12.8156 15.7586 12.8156 16.3074C12.8156 16.8563 12.3707 17.3012 11.8219 17.3012V15.3136ZM22.0149 15.9262C22.2254 16.433 21.9852 17.0146 21.4783 17.2251C20.9715 17.4357 20.3899 17.1955 20.1794 16.6886L22.0149 15.9262ZM9.87908 14.2948L10.6072 14.9713C10.5978 14.9813 10.5881 14.9913 10.5783 15.0009L9.87908 14.2948ZM8.84051 12.3323V16.3074H6.85294V12.3323H8.84051ZM7.84673 15.3136H11.8219V17.3012H7.84673V15.3136ZM20.1794 16.6886C19.6683 15.4581 18.801 14.6032 17.6171 13.8976L18.6347 12.1902C20.0799 13.0515 21.2982 14.2006 22.0149 15.9262L20.1794 16.6886ZM17.6171 13.8976C16.4965 13.2296 15.2133 12.9764 13.9577 13.1668L13.6597 11.2018C15.3789 10.941 17.1261 11.2911 18.6347 12.1902L17.6171 13.8976ZM13.9577 13.1668C12.7013 13.3575 11.5236 13.9849 10.6072 14.9713L9.1511 13.6184C10.3606 12.3165 11.9412 11.4625 13.6597 11.2018L13.9577 13.1668ZM10.5783 15.0009L8.54595 17.0135L7.1475 15.6013L9.17985 13.5887L10.5783 15.0009Z" fill="#001A72"/>
</svg>
