<svg width="20" height="20" viewBox="0 0 20 20" fill="none" xmlns="http://www.w3.org/2000/svg">
<path d="M17.5 4.58333C17.5 11.717 11.717 17.5 4.58333 17.5C4.26148 17.5 3.94238 17.4882 3.62643 17.4651C3.26385 17.4385 3.08255 17.4253 2.91752 17.3303C2.78084 17.2516 2.65122 17.1121 2.58271 16.97C2.5 16.7985 2.5 16.5984 2.5 16.1983V13.8506C2.5 13.5141 2.5 13.3458 2.55538 13.2017C2.60429 13.0742 2.68374 12.9608 2.78675 12.8713C2.90336 12.77 3.06147 12.7125 3.37767 12.5975L6.05004 11.6257C6.41794 11.492 6.60189 11.4251 6.77642 11.4364C6.93031 11.4464 7.0784 11.499 7.20422 11.5882C7.3469 11.6892 7.44761 11.8571 7.64902 12.1928L8.33333 13.3333C10.5416 12.3332 12.3317 10.5407 13.3333 8.33333L12.1928 7.64902C11.8571 7.44761 11.6892 7.3469 11.5882 7.20422C11.499 7.0784 11.4464 6.93031 11.4364 6.77642C11.4251 6.60189 11.492 6.41794 11.6257 6.05004L12.5975 3.37767C12.7125 3.06147 12.77 2.90336 12.8713 2.78675C12.9608 2.68374 13.0742 2.60429 13.2017 2.55538C13.3458 2.5 13.5141 2.5 13.8506 2.5H16.1983C16.5984 2.5 16.7985 2.5 16.97 2.58271C17.1121 2.65122 17.2516 2.78084 17.3303 2.91752C17.4253 3.08256 17.4385 3.26385 17.4651 3.62644C17.4882 3.94238 17.5 4.26148 17.5 4.58333Z" stroke="#26B074" stroke-linecap="round" stroke-linejoin="round"/>
</svg>
