<svg width="20" height="20" viewBox="0 0 20 20" fill="none" xmlns="http://www.w3.org/2000/svg">
<g clip-path="url(#clip0_478_636)">
<path d="M15 1.25C17.7614 1.25 20 3.48858 20 6.25V13.75C20 16.5114 17.7614 18.75 15 18.75H5C2.23858 18.75 0 16.5114 0 13.75V6.25C0 3.48858 2.23858 1.25 5 1.25H15ZM5.52685 8.37087L1.25 12.6475V13.75C1.25 15.774 2.85348 17.4235 4.85941 17.4974L5 17.5H14.6562L5.52685 8.37087ZM18.75 7.20563L12.44 13.5162L16.2201 17.297C17.6501 16.8053 18.6891 15.4732 18.7474 13.8906L18.75 13.75V7.20563ZM15 2.5H5C2.976 2.5 1.32652 4.10348 1.25259 6.10941L1.25 6.25V10.8794L4.64297 7.48699C5.10893 7.02102 5.85125 6.99984 6.34234 7.42345L6.41073 7.48699L11.5556 12.6319L18.6773 5.51145C18.3432 3.83853 16.896 2.56728 15.1406 2.50259L15 2.5ZM11.625 3.75C13.0057 3.75 14.125 4.86929 14.125 6.25C14.125 7.63071 13.0057 8.75 11.625 8.75C10.2443 8.75 9.125 7.63071 9.125 6.25C9.125 4.86929 10.2443 3.75 11.625 3.75ZM11.625 5C10.9346 5 10.375 5.55964 10.375 6.25C10.375 6.94036 10.9346 7.5 11.625 7.5C12.3154 7.5 12.875 6.94036 12.875 6.25C12.875 5.55964 12.3154 5 11.625 5Z" fill="#0080A9"/>
</g>
<defs>
<clipPath id="clip0_478_636">
<rect width="20" height="20" fill="white"/>
</clipPath>
</defs>
</svg>
