<svg width="20" height="20" viewBox="0 0 20 20" fill="none" xmlns="http://www.w3.org/2000/svg">
<g clip-path="url(#clip0_1466_797)">
<path d="M10.2993 9.93139C9.9656 9.94143 9.79825 9.94451 9.46419 9.94592C9.42685 9.94662 9.40919 9.96319 9.40884 9.99506C9.40853 10.4571 9.40817 10.6877 9.40747 11.1494C9.40747 11.1819 9.4272 11.1978 9.4656 11.1974C9.81419 11.195 9.9881 11.1929 10.3367 11.1825C10.8689 11.1663 11.1538 10.8997 11.132 10.5203C11.1102 10.141 10.8093 9.91619 10.2993 9.93139Z" fill="black"/>
<path d="M19.2366 3.46395L16.7047 2.79238C16.6386 2.7782 16.5847 2.72492 16.5705 2.65855L15.902 0.126914C15.8847 0.0532422 15.8201 0 15.7433 0C15.6672 0 15.6019 0.0532422 15.5839 0.126914L14.9165 2.65855C14.9013 2.72496 14.8477 2.7782 14.7816 2.79238L12.25 3.46395C12.1752 3.47879 12.1234 3.54348 12.1234 3.62027C12.1234 3.69633 12.1752 3.76238 12.25 3.77621L14.7816 4.44813C14.8476 4.46156 14.9013 4.51555 14.9165 4.58195L15.5839 7.11359C15.6019 7.18797 15.6672 7.24016 15.7433 7.24016C15.8201 7.24016 15.8847 7.18797 15.902 7.11359L16.5705 4.58195C16.5847 4.51555 16.6386 4.4616 16.7047 4.44813L19.2366 3.77621C19.3106 3.76238 19.3632 3.69633 19.3632 3.62027C19.3632 3.54348 19.3106 3.47879 19.2366 3.46395Z" fill="black"/>
<path d="M17.9657 10.0977C17.5369 9.59461 16.892 9.11946 16.0783 8.71762C14.4517 7.91121 12.1589 7.39805 9.62387 7.39942C7.96016 7.39942 6.40094 7.61864 5.06578 7.99871C3.73027 8.37805 2.61957 8.92063 1.85324 9.54617C1.34109 9.96219 0.985625 10.4124 0.798203 10.8664C0.690664 11.1265 0.636719 11.3879 0.636719 11.6563C0.636719 11.9247 0.690625 12.1861 0.798203 12.4461C0.905742 12.7055 1.06691 12.9631 1.28164 13.2145C1.71113 13.7183 2.3557 14.1928 3.16902 14.5949C4.7957 15.4017 7.08875 15.9145 9.62387 15.9135C11.2879 15.9135 12.8468 15.6939 14.1819 15.3135C15.5174 14.9341 16.6285 14.392 17.3945 13.7667C17.9062 13.35 18.2624 12.8998 18.4491 12.4461C18.557 12.1861 18.611 11.9247 18.611 11.6563C18.611 11.3879 18.5571 11.1265 18.4491 10.8664C18.342 10.6068 18.1808 10.3491 17.9657 10.0977ZM10.4718 12.3814C10.0696 12.3943 9.86906 12.398 9.46621 12.3998C9.42609 12.4002 9.40535 12.4171 9.40535 12.4496C9.4043 13.1308 9.40363 13.4714 9.40258 14.1534C9.40258 14.2018 9.36176 14.2353 9.29746 14.235C8.6325 14.2357 8.2998 14.2287 7.6352 14.2018C7.57121 14.199 7.53043 14.1651 7.53316 14.1163C7.6573 11.9852 7.71816 10.9207 7.8423 8.79133C7.84508 8.74289 7.88344 8.71313 7.93672 8.71524C8.90258 8.75399 9.38668 8.75672 10.3522 8.72563C11.826 8.67723 12.6736 9.3325 12.7956 10.3924C12.9149 11.4357 12.1317 12.3282 10.4718 12.3814ZM16.7623 11.7586L15.6132 12.0629C15.5832 12.0692 15.5586 12.0941 15.5521 12.1245L15.2491 13.2729C15.2412 13.3064 15.2118 13.3304 15.1769 13.3304C15.1426 13.3304 15.1129 13.3065 15.1046 13.2729L14.8017 12.1245C14.7948 12.0941 14.7705 12.0692 14.7405 12.0629L13.5917 11.7586C13.5578 11.7517 13.534 11.722 13.534 11.6874C13.534 11.6528 13.5578 11.6231 13.5917 11.6165L14.7405 11.3118C14.7706 11.3049 14.7948 11.2814 14.8017 11.251L15.1046 10.1019C15.1129 10.0683 15.1427 10.0445 15.1769 10.0445C15.2118 10.0445 15.2412 10.0683 15.2491 10.1019L15.5521 11.251C15.5586 11.2814 15.5832 11.305 15.6132 11.3118L16.7623 11.6165C16.7955 11.6231 16.8198 11.6528 16.8198 11.6874C16.8198 11.722 16.7955 11.7517 16.7623 11.7586Z" fill="black"/>
<path d="M0.77335 5.59391L2.58226 6.0732C2.62999 6.0832 2.66765 6.1216 2.67909 6.16934L3.15562 7.97824C3.16874 8.03184 3.21542 8.06883 3.26972 8.06883C3.32437 8.06883 3.37073 8.03184 3.38351 7.97824L3.86038 6.16934C3.87038 6.1216 3.90948 6.0832 3.95687 6.0732L5.76608 5.59391C5.81897 5.58281 5.85671 5.53512 5.85671 5.48117C5.85671 5.42727 5.81897 5.3809 5.76608 5.36984L3.95687 4.88984C3.90948 4.87945 3.87038 4.84211 3.86038 4.79441L3.38347 2.98445C3.37069 2.93191 3.32433 2.89453 3.26968 2.89453C3.21538 2.89453 3.16874 2.93187 3.15558 2.98445L2.67905 4.79441C2.66761 4.84211 2.62995 4.87949 2.58222 4.88984L0.773311 5.36984C0.719365 5.3809 0.682373 5.42727 0.682373 5.48117C0.682412 5.53512 0.719404 5.58285 0.77335 5.59391Z" fill="black"/>
<path d="M0.636719 14.1172V15.7466C0.636719 16.0153 0.690625 16.2771 0.798203 16.5371C0.905742 16.7965 1.06691 17.0541 1.28164 17.3059C1.37223 17.4113 1.47391 17.5158 1.58285 17.6185V15.0108C1.5116 14.9575 1.44246 14.9039 1.375 14.8496C1.09453 14.6207 0.846641 14.3762 0.636719 14.1172Z" fill="black"/>
<path d="M2.33948 18.2126C2.5919 18.3782 2.86854 18.537 3.16901 18.6857C3.29803 18.75 3.43252 18.8108 3.56913 18.8703V16.0976C3.12756 15.9192 2.71604 15.7211 2.33948 15.5049V18.2126Z" fill="black"/>
<path d="M4.32647 16.374V19.1526H4.28186C4.821 19.3452 5.40577 19.5102 6.02889 19.6419V16.8188C5.62499 16.7375 5.23354 16.6441 4.8587 16.5376C4.67749 16.4857 4.49975 16.4314 4.32647 16.374Z" fill="black"/>
<path d="M6.78589 19.7784C7.56464 19.9043 8.38835 19.9825 9.24526 19.9998V17.1597C8.39284 17.1431 7.56917 17.0722 6.78589 16.9512V19.7784Z" fill="black"/>
<path d="M10.0026 19.9978C10.8947 19.9805 11.7502 19.8961 12.5567 19.7616V16.9385C11.7458 17.0671 10.8892 17.1442 10.0026 17.1615V19.9978Z" fill="black"/>
<path d="M13.3132 19.6197C13.6113 19.5547 13.9025 19.4838 14.1819 19.4043C14.4714 19.322 14.7494 19.2321 15.0164 19.1352V16.3418C14.4825 16.522 13.9125 16.6762 13.3133 16.8L13.3132 19.6197Z" fill="black"/>
<path d="M15.7729 16.0588V18.8301C16.2325 18.6227 16.6447 18.3944 17.0029 18.1489V15.4502C16.8152 15.5609 16.6191 15.6677 16.414 15.7697C16.209 15.8711 15.9942 15.9672 15.7729 16.0588Z" fill="black"/>
<path d="M17.7147 14.9716H17.7596V17.5285C18.0788 17.2079 18.3109 16.8735 18.4492 16.5374C18.5571 16.2773 18.611 16.0156 18.611 15.7469V14.1182C18.5878 14.1465 18.565 14.1749 18.5412 14.2029C18.3071 14.4764 18.0287 14.732 17.7147 14.9716Z" fill="black"/>
</g>
<defs>
<clipPath id="clip0_1466_797">
<rect width="20" height="20" fill="white"/>
</clipPath>
</defs>
</svg>
