<svg width="20" height="20" viewBox="0 0 20 20" fill="none" xmlns="http://www.w3.org/2000/svg">
<g clip-path="url(#clip0_1405_921)">
<path d="M12.793 2.09844C12.9706 2.07523 13.1519 2.06363 13.3325 2.06363C13.3814 2.06363 13.4308 2.06426 13.4797 2.06668H13.4864C13.592 2.06668 13.6793 1.98246 13.6829 1.87625C13.6866 1.76762 13.6017 1.67605 13.4931 1.67238H13.4729H13.4705L13.468 1.67176H13.4662H13.465H13.4619H13.4613H13.4595C13.4302 1.67113 13.4009 1.66992 13.3716 1.66992H13.3667H13.3661H13.3642H13.3612H13.3606H13.3594H13.3582H13.357H13.3557H13.3545H13.3533H13.3521H13.3509H13.3497H13.3485H13.3473H13.3454H13.3448H13.3436H13.3424H13.3398H13.3374H13.3349H13.3325H13.33H13.3282H13.3275H13.3263H13.3251H13.3233H13.3227H13.3208H13.3203H13.3191H13.3179H13.3167H13.3161H13.3142H13.3136H13.3118H13.3106H13.3093H13.3087H13.3069H13.3044H13.302H13.3001H13.2995H13.2983H13.2971H13.2952H13.2946H13.2928H13.2922H13.2909H13.2897H13.2885H13.2879H13.2861H13.2854H13.2836H13.2824H13.2813H13.2806H13.2788H13.277H13.2763H13.2739H13.272H13.2714H13.2702H13.269H13.2678H13.2672L13.2653 1.67055H13.2641H13.2629H13.2617H13.2605H13.2599H13.2581H13.2556H13.255H13.2531H13.2525H13.2513H13.2507H13.2488H13.2482H13.2464H13.2457H13.2445H13.2433L13.2422 1.67117H13.241H13.2398H13.2391H13.2373H13.2361H13.2349H13.2337H13.2325H13.2318H13.23H13.2275H13.2251H13.2232H13.2227H13.2208H13.2202H13.2177H13.2165H13.2153H13.2141H13.2129H13.2117H13.2111L13.2092 1.6718H13.208H13.2068H13.2062H13.2043H13.2025H13.2019H13.1994H13.197H13.1957L13.1945 1.67242H13.1933H13.1921H13.1903H13.1897H13.1884H13.1872H13.186H13.1854H13.1836H13.1811H13.1799H13.1787H13.1781H13.1769H13.1763H13.175H13.1738H13.172H13.1714L13.1702 1.67305H13.169H13.1677H13.1665H13.1653H13.1647H13.1629H13.1616H13.1604L13.1598 1.67367H13.158H13.1555H13.1531H13.1506H13.1494H13.1482H13.147H13.1457H13.1439H13.1433H13.1421H13.1409L13.1397 1.6743H13.139H13.1372H13.1347H13.1323H13.1298H13.128H13.1273H13.125H13.1232H13.1225L13.1213 1.67492H13.1201H13.1189H13.1183H13.1165H13.1158H13.114H13.1134H13.1115H13.1091H13.1066L13.1048 1.67555H13.1041H13.1023H13.1017H13.1005H13.0993L13.0956 1.67617H13.095H13.0931H13.0907H13.0859H13.0835L13.0816 1.6768H13.081H13.0773H13.0761L13.0749 1.67742H13.0743H13.0725H13.0676H13.0651H13.0627L13.0584 1.67805H13.0578H13.0566H13.0554L13.0541 1.67867H13.0493H13.0469H13.0444L13.0395 1.6793H13.0377H13.0371L13.031 1.67973H13.0304H13.0286H13.0261L13.0212 1.68035H13.0194H13.0188L13.0102 1.68098C12.9198 1.68707 12.8307 1.69625 12.7429 1.70723C12.6354 1.72066 12.5585 1.81953 12.572 1.92758C12.5854 2.02707 12.6696 2.09969 12.7673 2.09969L12.793 2.09844Z" fill="black"/>
<path d="M11.4172 2.10352C11.3879 2.10352 11.3592 2.10961 11.3317 2.12305C11.2646 2.15539 11.1987 2.18898 11.134 2.22437L11.1217 2.23047L11.1193 2.23168L11.1156 2.23352V2.23414L11.1138 2.23477H11.1133L11.1096 2.23723L11.1078 2.23844H11.1071L11.1059 2.23906V2.23969L11.1035 2.2409L11.1023 2.24152H11.101L11.0998 2.24273L11.0974 2.24395L11.0962 2.24516H11.095L11.0937 2.2457V2.24633L11.0913 2.24695V2.24758L11.0901 2.2482L11.0889 2.24883H11.0876L11.087 2.24945L11.0864 2.25008L11.0846 2.25129H11.0839L11.0827 2.2525H11.0821L11.0809 2.25312L11.0803 2.25375L11.0784 2.25437L11.0778 2.255L11.0766 2.25562L11.076 2.25625H11.0753L11.0741 2.25687L11.0717 2.25871L11.0705 2.25934H11.0698L11.0686 2.25996H11.068L11.0643 2.26242L11.0625 2.26363L11.0583 2.26586L11.0565 2.26707H11.0559L11.0504 2.27012C10.9704 2.31527 10.8929 2.36227 10.8166 2.41234C10.7251 2.47156 10.6994 2.59301 10.7587 2.68457C10.7959 2.74254 10.8594 2.7743 10.9241 2.7743C10.9607 2.7743 10.9979 2.76391 11.0308 2.74254C11.1816 2.64488 11.3403 2.55637 11.5026 2.47824C11.6003 2.43125 11.6418 2.31344 11.5948 2.21578C11.5613 2.145 11.4905 2.10352 11.4172 2.10352Z" fill="black"/>
<path d="M15.0598 2.00223L15.0562 2.00039H15.0555L15.0537 1.99977L15.0476 1.9973L15.0409 1.99426H15.0403C15.0061 1.98082 14.9719 1.96738 14.9365 1.9552C14.9145 1.94664 14.8913 1.94238 14.8681 1.94238C14.7888 1.94238 14.7131 1.99184 14.6838 2.07117C14.646 2.17371 14.6985 2.28664 14.8004 2.32445C14.9682 2.38672 15.1342 2.45996 15.2942 2.54355C15.3228 2.5582 15.354 2.56555 15.3845 2.56555C15.4559 2.56555 15.5249 2.5277 15.5597 2.45996C15.6103 2.36414 15.5725 2.24449 15.476 2.19445C15.357 2.13219 15.2343 2.0748 15.1092 2.02234L15.1025 2.01988L15.1006 2.01867L15.0964 2.01746L15.0939 2.01625L15.0903 2.01441L15.0878 2.01379L15.0817 2.01133L15.0756 2.00828H15.0744L15.0732 2.00766L15.0683 2.00582L15.0665 2.0052H15.0658L15.0622 2.00336V2.00273L15.0598 2.00223Z" fill="black"/>
<path d="M8.35145 13.6221C8.12746 13.428 7.79664 13.312 7.35903 13.2736L6.76942 13.2223C6.55883 13.2015 6.40993 13.1514 6.32082 13.0739C6.23172 12.9964 6.18778 12.8859 6.18778 12.7419C6.18778 12.5808 6.25004 12.4514 6.37454 12.3513C6.49907 12.2518 6.69192 12.2018 6.95192 12.2018C7.15149 12.2018 7.34071 12.2255 7.52078 12.2726C7.70145 12.319 7.9102 12.4679 7.9102 12.4679C7.95782 12.4929 8.01578 12.4825 8.05301 12.4447L8.40579 12.087C8.43325 12.0589 8.44606 12.0205 8.43996 11.9814C8.43387 11.943 8.41067 11.91 8.37586 11.8917C8.37586 11.8917 8.09938 11.675 7.83629 11.6036C7.68188 11.5609 7.51465 11.5334 7.34008 11.5157V10.9854H6.58996V11.5267C6.50512 11.5402 6.4209 11.556 6.34157 11.5792C6.15051 11.6341 5.98266 11.7171 5.83864 11.8282C5.6952 11.9381 5.58168 12.0742 5.49805 12.2347C5.41504 12.3952 5.37352 12.5784 5.37352 12.7834C5.37352 13.1539 5.48094 13.431 5.69825 13.6141C5.91371 13.796 6.22071 13.9071 6.61989 13.9462L7.2925 14.0036C7.49758 14.0268 7.64286 14.0786 7.72828 14.1616C7.81496 14.2453 7.85707 14.3588 7.85707 14.5022C7.85707 14.7024 7.77039 14.8483 7.59582 14.9435C7.42188 15.0375 7.20094 15.0839 6.93543 15.0839C6.72485 15.0839 6.51368 15.0546 6.30004 14.9972C6.08704 14.9386 5.80567 14.6945 5.80567 14.6945C5.75684 14.6652 5.69457 14.6725 5.65368 14.7128L5.27832 15.0882C5.25145 15.115 5.23805 15.1529 5.24293 15.1907C5.24782 15.2286 5.26981 15.2621 5.30274 15.2816C5.30274 15.2816 5.68664 15.6057 5.98024 15.6863C6.17313 15.7388 6.37637 15.7723 6.58996 15.7907V16.4059H7.34008V15.7779C7.4402 15.7644 7.53907 15.7479 7.63305 15.7241C7.84911 15.668 8.03465 15.5837 8.18969 15.4696C8.34411 15.3567 8.4668 15.2169 8.55528 15.0509C8.64375 14.8849 8.68774 14.6914 8.68774 14.4686C8.68774 14.0982 8.57668 13.8162 8.35145 13.6221Z" fill="black"/>
<path d="M6.96533 7.39258C3.48389 7.39258 0.661621 10.2148 0.661621 13.6963C0.661621 17.1777 3.48389 20 6.96533 20C10.4468 20 13.269 17.1777 13.269 13.6963C13.269 10.2148 10.4468 7.39258 6.96533 7.39258ZM6.96533 19.0149C4.03197 19.0149 1.64674 16.629 1.64674 13.6963C1.64674 10.7636 4.03201 8.3777 6.96533 8.3777C9.89748 8.3777 12.2839 10.7636 12.2839 13.6963C12.2839 16.629 9.89744 19.0149 6.96533 19.0149Z" fill="black"/>
<path d="M6.40021 9.49223L6.42584 9.49039C6.60283 9.46781 6.78474 9.45621 6.96541 9.45621C7.01423 9.45621 7.06306 9.45684 7.11189 9.45926H7.11924C7.22482 9.45926 7.31213 9.37504 7.31576 9.26883C7.31943 9.1602 7.23396 9.06863 7.12533 9.06496H7.1058H7.10334L7.10088 9.06434H7.10025H7.09841H7.09779H7.09716H7.09412H7.09228C7.06298 9.06371 7.03369 9.0625 7.00439 9.0625H6.99951H6.9983H6.99709H6.99646H6.99341H6.99224H6.99103H6.98982H6.98861H6.9874H6.98556H6.98494H6.98373H6.98252H6.98068H6.98006H6.97759H6.97576H6.97513H6.97271H6.97025H6.96963H6.96779H6.96533H6.96287H6.96041H6.95857H6.95795H6.95611H6.95548H6.95318H6.95197H6.95076H6.94955H6.94834H6.94713H6.94591H6.9447H6.94349H6.94228H6.94107H6.93986H6.93923H6.9374H6.93494H6.93431H6.93248H6.93064H6.93002H6.92818H6.92755H6.92509H6.92388H6.92267H6.92146H6.92025H6.91904H6.91783H6.91662H6.91541H6.91412H6.91291H6.9117H6.91107H6.90923H6.90677H6.90615H6.90431H6.90248H6.90185H6.90002H6.89939L6.89756 9.06313H6.89693H6.89572H6.89459H6.89338H6.89216H6.89095H6.89033H6.88849H6.88728H6.88607H6.88545H6.88361H6.88115H6.87869H6.87685H6.87623L6.87439 9.06375H6.87377H6.87193H6.87131H6.86947H6.86884H6.86763H6.86642H6.86521H6.86459H6.86275H6.86029H6.85966H6.85783H6.8572H6.85552H6.85369H6.85306H6.8506H6.84877H6.84814H6.84631H6.84568H6.84447H6.84326L6.84205 9.06438H6.84084H6.83963H6.83841H6.8372H6.83658H6.83474H6.83228H6.82982H6.82798L6.82736 9.065H6.82552H6.8249H6.82244H6.82123H6.82002H6.8188H6.81759H6.81646H6.81584H6.814H6.81279H6.81158H6.81095H6.80912H6.80728H6.80666H6.8042H6.80357L6.80236 9.06563H6.80173H6.7999H6.79927H6.79806H6.79693H6.79572H6.79451H6.7933L6.79209 9.06625H6.79088H6.79025H6.78841H6.78595H6.78349H6.78166H6.78103H6.7792H6.77857H6.77611H6.7749H6.77369L6.77248 9.06687H6.77127H6.77005H6.76943H6.76759H6.76697H6.76513H6.76451H6.76267H6.76021H6.75787H6.75541L6.7542 9.0675H6.75298H6.75177H6.75115H6.74869H6.74806H6.74685H6.74564H6.74443H6.7438H6.74197H6.73951L6.73705 9.06813H6.73459H6.73275H6.73213L6.72787 9.06875H6.72724H6.72603H6.72541H6.72357H6.7188H6.71634L6.71388 9.06938H6.70963H6.709L6.70779 9.07H6.70658H6.70537H6.70474H6.70048H6.69986H6.69802H6.69556L6.69068 9.07063H6.68884H6.68822L6.68701 9.07125H6.68638H6.68213H6.6815H6.67974H6.67728L6.6724 9.07188H6.66994L6.66322 9.0725H6.66138H6.66076H6.65892L6.65404 9.07313H6.65158L6.64302 9.07375H6.6424C6.55267 9.07984 6.46357 9.0884 6.37568 9.1C6.26763 9.11344 6.19134 9.21231 6.20478 9.32035C6.21771 9.41961 6.30255 9.49223 6.40021 9.49223Z" fill="black"/>
<path d="M5.22713 9.6084C5.19357 9.53758 5.12338 9.49609 5.04951 9.49609C5.02084 9.49609 4.99213 9.50219 4.96467 9.51562C4.89752 9.54797 4.83162 9.58156 4.76689 9.61695L4.75467 9.62305L4.75221 9.62426L4.74853 9.62609V9.62672L4.74607 9.62734L4.7424 9.6298L4.74057 9.63102H4.73994L4.73873 9.63164L4.73811 9.63227L4.73627 9.63289L4.73443 9.6341H4.73381L4.7326 9.63531H4.73197L4.73014 9.63652H4.72951L4.7283 9.63773H4.72768L4.72662 9.63828L4.726 9.63891L4.72416 9.63953L4.72353 9.64016L4.72232 9.64078L4.7217 9.64141H4.72049L4.71986 9.64203L4.71865 9.64266L4.71682 9.64387L4.71561 9.64508H4.71439L4.71318 9.6457V9.64633L4.71072 9.64695V9.64758L4.70951 9.6482L4.7083 9.64867H4.70768L4.70705 9.6493L4.70459 9.65113L4.70338 9.65176H4.70217L4.70096 9.65238L4.69729 9.65484H4.69666L4.69482 9.65605L4.69057 9.65852L4.68873 9.65973L4.68264 9.66277C4.6033 9.70793 4.52518 9.75492 4.44889 9.805C4.35795 9.86422 4.33232 9.98566 4.39092 10.0772C4.42877 10.1352 4.49225 10.167 4.55693 10.167C4.59357 10.167 4.63018 10.1566 4.66314 10.1352C4.81451 10.0375 4.97322 9.94902 5.13494 9.8709C5.23322 9.82383 5.27471 9.70605 5.22713 9.6084Z" fill="black"/>
<path d="M5.56643 17.7001C5.39674 17.6403 5.22952 17.5695 5.06901 17.4895C5.04034 17.4755 5.01042 17.4688 4.98049 17.4688C4.90846 17.4688 4.83889 17.5084 4.80471 17.5768C4.75588 17.6745 4.79495 17.7929 4.8926 17.8417C4.95241 17.8722 5.01346 17.9009 5.07573 17.9284L5.08182 17.9308L5.08792 17.9339V17.9345L5.09038 17.9351L5.09221 17.9357L5.09284 17.9364H5.09405L5.09467 17.937L5.09651 17.9376L5.09897 17.9388L5.10018 17.9395H5.10139L5.1026 17.9407L5.10506 17.9419L5.1069 17.9425H5.10753L5.10874 17.9431L5.10936 17.9438L5.1112 17.9444L5.11366 17.945V17.9456H5.11487L5.11608 17.9462L5.11729 17.9469H5.11792L5.11975 17.9481H5.12038L5.12159 17.9487L5.12221 17.9493L5.12342 17.95H5.12463L5.12526 17.9506L5.1271 17.9512L5.12772 17.9518H5.12893L5.12956 17.9525L5.13077 17.9531H5.13139L5.13323 17.9543H5.13444L5.13565 17.9549L5.13628 17.9555H5.1369L5.13811 17.9562L5.14057 17.9568V17.9574H5.14178L5.14299 17.958H5.14362L5.14424 17.9587L5.14792 17.9605H5.14913L5.15034 17.9611V17.9618L5.1546 17.9636H5.15522L5.15643 17.9642H5.15706L5.15827 17.9648H5.15889L5.16135 17.9661L5.16256 17.9667H5.16378L5.16499 17.9679L5.16987 17.9697L5.17108 17.9704H5.1717L5.17596 17.9722L5.17842 17.9728L5.18268 17.9753H5.18331L5.18452 17.9759L5.1894 17.9777L5.19061 17.9784H5.19124L5.19733 17.9814H5.19795L5.20405 17.9839L5.20526 17.9851H5.20588L5.21014 17.9863H5.21077L5.21198 17.9875H5.2126L5.21749 17.9893L5.2187 17.99L5.21991 17.9912H5.22053L5.22542 17.993H5.22725L5.23213 17.9955L5.23335 17.9961L5.23823 17.9979L5.23944 17.9986H5.24065L5.24491 18.0004L5.24674 18.001L5.25163 18.0035H5.25284L5.25346 18.0041L5.25467 18.0047H5.2553L5.25897 18.0066L5.26018 18.0072H5.26139V18.0078L5.26565 18.009L5.26627 18.0096H5.26749H5.2687L5.26991 18.0109L5.27237 18.0115L5.27299 18.0121H5.2742L5.27483 18.0127L5.27604 18.0134H5.27725L5.27846 18.014L5.27967 18.0146H5.28088L5.28151 18.0152L5.28213 18.0159H5.28335L5.28518 18.0171H5.28581L5.28702 18.0177H5.28823L5.28944 18.0183H5.29006L5.29069 18.0189L5.29253 18.0196L5.29315 18.0202L5.29436 18.0208H5.29557L5.29678 18.0214H5.29741L5.29924 18.0221H5.29987L5.30171 18.0233L5.30292 18.0239H5.30413L5.30534 18.0245L5.30655 18.0252L5.30776 18.0258H5.30838L5.3096 18.0264L5.31022 18.027L5.31268 18.0277L5.31389 18.0283H5.3151L5.31631 18.0289H5.31694L5.31878 18.0295L5.32124 18.0307L5.32307 18.0314L5.3237 18.032L5.32491 18.0326L5.32737 18.0332L5.32983 18.0345L5.33167 18.0351H5.33229L5.33596 18.0363L5.33842 18.0369C5.37139 18.0497 5.40374 18.0613 5.4367 18.0729C5.45807 18.0803 5.48002 18.0845 5.50202 18.0845C5.5826 18.0845 5.65948 18.0332 5.68756 17.9515C5.72331 17.8478 5.66897 17.7355 5.56643 17.7001Z" fill="black"/>
<path d="M3.61701 16.298C3.57857 16.2479 3.52057 16.2217 3.46197 16.2217C3.41924 16.2217 3.37713 16.2357 3.34111 16.2632C3.25564 16.3304 3.23978 16.4536 3.30631 16.5397C3.34232 16.5855 3.37892 16.6306 3.41619 16.6758L3.41924 16.6795L3.42045 16.6807L3.42412 16.6843V16.685L3.42533 16.6856V16.6868L3.42654 16.6874V16.688L3.42775 16.6899L3.42896 16.6905V16.6917L3.43017 16.6923V16.693L3.43139 16.6942L3.4326 16.6948L3.43322 16.6954L3.43385 16.6966L3.43447 16.6979H3.4351L3.43631 16.6997L3.43756 16.7008L3.43818 16.7014L3.43881 16.7027L3.44002 16.7033L3.44123 16.7051L3.44244 16.7063L3.44365 16.7075L3.44428 16.7082L3.44674 16.7118L3.44736 16.7125L3.44857 16.7131V16.7137L3.45103 16.7174L3.45342 16.7185C3.53154 16.8101 3.61334 16.8973 3.69818 16.9822C3.73662 17.02 3.7867 17.0396 3.83674 17.0396C3.88803 17.0396 3.93807 17.02 3.97713 16.9816C4.05404 16.9041 4.05283 16.7796 3.97592 16.7027C3.84892 16.5757 3.7281 16.4396 3.61701 16.298Z" fill="black"/>
<path d="M2.55245 13.4311C2.65194 13.4311 2.73737 13.356 2.74776 13.2546C2.76608 13.0752 2.79659 12.8964 2.83811 12.7212C2.86253 12.6156 2.79659 12.51 2.691 12.485L2.64522 12.4795C2.55612 12.4795 2.47554 12.5405 2.45417 12.6315C2.4096 12.8213 2.37667 13.016 2.35589 13.2144C2.34491 13.3218 2.42303 13.4195 2.53167 13.4304L2.55245 13.4311Z" fill="black"/>
<path d="M3.66333 11.0363C3.73169 10.952 3.71825 10.8275 3.63341 10.7591C3.59739 10.7298 3.55345 10.7158 3.5095 10.7158C3.45212 10.7158 3.39598 10.7409 3.35692 10.7884C3.32458 10.8287 3.29345 10.869 3.26231 10.9099L3.25927 10.9141L3.25805 10.9154L3.25438 10.9209H3.25376L3.2495 10.9264L3.24583 10.9319L3.24157 10.9374V10.938L3.23364 10.949C3.18114 11.0192 3.1311 11.0912 3.08348 11.165H3.08286L3.07919 11.1705V11.1712L3.07856 11.1724L3.0761 11.1748V11.1755L3.07548 11.1767L3.07485 11.1779V11.1785L3.07239 11.181L3.07177 11.1822L3.07114 11.1828V11.184H3.06993L3.06872 11.1865V11.1871L3.06809 11.1877L3.06747 11.1889L3.06684 11.1896L3.06622 11.1908L3.06559 11.1914L3.06497 11.1932L3.06434 11.1939L3.06372 11.1945L3.06309 11.1951L3.06247 11.1963L3.06184 11.1975L3.06122 11.1988L3.06059 11.1994L3.05997 11.2006L3.05934 11.2012L3.05872 11.2024L3.05809 11.203L3.05747 11.2049H3.05684L3.05622 11.2067L3.05559 11.2073L3.05497 11.2086H3.05434L3.05188 11.2128C3.03907 11.2323 3.02684 11.2519 3.01524 11.2714C2.95848 11.3642 2.98657 11.4856 3.07934 11.5424C3.11169 11.5626 3.1477 11.5717 3.18309 11.5717C3.24903 11.5717 3.31372 11.5388 3.35032 11.4777C3.44485 11.325 3.54981 11.1766 3.66333 11.0363Z" fill="black"/>
<path d="M2.82168 14.5994C2.80152 14.5066 2.71977 14.4443 2.62941 14.4443L2.5873 14.448C2.48109 14.4712 2.41336 14.5762 2.43656 14.6824C2.47867 14.8765 2.53301 15.0663 2.59891 15.2512C2.62758 15.3312 2.70328 15.3819 2.78445 15.3819C2.80645 15.3819 2.8284 15.3776 2.85039 15.3703C2.95293 15.3336 3.00602 15.2207 2.97004 15.1182C2.90957 14.9491 2.86016 14.7745 2.82168 14.5994Z" fill="black"/>
<path d="M9.30916 17.2666C9.27314 17.2666 9.23713 17.2764 9.20416 17.2971C9.05216 17.3917 8.89166 17.4778 8.72931 17.5529C8.63045 17.598 8.5865 17.7152 8.63166 17.8141C8.66463 17.8861 8.73666 17.9289 8.81111 17.9289C8.83857 17.9289 8.86603 17.9234 8.89291 17.9112C9.00154 17.8611 9.10838 17.8074 9.21275 17.7494L9.21459 17.7482H9.21521L9.21888 17.7457L9.22072 17.7445H9.22134L9.22502 17.7427L9.22623 17.7415H9.22744L9.22865 17.7403L9.23111 17.7391L9.23232 17.7384L9.23353 17.7378L9.23474 17.7372V17.7366L9.2372 17.7359V17.7353L9.23841 17.7347L9.23963 17.7341L9.24025 17.7334L9.24088 17.7328L9.24271 17.7322L9.24334 17.7316L9.24455 17.7309H9.24576L9.24638 17.7303L9.24701 17.7297L9.24822 17.7291L9.25006 17.7279H9.25068L9.25189 17.7272V17.7266L9.2531 17.726H9.25373L9.25677 17.7241L9.25799 17.7235L9.2592 17.7229H9.25982L9.26408 17.7198L9.26529 17.7192C9.31533 17.6905 9.36478 17.6606 9.41361 17.6307C9.50576 17.5727 9.53384 17.4519 9.47646 17.3591C9.43853 17.3002 9.37443 17.2666 9.30916 17.2666Z" fill="black"/>
<path d="M10.8117 15.9172C10.7788 15.8965 10.7422 15.8867 10.7055 15.8867C10.6408 15.8867 10.5774 15.9185 10.5395 15.9771C10.4431 16.1284 10.3356 16.2755 10.2203 16.4129C10.1507 16.4965 10.1617 16.621 10.2453 16.6905C10.282 16.7217 10.3271 16.7363 10.3711 16.7363C10.4278 16.7363 10.4834 16.7125 10.5224 16.6655C10.625 16.5441 10.7202 16.4165 10.8093 16.284L10.8105 16.2822H10.8111L10.813 16.2785L10.8136 16.2779L10.8148 16.2761L10.816 16.2748L10.8172 16.2724H10.8179L10.8185 16.2712L10.8191 16.27L10.8197 16.2687H10.8203L10.8215 16.2669V16.2663L10.8227 16.2651V16.2645L10.8239 16.2632V16.2626L10.8251 16.2614V16.2608L10.8263 16.2596V16.2589L10.8275 16.2577V16.2565L10.8288 16.2553L10.8294 16.2547L10.83 16.2541V16.2529L10.8312 16.2522L10.8337 16.248L10.8343 16.2468H10.8349L10.8374 16.2425V16.2419L10.8386 16.2407L10.8423 16.2352V16.2345L10.8716 16.1894C10.9302 16.0979 10.9033 15.9758 10.8117 15.9172Z" fill="black"/>
<path d="M11.3165 13.0239L11.3549 13.0202C11.4617 12.9989 11.5307 12.8957 11.51 12.7883L11.5051 12.7645V12.7639V12.7627H11.5045L11.5038 12.7578V12.7571L11.5032 12.7559V12.7553L11.5026 12.7504L11.502 12.7498L11.5013 12.7486V12.748V12.7468V12.7461L11.5007 12.7431L11.5001 12.7419V12.7413V12.74L11.4995 12.7388V12.7382L11.4988 12.7364V12.7352V12.7346V12.7334L11.4982 12.7322L11.4976 12.731V12.7298V12.7286L11.497 12.7273V12.7261L11.4963 12.7249V12.7243V12.7231V12.7225L11.4951 12.7206V12.72V12.7182V12.7175V12.7163L11.4945 12.7151L11.4939 12.7133V12.7114V12.7108L11.4933 12.709L11.4926 12.7084V12.7065L11.492 12.7041L11.4914 12.7022V12.7016V12.6998L11.4904 12.6955V12.6949L11.4898 12.6931V12.6925L11.488 12.6857V12.6839L11.4868 12.679L11.4861 12.6772L11.4843 12.6705V12.6699L11.4831 12.6613H11.4825C11.4599 12.56 11.4331 12.4599 11.4038 12.3623L11.4013 12.3531L11.397 12.3403V12.3397L11.3946 12.3318H11.394L11.3927 12.325V12.3245L11.3915 12.3226L11.3897 12.3159L11.3879 12.3098V12.3092L11.3866 12.3073L11.3854 12.3031V12.3025L11.3848 12.3006L11.3842 12.3L11.3836 12.2963H11.3829V12.2939L11.3817 12.292V12.2914V12.2896L11.3805 12.2877V12.2871L11.3799 12.2853V12.2846L11.3793 12.2828L11.3781 12.281V12.2804V12.2791V12.2779L11.3768 12.2767V12.2761L11.3762 12.2743L11.3756 12.2724V12.2718V12.27L11.3744 12.2693V12.2681V12.2675L11.3733 12.2659V12.2652V12.2634L11.3726 12.2628L11.372 12.2616V12.2609V12.2591L11.3708 12.2585V12.2573V12.2561L11.3702 12.2548L11.3695 12.2542V12.2536L11.3689 12.2518L11.3683 12.2505V12.2499V12.2487L11.3677 12.2475L11.3672 12.247V12.2457V12.2445L11.3659 12.2427V12.2421V12.2409L11.3653 12.2402L11.3647 12.239V12.2384L11.3641 12.2366L11.3634 12.2354V12.2341V12.2335L11.3628 12.2329L11.3622 12.2317L11.361 12.2274V12.2268L11.3604 12.2256H11.3597V12.2244V12.2232L11.3585 12.2207V12.2201V12.2189L11.3573 12.2177C11.3299 12.1353 11.2536 12.084 11.1711 12.084C11.1504 12.084 11.129 12.0864 11.1083 12.0938C11.0051 12.1286 10.9496 12.2402 10.9844 12.3434C11.0411 12.5137 11.0888 12.6895 11.1229 12.8652C11.1425 12.9592 11.2243 13.0239 11.3165 13.0239Z" fill="black"/>
<path d="M7.45357 17.9092L7.43158 17.9104C7.27775 17.9275 7.12092 17.936 6.96525 17.936C6.94084 17.936 6.9158 17.9354 6.89139 17.9354H6.88834C6.78092 17.9354 6.69303 18.0209 6.69119 18.1283C6.68936 18.2375 6.77541 18.3266 6.88408 18.3291C6.90482 18.3297 6.92498 18.3297 6.94572 18.3297H6.94635H6.94818H6.95185H6.95307H6.95428H6.95549H6.9567H6.95791H6.95975H6.96037H6.96221H6.96283H6.96529H6.96713H6.96775H6.96896H6.96959H6.9708H6.97143H6.97264H6.97385H6.97506H6.97568H6.97689H6.97752H6.97873H6.97994H6.98057H6.98119H6.9824H6.98361H6.98482H6.98545H6.98666H6.98728H6.9885H6.98971H6.99338H6.99521H6.99584H6.99705H6.99826H6.99947H7.00068H7.00189H7.00311H7.00432H7.00494H7.00557H7.00678H7.00799H7.0092H7.01041H7.01162H7.01283H7.01346H7.01529H7.01955H7.02018H7.02139H7.02201H7.02322H7.02385H7.02506H7.02627H7.02748H7.02869H7.0299H7.03119H7.03182H7.03365L7.03486 18.3291H7.03607H7.03728H7.03791H7.03975H7.04584H7.04767H7.04951H7.05014H7.05135H7.05197H7.05318H7.05439H7.0556L7.05744 18.3285H7.05807H7.05928H7.0599H7.06174H7.06295H7.06416H7.06537H7.066H7.07392H7.07576H7.0776H7.08006H7.08127H7.08248H7.08369H7.08615H7.08736H7.08982L7.10568 18.3273H7.10814H7.10998C7.23268 18.3236 7.35475 18.315 7.47498 18.3022C7.58303 18.29 7.66115 18.193 7.64892 18.0843C7.63787 17.9843 7.55244 17.9092 7.45357 17.9092Z" fill="black"/>
<path d="M11.3928 14.0393L11.3696 14.0381C11.2708 14.0381 11.1859 14.1113 11.1743 14.2114C11.1523 14.3897 11.1194 14.5685 11.0755 14.7425C11.048 14.848 11.1121 14.9549 11.2171 14.9817L11.2659 14.9878C11.3538 14.9878 11.4337 14.9286 11.4563 14.8401C11.4667 14.7998 11.4758 14.7602 11.4856 14.7205V14.7198V14.718L11.4868 14.7131V14.7113L11.4874 14.7107L11.4881 14.7095V14.7088V14.7064L11.4887 14.7057L11.4893 14.7045V14.7033V14.7027V14.7015V14.7003L11.4899 14.6991L11.4906 14.6979V14.6966V14.696V14.6948L11.4912 14.6936L11.4918 14.6924V14.6918V14.6899V14.6893L11.493 14.6875V14.6868V14.6856V14.685L11.4942 14.6807V14.6801V14.6783L11.4955 14.6764L11.4961 14.6716L11.4967 14.6697V14.6691L11.4979 14.663C11.526 14.53 11.5486 14.3951 11.5651 14.2584C11.5784 14.1504 11.5015 14.0527 11.3928 14.0393Z" fill="black"/>
<path d="M8.43257 9.71715C8.60105 9.77941 8.76706 9.85266 8.92694 9.93625C8.95562 9.9509 8.98675 9.95824 9.0173 9.95824C9.08812 9.95824 9.15706 9.92039 9.19245 9.85266C9.24312 9.75684 9.20526 9.63719 9.10882 9.58715C8.98917 9.52488 8.8671 9.4675 8.7414 9.41504L8.7353 9.41258L8.73347 9.41137H8.73284L8.72917 9.41016L8.72671 9.40895L8.72245 9.40711L8.72062 9.40648L8.71452 9.40402H8.7139L8.7078 9.40098H8.70718L8.70534 9.40035L8.70108 9.39852L8.69862 9.39789L8.69495 9.39606V9.39543L8.69249 9.39481L8.68823 9.39297H8.68761L8.6864 9.39234V9.39172L8.67968 9.38988L8.67296 9.38684C8.63878 9.3734 8.60398 9.35996 8.56921 9.34777C8.54663 9.33922 8.52405 9.33496 8.50085 9.33496C8.42089 9.33496 8.34581 9.38441 8.31651 9.46375C8.27878 9.56637 8.33065 9.6793 8.43257 9.71715Z" fill="black"/>
<path d="M10.5151 11.2307C10.5567 11.2307 10.5975 11.2179 10.6335 11.191C10.7202 11.1263 10.7373 11.0024 10.6726 10.9151C10.6061 10.8272 10.5371 10.7417 10.4651 10.6587H10.4644L10.4614 10.655L10.4602 10.6538V10.6532L10.4571 10.6502L10.4565 10.6495L10.4553 10.6483L10.4541 10.6465L10.4529 10.6446V10.6441L10.4517 10.6429H10.451L10.4492 10.6417L10.448 10.6398V10.6392L10.4468 10.638V10.6374L10.4456 10.6362L10.4444 10.6355L10.4437 10.6343H10.4431L10.4419 10.6331V10.6325L10.4407 10.6313V10.6307L10.4395 10.6295L10.4383 10.6288L10.4376 10.6276L10.437 10.627L10.4364 10.6264L10.4358 10.6257L10.4346 10.6239L10.4333 10.6233V10.6221L10.4321 10.6214V10.6208L10.4309 10.6202L10.4297 10.6191L10.4291 10.6184L10.4284 10.6172L10.4278 10.6166L10.4272 10.616L10.4247 10.6129L10.4235 10.6123L10.4229 10.6111H10.4223L10.4198 10.6074L10.4192 10.6068L10.4185 10.6062H10.4179L10.4149 10.6025V10.6019L10.4137 10.6007V10.6L10.41 10.597L10.4088 10.5958V10.5952L10.4051 10.5921V10.5915L10.4039 10.5903L10.3998 10.5855H10.3991L10.3955 10.5806L10.3948 10.58L10.3857 10.5702V10.5696C10.3539 10.5354 10.321 10.5006 10.288 10.4664C10.2496 10.4268 10.1983 10.4072 10.1471 10.4072C10.0976 10.4072 10.0482 10.4255 10.0097 10.4628C9.93159 10.5385 9.93038 10.663 10.006 10.7411C10.1306 10.8699 10.249 11.0084 10.3576 11.1519C10.3955 11.2032 10.4553 11.2307 10.5151 11.2307Z" fill="black"/>
<path d="M9.01299 5.08691C8.92389 5.08691 8.84272 5.14797 8.82135 5.23891C8.77678 5.42871 8.74385 5.62344 8.72307 5.8218C8.71209 5.92984 8.7908 6.02688 8.89885 6.03785L8.91959 6.03848C9.01908 6.03848 9.10514 5.9634 9.1149 5.86207C9.13322 5.68262 9.16373 5.50379 9.20526 5.32922C9.22967 5.22301 9.16436 5.11742 9.05877 5.09238L9.01299 5.08691Z" fill="black"/>
<path d="M9.72409 3.39567C9.69233 3.43594 9.66061 3.47625 9.6301 3.51711L9.62643 3.52137L9.62522 3.52258L9.62155 3.52809L9.61729 3.5336L9.61303 3.53969L9.60932 3.54457V3.5452L9.60077 3.55617C9.54827 3.62637 9.49823 3.6984 9.45061 3.77223L9.44694 3.77774V3.77836L9.44573 3.77957L9.44389 3.78203V3.78266L9.44327 3.78387L9.44206 3.78508V3.7857L9.43959 3.78817V3.78938L9.43897 3.79L9.43835 3.79121H9.43772L9.43651 3.79367L9.43588 3.7943V3.79492L9.43467 3.79613V3.79676L9.43346 3.79797V3.7986L9.43225 3.80043V3.80106L9.43104 3.80168V3.80231L9.42983 3.80352V3.80473L9.42862 3.80594V3.80656L9.42741 3.8084L9.4262 3.80961V3.81024L9.42499 3.81207L9.42377 3.81391V3.81453L9.42256 3.81574V3.81637L9.4201 3.82004C9.40729 3.83957 9.39448 3.8591 9.38288 3.87926C9.32612 3.97141 9.35479 4.09289 9.44756 4.14965C9.47991 4.16981 9.5153 4.17895 9.55073 4.17895C9.61667 4.17895 9.68135 4.14598 9.71858 4.08496C9.81256 3.93238 9.91756 3.78406 10.0305 3.64367C10.0988 3.55945 10.0854 3.43492 10.0012 3.36656C9.96452 3.33727 9.92057 3.32324 9.87725 3.32324C9.81991 3.32301 9.76315 3.34805 9.72409 3.39567Z" fill="black"/>
<path d="M14.9988 10.4218C15.0324 10.4938 15.1038 10.5366 15.1783 10.5366C15.2064 10.5366 15.2338 10.5311 15.2601 10.5189C15.3693 10.4688 15.4761 10.4151 15.5799 10.3571L15.5824 10.3559L15.5861 10.3534L15.5885 10.3528L15.5922 10.3504L15.594 10.3491H15.5947L15.5959 10.3479L15.5983 10.3467L15.5995 10.3461L15.6008 10.3455L15.602 10.3448L15.6026 10.3442L15.6044 10.3436V10.343L15.6056 10.3423L15.6068 10.3417L15.6081 10.3411V10.3405L15.6105 10.3398V10.3392L15.6117 10.3386H15.6129L15.6136 10.338L15.6142 10.3373L15.6154 10.3367L15.6172 10.3355H15.6179L15.6191 10.3349H15.6197L15.6209 10.3337H15.6215L15.624 10.3318L15.6252 10.3312L15.627 10.3306L15.6313 10.3275L15.6331 10.3269C15.6826 10.2982 15.7326 10.2683 15.7815 10.2384C15.873 10.1804 15.9011 10.0596 15.8437 9.9668C15.8059 9.90758 15.7424 9.87402 15.6765 9.87402C15.6411 9.87402 15.6045 9.88379 15.5721 9.90453C15.4195 9.99914 15.2596 10.0852 15.0967 10.1603C14.9976 10.2057 14.9537 10.3229 14.9988 10.4218Z" fill="black"/>
<path d="M16.5882 9.0193C16.518 9.10293 16.5296 9.22742 16.6126 9.29699C16.6492 9.32813 16.6944 9.34277 16.7389 9.34277C16.7957 9.34277 16.8512 9.31898 16.8896 9.27195C16.9922 9.15051 17.0874 9.02293 17.1765 8.89047H17.1771L17.1783 8.88863L17.1808 8.88496L17.1814 8.88434L17.1821 8.88313H17.1827L17.1839 8.88129L17.1851 8.87883L17.1857 8.87762L17.1864 8.87641L17.1876 8.87578V8.87516L17.1888 8.87332V8.8727L17.19 8.87148V8.87086L17.1912 8.86965V8.86902L17.1924 8.86781V8.86719L17.1936 8.86598V8.86535L17.1948 8.86414V8.86293L17.196 8.86172L17.1967 8.86109L17.1973 8.86047L17.1979 8.85926L17.1985 8.85863L17.201 8.85438L17.2022 8.85316L17.2047 8.84891V8.84828L17.2059 8.84766V8.84719L17.2096 8.84168V8.84105L17.2395 8.7959C17.2974 8.70434 17.2712 8.58227 17.179 8.52367C17.1467 8.50293 17.1095 8.49316 17.0735 8.49316C17.0081 8.49316 16.9447 8.52492 16.9068 8.58352C16.8103 8.73488 16.7029 8.88199 16.5882 9.0193Z" fill="black"/>
<path d="M17.7258 4.82629L17.7252 4.82508C17.6977 4.7427 17.6208 4.69141 17.5385 4.69141C17.5177 4.69141 17.4963 4.69387 17.4756 4.70117C17.3724 4.73598 17.3169 4.84766 17.3517 4.95082C17.4091 5.12109 17.4561 5.29687 17.4909 5.47266C17.5098 5.56664 17.5916 5.63137 17.6838 5.63137L17.7222 5.6277C17.829 5.60633 17.898 5.50316 17.8772 5.39574L17.8724 5.37195V5.37133V5.37012L17.8711 5.36523V5.36461V5.3634V5.36277L17.8699 5.35789V5.35727L17.8693 5.35664L17.8687 5.35543V5.35422V5.35359L17.8681 5.35055L17.8674 5.34934V5.34871V5.3475V5.34629V5.34566L17.8668 5.34383L17.8662 5.34262V5.34199V5.34078V5.33957L17.865 5.33836V5.33715V5.33594V5.33473L17.8643 5.33352V5.33227L17.8637 5.33164V5.33043V5.3298L17.8631 5.32797V5.32734L17.8625 5.32551V5.32488V5.32367V5.32246L17.8613 5.32125V5.32062V5.31879V5.31816L17.8606 5.31633V5.3157L17.86 5.31387V5.31141L17.8588 5.30957V5.30895V5.30711L17.8576 5.30285V5.30223V5.30039L17.857 5.29977L17.8558 5.29367L17.8551 5.29305V5.29121L17.8539 5.28633V5.28449L17.8521 5.27777V5.27715L17.8502 5.26859C17.827 5.16727 17.8008 5.06719 17.7709 4.96953L17.7685 4.96039L17.7648 4.94758V4.94695L17.7617 4.93902L17.7599 4.9323V4.93168L17.7587 4.92984L17.7575 4.92312L17.755 4.91703V4.91641L17.7544 4.91457H17.7539L17.7527 4.91031V4.90969V4.90785L17.7521 4.90723L17.7509 4.90355L17.7502 4.90109L17.7496 4.89926L17.749 4.89863V4.8968L17.7478 4.89496V4.89434V4.8925L17.7472 4.89187L17.7465 4.89066V4.89004L17.7459 4.8882V4.88758L17.7453 4.88637V4.88516L17.7447 4.88395L17.744 4.88332V4.88148L17.7428 4.87965V4.87902V4.87719L17.7422 4.87656L17.7416 4.87535V4.87473L17.741 4.87289V4.87227L17.7403 4.87043V4.8698L17.7397 4.86859L17.7391 4.86797V4.86613L17.7385 4.86551L17.7378 4.8643V4.86352V4.8623L17.7372 4.86168L17.7366 4.86105V4.85922L17.736 4.85801L17.7353 4.85738V4.85617V4.85496L17.7347 4.85434L17.7344 4.85312V4.85191L17.7338 4.85008L17.7331 4.84945V4.84824V4.84762L17.7319 4.84641V4.84578V4.84398L17.7307 4.84277V4.84156V4.84094L17.7301 4.84031V4.8391L17.7283 4.83484V4.83422V4.83301H17.7276L17.727 4.8318V4.83059L17.7258 4.82812V4.8275V4.82629H17.7258Z" fill="black"/>
<path d="M13.2519 10.9366C13.2726 10.9372 13.2928 10.9372 13.3135 10.9372H13.3142H13.3154H13.316H13.319H13.3203H13.3215H13.3227H13.3239H13.3251H13.3269H13.3276H13.33H13.3325H13.3343H13.3349H13.3362H13.3374H13.3386H13.3404H13.341H13.3423H13.3435H13.3441H13.3447H13.3459H13.3471H13.3483H13.349H13.3496H13.3508H13.352H13.3532H13.3544H13.3557H13.3569H13.3605H13.3612H13.363H13.3642H13.3654H13.3666H13.3673H13.3685H13.3691H13.3703H13.3715H13.3727H13.3733H13.374H13.3752H13.3764H13.377H13.3782H13.3789H13.3801H13.3813H13.3825H13.3867H13.3874H13.3886H13.3898H13.391H13.3922H13.3934H13.3946H13.3953H13.3965H13.3971H13.3984H13.3996H13.4008H13.4014L13.4021 10.9366H13.4033H13.4045H13.4051H13.4069H13.413H13.4149H13.4155H13.4167H13.4179H13.4191H13.421H13.4216H13.4228L13.4253 10.9359H13.4265H13.4277H13.4289H13.4295H13.4307H13.4314H13.4326H13.4332H13.4411H13.443H13.4436H13.4448H13.4454H13.4473H13.4491H13.4497H13.4509H13.4534H13.4546H13.4552H13.4571L13.4729 10.9347H13.4754H13.4778C13.5999 10.9311 13.722 10.9225 13.8428 10.9097C13.9503 10.8975 14.0284 10.8004 14.0168 10.6924C14.0058 10.5917 13.9203 10.5166 13.8208 10.5166L13.7995 10.5178C13.6457 10.5349 13.4888 10.5434 13.3326 10.5434C13.3082 10.5434 13.2837 10.5428 13.2593 10.5428H13.2557C13.1482 10.5428 13.0603 10.6289 13.0585 10.7357C13.0566 10.845 13.1433 10.9341 13.2519 10.9366Z" fill="black"/>
<path d="M17.7369 6.64551C17.6386 6.64551 17.5537 6.71875 17.5416 6.81887C17.5196 6.99711 17.4866 7.17594 17.4427 7.34988C17.4158 7.45547 17.4793 7.5623 17.5849 7.58914L17.6331 7.59523C17.721 7.59523 17.8016 7.53602 17.8242 7.44754C17.8346 7.40727 17.8437 7.36758 17.8528 7.32789V7.32727V7.32543L17.8541 7.32055L17.8547 7.31871L17.8553 7.31809V7.31687V7.31625L17.8559 7.31379L17.8566 7.31316V7.31195V7.31074V7.31012V7.30891L17.8572 7.3077L17.8578 7.30648V7.30527V7.30406V7.30344L17.8584 7.30223L17.8591 7.30102V7.2998L17.8597 7.29734V7.29672L17.8603 7.29488V7.29426V7.29305V7.29242L17.8615 7.28816V7.2857H17.8621L17.8628 7.28387L17.864 7.27898V7.27715V7.27652L17.8652 7.27043C17.8933 7.13738 17.9165 7.0025 17.9323 6.86578C17.9458 6.75773 17.8689 6.66008 17.7608 6.64668L17.7369 6.64551Z" fill="black"/>
<path d="M16.7529 3.17766V3.17703C16.7211 3.14285 16.6882 3.10805 16.6552 3.07387C16.6168 3.03418 16.5661 3.01465 16.5142 3.01465C16.4648 3.01465 16.4154 3.03297 16.3769 3.0702C16.2988 3.1459 16.2976 3.27102 16.3732 3.34852C16.4983 3.4773 16.6167 3.61586 16.7248 3.7593C16.7632 3.81059 16.8225 3.83805 16.8823 3.83805C16.9238 3.83805 16.9653 3.82523 17.0007 3.79836C17.0873 3.73367 17.105 3.61035 17.0397 3.52246C16.9738 3.43457 16.9042 3.3491 16.8322 3.26609L16.8291 3.26242H16.8285L16.8273 3.26121V3.26059L16.8248 3.25754L16.8242 3.25691L16.823 3.2557H16.8224L16.8212 3.25387L16.82 3.25203V3.25152L16.8187 3.25031H16.8181L16.8169 3.2491H16.8164L16.8151 3.24727V3.24664L16.8139 3.24543V3.2448L16.8127 3.24359H16.8121L16.8108 3.24176H16.8102L16.809 3.24055V3.23992L16.8078 3.23871V3.23809L16.8066 3.23688L16.8054 3.23625V3.23563L16.8042 3.23441L16.8035 3.23379L16.8029 3.23316L16.8017 3.23133L16.8011 3.2307L16.8005 3.22949L16.7998 3.22887L16.7992 3.22824L16.798 3.22762L16.7968 3.22648V3.22586L16.7956 3.22523V3.22402L16.7944 3.2234L16.7919 3.22035L16.7913 3.21973L16.7907 3.21852H16.7895L16.787 3.21484V3.21422L16.7858 3.21359L16.7821 3.20992V3.2093L16.7809 3.20809L16.7773 3.20441L16.776 3.2032V3.2027L16.7724 3.19965V3.19902L16.7717 3.19781H16.7711L16.7675 3.19293H16.7668L16.7626 3.18805V3.18742L16.7529 3.17766Z" fill="black"/>
<path d="M2.47559 4.82973C2.99195 4.06617 3.6377 3.39906 4.37746 2.85281L4.83645 3.82754L7.45547 1.08461L3.46312 0.908203L3.9502 1.94336C3.05297 2.57691 2.27539 3.36793 1.66016 4.27855C0.686055 5.71898 0.117188 7.45852 0.117188 9.32738H1.1023C1.1023 7.6593 1.60891 6.11449 2.47559 4.82973Z" fill="black"/>
<path d="M18.8977 11.165C18.8977 12.7831 18.4216 14.2852 17.6013 15.5468C17.0715 16.361 16.3953 17.0714 15.614 17.6464L15.246 16.8639L12.627 19.6068L16.6199 19.7832L16.04 18.5503C16.983 17.8869 17.7966 17.0519 18.4265 16.0839C19.347 14.6691 19.8829 12.9772 19.8829 11.165H18.8977Z" fill="black"/>
<path d="M7.03123 6.4093C7.36631 6.41234 7.69529 6.43797 8.01877 6.48438C8.01631 6.42457 8.01389 6.36473 8.01389 6.30371C8.01389 3.37098 10.3997 0.985117 13.3325 0.985117C16.2652 0.985117 18.6511 3.37098 18.6511 6.30371C18.6511 9.03078 16.5881 11.283 13.9416 11.5863C14.0362 11.9 14.1113 12.2217 14.1631 12.5513C17.2521 12.1441 19.6362 9.50316 19.6362 6.30367C19.6362 2.82227 16.814 0 13.3325 0C9.85107 0 7.02881 2.82227 7.02881 6.30371C7.02881 6.3391 7.03123 6.37391 7.03123 6.4093Z" fill="black"/>
<path d="M13.6871 4.18945H12.417C12.2143 4.18945 12.0496 4.35363 12.0496 4.55629V8.30078C12.0496 8.50344 12.2144 8.66762 12.417 8.66762H12.6013C12.804 8.66762 12.9687 8.50344 12.9687 8.30078V7.24672H13.6871C14.6491 7.24672 15.4321 6.56066 15.4321 5.71777C15.4321 4.87551 14.6491 4.18945 13.6871 4.18945ZM13.6871 6.44164H12.9687V4.99387H13.6871C14.1431 4.99387 14.513 5.31859 14.513 5.71773C14.5129 6.11754 14.1431 6.44164 13.6871 6.44164Z" fill="black"/>
</g>
<defs>
<clipPath id="clip0_1405_921">
<rect width="20" height="20" fill="white"/>
</clipPath>
</defs>
</svg>
