<svg width="20" height="20" viewBox="0 0 20 20" fill="none" xmlns="http://www.w3.org/2000/svg">
<path d="M18.3336 10.0842C18.3334 11.7325 17.8445 13.3436 16.9286 14.7139C16.0128 16.0842 14.7112 17.1522 13.1884 17.7828C11.6656 18.4134 9.98999 18.5783 8.37348 18.2566C6.75697 17.9349 5.27215 17.1412 4.10677 15.9756C2.94139 14.8101 2.14779 13.3252 1.82632 11.7086C1.50484 10.0921 1.66994 8.41651 2.30073 6.89379C2.93152 5.37107 3.99967 4.06959 5.37011 3.15392C6.74055 2.23825 8.35175 1.74951 9.99995 1.74951C12.21 1.74951 14.3295 2.62738 15.8924 4.19002C17.4552 5.75266 18.3334 7.8721 18.3336 10.0821V10.0842ZM15.2494 10.839L10.5063 6.09793C10.1137 5.74542 9.61121 5.53972 9.08416 5.51583L6.31047 5.5432C6.08822 5.54698 5.8761 5.63688 5.71882 5.79396C5.56154 5.95105 5.47137 6.16305 5.46732 6.3853L5.43468 9.16846C5.45721 9.69554 5.66181 10.1985 6.01363 10.5916L10.7557 15.3327C10.9124 15.4885 11.1243 15.576 11.3452 15.576C11.5661 15.576 11.7781 15.4885 11.9347 15.3327L15.2484 12.0169C15.4039 11.8603 15.4911 11.6486 15.4911 11.4279C15.4911 11.2073 15.4039 10.9956 15.2484 10.839H15.2494ZM7.07784 6.57899C6.9625 6.57899 6.84976 6.61319 6.75386 6.67727C6.65796 6.74134 6.58321 6.83242 6.53907 6.93898C6.49494 7.04554 6.48339 7.16279 6.50589 7.27591C6.52839 7.38903 6.58393 7.49294 6.66549 7.5745C6.74704 7.65605 6.85095 7.7116 6.96407 7.7341C7.0772 7.7566 7.19445 7.74505 7.30101 7.70091C7.40757 7.65677 7.49864 7.58203 7.56272 7.48613C7.6268 7.39023 7.661 7.27748 7.661 7.16214C7.661 7.00748 7.59956 6.85915 7.4902 6.74979C7.38083 6.64043 7.23251 6.57899 7.07784 6.57899ZM12.6631 12.7442C12.5849 12.8224 12.4789 12.8663 12.3684 12.8663C12.2578 12.8663 12.1518 12.8224 12.0736 12.7442L11.8147 12.4853C11.7059 12.557 11.5903 12.6177 11.4694 12.6664C11.3145 12.7313 11.1479 12.7639 10.9799 12.7621C10.9442 12.7621 10.9084 12.7621 10.8715 12.759C10.7613 12.751 10.6587 12.6996 10.5863 12.616C10.514 12.5324 10.4778 12.4235 10.4857 12.3132C10.4937 12.2029 10.5451 12.1003 10.6287 12.028C10.7123 11.9556 10.8213 11.9195 10.9315 11.9274C11.0025 11.9354 11.0742 11.9263 11.141 11.9011C11.2139 11.8723 11.2837 11.8363 11.3494 11.7937C11.4163 11.7483 11.4799 11.6984 11.5399 11.6442C11.6771 11.5081 11.7743 11.337 11.821 11.1495C11.8652 10.94 11.7947 10.8695 11.761 10.8358C11.7082 10.7843 11.6388 10.7533 11.5652 10.7485C11.4868 10.7435 11.4081 10.7521 11.3326 10.7737C11.2562 10.7982 11.1833 10.8325 11.1157 10.8758C11.0533 10.9166 10.9955 10.9639 10.9431 11.0169C10.8563 11.1046 10.7623 11.1849 10.6621 11.2569C10.526 11.3542 10.3763 11.4309 10.2178 11.4842C10.0329 11.5458 9.837 11.5674 9.64311 11.5474C9.37789 11.5226 9.12925 11.4074 8.9389 11.2211C8.79847 11.0752 8.69804 10.8956 8.64733 10.6996C8.59662 10.5036 8.59734 10.2978 8.64942 10.1021C8.69544 9.90718 8.77409 9.72141 8.88205 9.55267L8.62942 9.30004C8.58791 9.26206 8.55452 9.21606 8.53126 9.16483C8.508 9.1136 8.49536 9.05819 8.49408 9.00194C8.49281 8.94569 8.50294 8.88976 8.52386 8.83753C8.54478 8.7853 8.57606 8.73784 8.61581 8.69802C8.65555 8.6582 8.70295 8.62684 8.75515 8.60583C8.80734 8.58482 8.86325 8.57459 8.9195 8.57576C8.97575 8.57693 9.03119 8.58948 9.08246 8.61265C9.13373 8.63582 9.17979 8.66912 9.21784 8.71056L9.47995 8.97162C9.59422 8.90128 9.71516 8.8424 9.841 8.79583C10.0042 8.73402 10.1771 8.70193 10.3515 8.70109C10.4621 8.70095 10.5682 8.74473 10.6464 8.82281C10.7247 8.90088 10.7688 9.00685 10.7689 9.11741C10.769 9.22796 10.7253 9.33404 10.6472 9.41231C10.5691 9.49058 10.4631 9.53464 10.3526 9.53478C10.2784 9.53552 10.205 9.54942 10.1357 9.57583C10.0594 9.60343 9.98603 9.63869 9.91679 9.68109L9.89574 9.69372C9.84087 9.72663 9.78877 9.76395 9.73995 9.8053C9.60632 9.93819 9.51041 10.1042 9.46205 10.2864C9.44183 10.3447 9.43731 10.4073 9.44896 10.4679C9.4606 10.5285 9.48799 10.585 9.52837 10.6316C9.58389 10.6813 9.6541 10.7116 9.72837 10.7179C9.80467 10.7256 9.88172 10.7173 9.95468 10.6937C10.0338 10.6662 10.1086 10.6276 10.1768 10.579C10.2399 10.5335 10.299 10.4828 10.3536 10.4274C10.4482 10.3324 10.5527 10.2477 10.6652 10.1748C10.796 10.091 10.9372 10.0248 11.0852 9.97793C11.2591 9.92591 11.4409 9.90523 11.6221 9.91688C11.8968 9.93536 12.1556 10.0528 12.3505 10.2474C12.488 10.3861 12.5867 10.5584 12.6366 10.7473C12.6864 10.9361 12.6858 11.1347 12.6347 11.3232C12.5898 11.5248 12.5104 11.7171 12.3999 11.8916L12.6631 12.1558C12.7019 12.1945 12.7327 12.2404 12.7538 12.291C12.7748 12.3416 12.7856 12.3958 12.7856 12.4506C12.7856 12.5053 12.7748 12.5596 12.7538 12.6102C12.7327 12.6607 12.7019 12.7056 12.6631 12.7442Z" fill="black"/>
</svg>
