<svg width="27" height="27" viewBox="0 0 27 27" fill="none" xmlns="http://www.w3.org/2000/svg">
<path d="M7.875 19.125H5.625C4.38236 19.125 3.375 18.1177 3.375 16.875V12.375C3.375 10.511 4.88604 9 6.75 9H7.875M7.875 19.125V15.75H19.125V19.125M7.875 19.125V20.25C7.875 21.4927 8.88236 22.5 10.125 22.5H16.875C18.1177 22.5 19.125 21.4927 19.125 20.25V19.125M7.875 9V6.75C7.875 5.50736 8.88236 4.5 10.125 4.5H16.875C18.1177 4.5 19.125 5.50736 19.125 6.75V9M7.875 9H19.125M19.125 19.125H21.375C22.6177 19.125 23.625 18.1177 23.625 16.875V12.375C23.625 10.511 22.114 9 20.25 9H19.125M16.875 12.375H19.125" stroke="black" stroke-linecap="round" stroke-linejoin="round"/>
</svg>
