<svg width="20" height="20" viewBox="0 0 20 20" fill="none" xmlns="http://www.w3.org/2000/svg">
<path d="M3.31746 7.6502C3.38965 7.6502 3.46304 7.63676 3.53418 7.60844L12.8952 3.87848L12.4673 4.87364C12.3394 5.1709 12.4768 5.51555 12.7741 5.6434C12.8495 5.67582 12.928 5.69122 13.0053 5.69122C13.2323 5.69122 13.4485 5.5584 13.5439 5.33657L14.5306 3.04207C14.5313 3.04028 14.5318 3.03848 14.5325 3.03672C14.5393 3.02071 14.5454 3.0045 14.5507 2.98793C14.5535 2.97911 14.5555 2.97016 14.5578 2.96129C14.5604 2.95172 14.5633 2.94227 14.5653 2.93258C14.5675 2.92243 14.5688 2.91223 14.5705 2.90207C14.5718 2.8934 14.5735 2.88477 14.5745 2.87598C14.5757 2.8659 14.576 2.85586 14.5766 2.84579C14.5772 2.83668 14.578 2.8277 14.5781 2.8186C14.5782 2.80899 14.5777 2.79954 14.5773 2.79C14.577 2.78039 14.5769 2.77079 14.5761 2.76114C14.5753 2.7518 14.5737 2.74258 14.5725 2.73336C14.5712 2.72368 14.5702 2.71399 14.5684 2.7043C14.5665 2.69387 14.5637 2.6836 14.5612 2.67332C14.5593 2.66504 14.5577 2.65672 14.5553 2.64848C14.55 2.62993 14.5438 2.61172 14.5366 2.59379V2.59372C14.5294 2.57579 14.5213 2.55825 14.5125 2.54106C14.5084 2.53325 14.5037 2.52594 14.4994 2.51836C14.4943 2.50942 14.4893 2.50028 14.4837 2.49157C14.4782 2.48301 14.472 2.47504 14.4661 2.46684C14.4608 2.45957 14.4558 2.45215 14.4502 2.44508C14.4439 2.43723 14.4371 2.42989 14.4304 2.42235C14.4244 2.41555 14.4186 2.40852 14.4122 2.402C14.4055 2.39512 14.3984 2.38883 14.3913 2.38231C14.3843 2.37579 14.3775 2.36907 14.3701 2.36286C14.3629 2.35672 14.3552 2.35125 14.3477 2.34551C14.34 2.33965 14.3326 2.3336 14.3246 2.32805C14.3156 2.32188 14.3062 2.31645 14.2968 2.31079C14.2898 2.30649 14.2831 2.30192 14.2758 2.29789C14.2589 2.28852 14.2414 2.27993 14.2236 2.27227L11.9292 1.28559C11.6321 1.15778 11.2873 1.29512 11.1594 1.59239C11.0316 1.88965 11.169 2.2343 11.4662 2.36215L12.4611 2.78997L3.10039 6.51981C2.7998 6.63958 2.6532 6.9804 2.77297 7.28102C2.86441 7.51047 3.08465 7.6502 3.31746 7.6502Z" fill="black"/>
<path d="M1.17188 13.5865C1.17188 13.2027 1.48414 12.8904 1.86797 12.8904C2.2518 12.8904 2.56406 13.2027 2.56406 13.5865V17.5908H1.17188V13.5865ZM6.59336 11.1213C6.59336 10.935 6.66563 10.7602 6.79746 10.6286C6.92844 10.4974 7.10316 10.4252 7.28945 10.4252C7.47551 10.4252 7.65008 10.4974 7.78172 10.6293C7.91316 10.7605 7.98555 10.9352 7.98555 11.1213V17.5908H6.59336V11.1213ZM12.0145 9.05566C12.0145 8.67184 12.3267 8.35953 12.7105 8.35953C13.0944 8.35953 13.4066 8.67184 13.4066 9.05566V17.5908H12.0145V9.05566ZM17.4359 6.1775C17.4359 5.79367 17.7482 5.48145 18.132 5.48145C18.5159 5.48145 18.8281 5.79367 18.8281 6.1775V17.5908H17.4359V6.1775ZM18.132 4.30957C17.102 4.30957 16.2641 5.14754 16.2641 6.1775V17.5908H14.5785V9.05566C14.5785 8.02566 13.7405 7.18766 12.7105 7.18766C11.6805 7.18766 10.8426 8.02566 10.8426 9.05566V17.5908H9.15742V11.1213C9.15742 10.6218 8.96289 10.1526 8.61035 9.80066C8.25801 9.4477 7.78891 9.25328 7.28945 9.25328C6.78977 9.25328 6.32051 9.4477 5.96883 9.79996C5.61586 10.1524 5.42148 10.6216 5.42148 11.1213V17.5908H3.73594V13.5865C3.73594 12.5565 2.89797 11.7186 1.86797 11.7186C0.837969 11.7186 0 12.5565 0 13.5865V18.1768C0 18.5004 0.262344 18.7627 0.585938 18.7627H19.4141C19.7377 18.7627 20 18.5004 20 18.1768V6.1775C20 5.14754 19.162 4.30957 18.132 4.30957Z" fill="black"/>
</svg>
