<svg width="19" height="16" viewBox="0 0 19 16" fill="none" xmlns="http://www.w3.org/2000/svg">
<path d="M2.51044 5.9209H16.484V15.0684H2.51044V5.9209Z" fill="white"/>
<path d="M16.3374 5.77246H16.6343V6.06934H16.3374V5.77246ZM16.0461 6.06934H15.7548V5.77246H16.0461V6.06934ZM15.4635 6.06934H15.1722V5.77246H15.4635V6.06934ZM14.8827 6.06934H14.5914V5.77246H14.8827V6.06934ZM14.3001 6.06934H14.0088V5.77246H14.3001V6.06934ZM13.7175 6.06934H13.4262V5.77246H13.7175V6.06934ZM13.1367 6.06934H12.8454V5.77246H13.1367V6.06934ZM12.5541 6.06934H12.2628V5.77246H12.5541V6.06934ZM11.9715 6.06934H11.6802V5.77246H11.9715V6.06934ZM11.3907 6.06934H11.0994V5.77246H11.3907V6.06934ZM10.8081 6.06934H10.5168V5.77246H10.8081V6.06934ZM10.2255 6.06934H9.93417V5.77246H10.2255V6.06934ZM9.64286 6.06934H9.35155V5.77246H9.64286V6.06934ZM9.0621 6.06934H8.77079V5.77246H9.0621V6.06934ZM8.47948 6.06934H8.18817V5.77246H8.47948V6.06934ZM7.89686 6.06934H7.60741V5.77246H7.89872V6.06934H7.89686ZM7.3161 6.06934H7.02479V5.77246H7.3161V6.06934ZM6.73348 6.06934H6.44218V5.77246H6.73348V6.06934ZM6.15087 6.06934H5.85956V5.77246H6.15087V6.06934ZM5.57011 6.06934H5.2788V5.77246H5.57011V6.06934ZM4.98749 6.06934H4.69618V5.77246H4.98749V6.06934ZM4.40487 6.06934H4.11356V5.77246H4.40487V6.06934ZM3.82411 6.06934H3.5328V5.77246H3.82411V6.06934ZM3.24149 6.06934H2.95018V5.77246H3.24149V6.06934ZM2.362 5.77246H2.65887V6.06934H2.362V5.77246ZM2.65887 14.6138H2.362V14.3095H2.65887V14.6138ZM2.65887 14.0033H2.362V13.699H2.65887V14.0033ZM2.65887 13.3947H2.362V13.0904H2.65887V13.3947ZM2.65887 12.7843H2.362V12.48H2.65887V12.7843ZM2.65887 12.1738H2.362V11.8695H2.65887V12.1738ZM2.65887 11.5634H2.362V11.2591H2.65887V11.5634ZM2.65887 10.9529H2.362V10.6486H2.65887V10.9529ZM2.65887 10.3425H2.362V10.0382H2.65887V10.3425ZM2.65887 9.73203H2.362V9.42773H2.65887V9.73203ZM2.65887 9.12158H2.362V8.81728H2.65887V9.12158ZM2.65887 8.51113H2.362V8.20684H2.65887V8.51113ZM2.65887 7.90068H2.362V7.59639H2.65887V7.90068ZM2.65887 7.29023H2.362V6.98594H2.65887V7.29023ZM2.65887 6.67979H2.362V6.37549H2.65887V6.67979ZM2.362 14.9199H2.65887V15.2168H2.362V14.9199ZM16.0461 15.2168H15.7548V14.9199H16.0461V15.2168ZM15.4635 15.2168H15.1722V14.9199H15.4635V15.2168ZM14.8827 15.2168H14.5914V14.9199H14.8827V15.2168ZM14.3001 15.2168H14.0088V14.9199H14.3001V15.2168ZM13.7175 15.2168H13.4262V14.9199H13.7175V15.2168ZM13.1367 15.2168H12.8454V14.9199H13.1367V15.2168ZM12.5541 15.2168H12.2628V14.9199H12.5541V15.2168ZM11.9715 15.2168H11.6802V14.9199H11.9715V15.2168ZM11.3907 15.2168H11.0994V14.9199H11.3907V15.2168ZM10.8081 15.2168H10.5168V14.9199H10.8081V15.2168ZM10.2255 15.2168H9.93417V14.9199H10.2255V15.2168ZM9.64286 15.2168H9.35155V14.9199H9.64286V15.2168ZM9.0621 15.2168H8.77079V14.9199H9.0621V15.2168ZM8.47948 15.2168H8.18817V14.9199H8.47948V15.2168ZM7.89686 15.2168H7.60741V14.9199H7.89872V15.2168H7.89686ZM7.3161 15.2168H7.02479V14.9199H7.3161V15.2168ZM6.73348 15.2168H6.44218V14.9199H6.73348V15.2168ZM6.15087 15.2168H5.85956V14.9199H6.15087V15.2168ZM5.57011 15.2168H5.2788V14.9199H5.57011V15.2168ZM4.98749 15.2168H4.69618V14.9199H4.98749V15.2168ZM4.40487 15.2168H4.11356V14.9199H4.40487V15.2168ZM3.82411 15.2168H3.5328V14.9199H3.82411V15.2168ZM3.24149 15.2168H2.95018V14.9199H3.24149V15.2168ZM16.3374 14.9199H16.6343V15.2168H16.3374V14.9199ZM16.6343 14.6138H16.3374V14.3095H16.6343V14.6138ZM16.6343 14.0033H16.3374V13.699H16.6343V14.0033ZM16.6343 13.3947H16.3374V13.0904H16.6343V13.3947ZM16.6343 12.7843H16.3374V12.48H16.6343V12.7843ZM16.6343 12.1738H16.3374V11.8695H16.6343V12.1738ZM16.6343 11.5634H16.3374V11.2591H16.6343V11.5634ZM16.6343 10.9529H16.3374V10.6486H16.6343V10.9529ZM16.6343 10.3425H16.3374V10.0382H16.6343V10.3425ZM16.6343 9.73203H16.3374V9.42773H16.6343V9.73203ZM16.6343 9.12158H16.3374V8.81728H16.6343V9.12158ZM16.6343 8.51113H16.3374V8.20684H16.6343V8.51113ZM16.6343 7.90068H16.3374V7.59639H16.6343V7.90068ZM16.6343 7.29023H16.3374V6.98594H16.6343V7.29023ZM16.6343 6.67979H16.3374V6.37549H16.6343V6.67979Z" fill="#0A0408"/>
<path d="M3.5755 7.177H15.547V15.6175H3.5755V7.177Z" fill="#EBB866"/>
<path d="M1.33411 15.0405H17.6641V16.5973H1.33411V15.0405Z" fill="white"/>
<path d="M17.8107 16.7457H1.18567V14.8921H17.8125V16.7457H17.8107ZM1.48254 16.4488H17.5156V15.189H1.48254V16.4488Z" fill="#0A0408"/>
<path d="M5.83545 5.1991H7.40146V11.131H5.83545V5.1991Z" fill="#55B7A8"/>
<path d="M7.5499 11.2795H5.68701V5.05066H7.5499V11.2795ZM5.98389 10.9826H7.25303V5.34753H5.98389V10.9826Z" fill="#0A0408"/>
<path d="M8.81903 1.70337H10.385V11.131H8.81903V1.70337Z" fill="#DC444A"/>
<path d="M10.5316 11.2794H8.67059V1.55493H10.5335V11.2794H10.5316ZM8.96747 10.9826H10.2366V1.85181H8.96747V10.9826Z" fill="#0A0408"/>
<path d="M11.8008 3.48657H13.3668V11.1311H11.8008V3.48657Z" fill="#68A4D9"/>
<path d="M13.5152 11.2795H11.6523V3.33813H13.5152V11.2795ZM11.9492 10.9827H13.2184V3.63501H11.9492V10.9827Z" fill="#0A0408"/>
<path d="M5.83545 4.72778H7.40146V6.78364H5.83545V4.72778Z" fill="white"/>
<path d="M7.5499 6.93208H5.68701V4.57935H7.5499V6.93208ZM5.98389 6.6352H7.25303V4.87622H5.98389V6.6352Z" fill="#0A0408"/>
<path d="M8.81903 0.929688H10.385V2.98555H8.81903V0.929688Z" fill="white"/>
<path d="M10.5316 3.13398H8.67059V0.78125H10.5335V3.13398H10.5316ZM8.96747 2.83711H10.2366V1.07812H8.96747V2.83711Z" fill="#0A0408"/>
<path d="M11.8008 3.14331H13.3668V5.19917H11.8008V3.14331Z" fill="white"/>
<path d="M13.5152 5.34761H11.6523V2.99487H13.5152V5.34761ZM11.9492 5.05073H13.2184V3.29175H11.9492V5.05073Z" fill="#0A0408"/>
<path d="M5.83545 12.7712H5.98389V13.0681H5.83545V12.7712ZM12.9289 13.0681H12.6395V12.7712H12.9289V13.0681ZM12.35 13.0681H12.0605V12.7712H12.35V13.0681ZM11.7711 13.0681H11.4816V12.7712H11.7711V13.0681ZM11.1922 13.0681H10.9027V12.7712H11.1922V13.0681ZM10.6133 13.0681H10.3238V12.7712H10.6133V13.0681ZM10.0344 13.0681H9.74492V12.7712H10.0344V13.0681ZM9.45732 13.0681H9.16787V12.7712H9.45732V13.0681ZM8.87842 13.0681H8.58896V12.7712H8.87842V13.0681ZM8.29951 13.0681H8.01006V12.7712H8.29951V13.0681ZM7.72061 13.0681H7.43115V12.7712H7.72061V13.0681ZM7.1417 13.0681H6.85225V12.7712H7.1417V13.0681ZM6.56279 13.0681H6.27334V12.7712H6.56279V13.0681ZM13.2184 12.7712H13.3668V13.0681H13.2184V12.7712Z" fill="#0A0408"/>
<path d="M2.03918 5.44958H2.98362V6.39402H2.03918V5.44958Z" fill="#DC444A"/>
<path d="M3.13206 6.54246H1.89075V5.30115H3.13206V6.54246ZM2.18762 6.24558H2.83518V5.59802H2.18762V6.24558Z" fill="#0A0408"/>
<path d="M16.0257 5.43665H16.9701V6.38108H16.0257V5.43665Z" fill="#DC444A"/>
<path d="M17.1186 6.52769H15.8773V5.28638H17.1186V6.52769ZM16.1741 6.23081H16.8217V5.58325H16.1741V6.23081Z" fill="#0A0408"/>
</svg>
