<svg width="50" height="50" viewBox="0 0 50 50" fill="none" xmlns="http://www.w3.org/2000/svg">
<path d="M12.5 16.4062C12.5 15.975 12.85 15.625 13.2812 15.625H17.9688C18.4 15.625 18.75 15.975 18.75 16.4062C18.75 16.8375 18.4 17.1875 17.9688 17.1875H13.2812C12.85 17.1875 12.5 16.8375 12.5 16.4062ZM13.2812 20.3125H17.9688C18.4 20.3125 18.75 19.9625 18.75 19.5312C18.75 19.1 18.4 18.75 17.9688 18.75H13.2812C12.85 18.75 12.5 19.1 12.5 19.5312C12.5 19.9625 12.85 20.3125 13.2812 20.3125ZM46.875 12.5V40.625C46.875 43.2141 44.7766 45.3125 42.1875 45.3125H7.8125C5.22344 45.3125 3.125 43.2141 3.125 40.625V12.5C3.125 9.91094 5.22344 7.8125 7.8125 7.8125C7.8125 7.8125 8.5125 6.25 9.375 6.25H14.2063C14.5297 5.34219 15.3891 4.6875 16.4062 4.6875C17.4234 4.6875 18.2828 5.34219 18.6062 6.25H21.875C22.7375 6.25 23.4375 6.95 23.4375 7.8125H42.1875C44.7766 7.8125 46.875 9.91094 46.875 12.5ZM9.375 23.4375H21.875V7.8125H18.75V11.7188C18.75 13.1125 17.5266 14.2266 16.0984 14.0422C14.9172 13.8906 14.0625 12.8281 14.0625 11.6375V11.3281C14.0625 10.8969 14.4125 10.5469 14.8438 10.5469C15.275 10.5469 15.625 10.8969 15.625 11.3281V11.7188C15.625 12.1922 16.0484 12.5687 16.5375 12.4891C16.9219 12.4266 17.1875 12.0641 17.1875 11.675V7.8125H9.375V23.4375ZM45.275 41.0031C44.4484 41.7313 43.375 42.1875 42.1875 42.1875H7.8125C6.625 42.1875 5.55156 41.7313 4.725 41.0031C4.91406 42.5484 6.21563 43.75 7.8125 43.75H42.1875C43.7844 43.75 45.0859 42.5484 45.275 41.0031ZM45.3125 12.5C45.3125 10.7734 43.9141 9.375 42.1875 9.375H23.4375V23.4375C23.4375 24.3 22.7375 25 21.875 25H9.375C8.5125 25 7.8125 24.3 7.8125 23.4375V9.375C6.08594 9.375 4.6875 10.7734 4.6875 12.5V37.5C4.6875 39.2266 6.08594 40.625 7.8125 40.625H42.1875C43.9141 40.625 45.3125 39.2266 45.3125 37.5V12.5ZM41.7047 21.9344C41.6094 21.8953 41.5078 21.875 41.4062 21.875H35.1562C34.725 21.875 34.375 22.225 34.375 22.6562C34.375 23.0875 34.725 23.4375 35.1562 23.4375H39.5203L34.8328 28.125H32.3547L29.4578 25.2281C29.1531 24.9234 28.6578 24.9234 28.3531 25.2281L23.8953 29.6875H17.9688C17.7609 29.6875 17.5625 29.7703 17.4156 29.9156L12.9578 34.375H8.59375C8.1625 34.375 7.8125 34.725 7.8125 35.1562C7.8125 35.5875 8.1625 35.9375 8.59375 35.9375H13.2812C13.4891 35.9375 13.6875 35.8547 13.8344 35.7094L18.2922 31.25H24.2188C24.4266 31.25 24.625 31.1672 24.7719 31.0219L28.9062 26.8875L31.4781 29.4594C31.625 29.6047 31.8234 29.6875 32.0312 29.6875H35.1562C35.3641 29.6875 35.5625 29.6047 35.7094 29.4594L40.625 24.5422V28.9062C40.625 29.3375 40.975 29.6875 41.4062 29.6875C41.8375 29.6875 42.1875 29.3375 42.1875 28.9062V22.6562C42.1875 22.5547 42.1672 22.4531 42.1281 22.3578C42.0484 22.1672 41.8953 22.0141 41.7047 21.9344Z" fill="#00B0CD"/>
</svg>
