<svg width="21" height="20" viewBox="0 0 21 20" fill="none" xmlns="http://www.w3.org/2000/svg">
<g clip-path="url(#clip0_1405_969)">
<path d="M3.17475 17.7502C3.28523 17.7502 3.37475 17.6607 3.37475 17.5502V11.9288C3.37475 11.8184 3.28523 11.7288 3.17475 11.7288H1.57475C1.54848 11.7288 1.52247 11.734 1.4982 11.7441C1.47394 11.7541 1.45189 11.7688 1.43331 11.7874C1.41474 11.806 1.40001 11.828 1.38996 11.8523C1.37991 11.8766 1.37474 11.9026 1.37475 11.9288V17.5502C1.37475 17.6607 1.46426 17.7502 1.57475 17.7502H3.17475ZM3.17475 18.5502H1.57475C1.02244 18.5502 0.574747 18.1026 0.574747 17.5502V11.9288C0.574747 11.3765 1.02244 10.9288 1.57475 10.9288H3.17475C3.72705 10.9288 4.17475 11.3765 4.17475 11.9288V17.5502C4.17475 18.1026 3.72705 18.5502 3.17475 18.5502ZM8.61252 17.7502C8.72301 17.7502 8.81252 17.6607 8.81252 17.5502V10.768C8.81252 10.6576 8.72301 10.568 8.61252 10.568H7.01252C6.98625 10.568 6.96024 10.5732 6.93598 10.5833C6.91171 10.5933 6.88966 10.608 6.87109 10.6266C6.85251 10.6452 6.83778 10.6672 6.82773 10.6915C6.81768 10.7158 6.81251 10.7418 6.81252 10.768V17.5502C6.81252 17.6607 6.90203 17.7502 7.01252 17.7502H8.61252ZM8.61252 18.5502H7.01252C6.46022 18.5502 6.01252 18.1026 6.01252 17.5502V10.768C6.01252 10.2157 6.46022 9.76804 7.01252 9.76804H8.61252C9.16482 9.76804 9.61252 10.2157 9.61252 10.768V17.5502C9.61252 18.1026 9.16482 18.5502 8.61252 18.5502ZM14.0503 17.7623C14.1608 17.7623 14.2503 17.6728 14.2503 17.5623V9.61912C14.2503 9.50875 14.1607 9.41912 14.0503 9.41912H12.4503C12.3399 9.41912 12.2503 9.50875 12.2503 9.61912V17.5623C12.2503 17.6728 12.3398 17.7623 12.4503 17.7623H14.0503ZM14.0503 18.5623H12.4503C11.898 18.5623 11.4503 18.1146 11.4503 17.5623V9.61912C11.4503 9.06695 11.898 8.61912 12.4503 8.61912H14.0503C14.6026 8.61912 15.0503 9.06695 15.0503 9.61912V17.5623C15.0503 18.1146 14.6026 18.5623 14.0503 18.5623ZM19.4881 17.7624C19.5986 17.7624 19.6881 17.6728 19.6881 17.5624V8.61916C19.6881 8.50867 19.5986 8.41916 19.4881 8.41916H17.8881C17.8618 8.41915 17.8358 8.42432 17.8115 8.43437C17.7873 8.44442 17.7652 8.45915 17.7466 8.47772C17.7281 8.4963 17.7133 8.51835 17.7033 8.54261C17.6932 8.56688 17.6881 8.59289 17.6881 8.61916V17.5624C17.6881 17.6728 17.7776 17.7624 17.8881 17.7624H19.4881ZM19.4881 18.5624H17.8881C17.3358 18.5624 16.8881 18.1147 16.8881 17.5624V8.61916C16.8881 8.06685 17.3358 7.61916 17.8881 7.61916H19.4881C20.0404 7.61916 20.4881 8.06685 20.4881 8.61916V17.5624C20.4881 18.1147 20.0404 18.5624 19.4881 18.5624ZM19.3669 2.11896C13.73 5.29472 7.43881 7.16822 0.87586 7.56519C0.655352 7.57853 0.487403 7.7681 0.500743 7.98861C0.514083 8.20912 0.703653 8.37707 0.924161 8.36373C7.60885 7.95939 14.0177 6.05086 19.7596 2.81595C19.952 2.70752 20.0201 2.46359 19.9117 2.27111C19.8033 2.07863 19.5594 2.01052 19.3669 2.11896Z" fill="black"/>
<path d="M18.1018 2.20039L20.1016 2.2034C20.3225 2.20373 20.5019 2.02492 20.5022 1.804C20.5025 1.58309 20.3237 1.40373 20.1028 1.4034L18.103 1.40039C17.8821 1.40006 17.7027 1.57887 17.7024 1.79979C17.7021 2.0207 17.8809 2.20006 18.1018 2.20039Z" fill="black"/>
<path d="M19.7022 1.80211L19.6962 3.79092C19.6955 4.01184 19.874 4.19147 20.095 4.19213C20.3159 4.1928 20.4955 4.01426 20.4962 3.79334L20.5022 1.80453C20.5028 1.58362 20.3243 1.40399 20.1034 1.40332C19.8825 1.40266 19.7028 1.58119 19.7022 1.80211Z" fill="black"/>
</g>
<defs>
<clipPath id="clip0_1405_969">
<rect width="20" height="20" fill="white" transform="translate(0.5)"/>
</clipPath>
</defs>
</svg>
