<svg width="20" height="20" viewBox="0 0 20 20" fill="none" xmlns="http://www.w3.org/2000/svg">
<g clip-path="url(#clip0_482_516)">
<path fill-rule="evenodd" clip-rule="evenodd" d="M8.4125 15.2812C4.48125 15.2812 1.29438 12.15 1.29438 8.28125C1.29438 4.4125 4.48125 1.27502 8.4125 1.27502C12.3437 1.27502 15.5313 4.4125 15.5313 8.28125C15.5313 12.15 12.3437 15.2812 8.4125 15.2812ZM19.805 18.9062L14.6431 13.825C15.9944 12.3562 16.825 10.4187 16.825 8.28125C16.825 3.70625 13.0587 0 8.4125 0C3.76625 0 0 3.70625 0 8.28125C0 12.85 3.76625 16.5562 8.4125 16.5562C10.42 16.5562 12.2613 15.8625 13.7075 14.7063L18.89 19.8062C19.1431 20.0562 19.5525 20.0562 19.805 19.8062C20.0581 19.5625 20.0581 19.1562 19.805 18.9062Z" fill="#494949"/>
</g>
<defs>
<clipPath id="clip0_482_516">
<rect width="20" height="20" fill="white"/>
</clipPath>
</defs>
</svg>
