<svg width="25" height="26" viewBox="0 0 25 26" fill="none" xmlns="http://www.w3.org/2000/svg">
<path d="M10.7302 14.7655L20.9397 4.55975M11.0204 15.2244L13.3354 19.8545C13.8949 20.9734 14.1746 21.5329 14.527 21.6829C14.8328 21.8131 15.1824 21.7894 15.468 21.6194C15.7971 21.4235 15.9991 20.8315 16.4034 19.6476L20.7775 6.8378C21.1298 5.80629 21.3058 5.29053 21.1853 4.94934C21.0804 4.65253 20.847 4.41905 20.5502 4.31418C20.2089 4.19364 19.6932 4.36975 18.6616 4.72197L5.85178 9.09609C4.66794 9.50033 4.07601 9.70245 3.88006 10.0315C3.71001 10.3171 3.68645 10.6667 3.81663 10.9724C3.96666 11.3248 4.5261 11.6046 5.645 12.164L10.2751 14.4791C10.4595 14.5713 10.5516 14.6173 10.6314 14.6789C10.7024 14.7336 10.7659 14.7971 10.8205 14.868C10.8822 14.9479 10.9282 15.04 11.0204 15.2244Z" stroke="#26B074" stroke-width="2" stroke-linecap="round" stroke-linejoin="round"/>
</svg>
