<svg width="27" height="27" viewBox="0 0 27 27" fill="none" xmlns="http://www.w3.org/2000/svg">
<path fill-rule="evenodd" clip-rule="evenodd" d="M9.01796 14.9148C8.20089 14.3711 7.10889 14.5077 6.45097 15.236C5.79306 15.9642 5.76763 17.0644 6.39122 17.8223C7.01479 18.5801 8.0993 18.7671 8.94062 18.2617C9.78194 17.7564 10.1263 16.7112 9.7502 15.8047C9.59905 15.4425 9.34432 15.1328 9.01796 14.9148Z" stroke="black" stroke-linecap="round" stroke-linejoin="round"/>
<path fill-rule="evenodd" clip-rule="evenodd" d="M20.1582 14.9148C19.3411 14.3711 18.2491 14.5077 17.5912 15.236C16.9332 15.9642 16.9078 17.0644 17.5314 17.8223C18.155 18.5801 19.2396 18.7671 20.0809 18.2617C20.9222 17.7564 21.2665 16.7112 20.8904 15.8047C20.7392 15.4425 20.4846 15.1328 20.1582 14.9148Z" stroke="black" stroke-linecap="round" stroke-linejoin="round"/>
<path fill-rule="evenodd" clip-rule="evenodd" d="M14.5875 12.0852C13.7704 12.6288 12.6784 12.4922 12.0205 11.764C11.3626 11.0357 11.3372 9.93554 11.9608 9.17771C12.5844 8.41976 13.6688 8.23281 14.5101 8.73825C15.3514 9.24359 15.6959 10.2888 15.3197 11.1953C15.1686 11.5575 14.9138 11.8671 14.5875 12.0852Z" stroke="black" stroke-linecap="round" stroke-linejoin="round"/>
<path d="M7.10201 14.58C7.10201 15.0273 7.46465 15.39 7.91201 15.39C8.35935 15.39 8.72201 15.0273 8.72201 14.58H7.10201ZM8.72201 5.93999C8.72201 5.49266 8.35935 5.12999 7.91201 5.12999C7.46465 5.12999 7.10201 5.49266 7.10201 5.93999H8.72201ZM8.72201 18.5468C8.72201 18.0995 8.35935 17.7368 7.91201 17.7368C7.46465 17.7368 7.10201 18.0995 7.10201 18.5468H8.72201ZM7.10201 21.06C7.10201 21.5073 7.46465 21.87 7.91201 21.87C8.35935 21.87 8.72201 21.5073 8.72201 21.06H7.10201ZM18.2433 14.58C18.2433 15.0273 18.6059 15.39 19.0533 15.39C19.5006 15.39 19.8633 15.0273 19.8633 14.58H18.2433ZM19.8633 5.93999C19.8633 5.49266 19.5006 5.12999 19.0533 5.12999C18.6059 5.12999 18.2433 5.49266 18.2433 5.93999H19.8633ZM19.8633 18.5468C19.8633 18.0995 19.5006 17.7368 19.0533 17.7368C18.6059 17.7368 18.2433 18.0995 18.2433 18.5468H19.8633ZM18.2433 21.06C18.2433 21.5073 18.6059 21.87 19.0533 21.87C19.5006 21.87 19.8633 21.5073 19.8633 21.06H18.2433ZM14.2926 12.42C14.2926 11.9727 13.9299 11.61 13.4826 11.61C13.0353 11.61 12.6726 11.9727 12.6726 12.42H14.2926ZM12.6726 21.06C12.6726 21.5073 13.0353 21.87 13.4826 21.87C13.9299 21.87 14.2926 21.5073 14.2926 21.06H12.6726ZM12.6726 8.45315C12.6726 8.90049 13.0353 9.26315 13.4826 9.26315C13.9299 9.26315 14.2926 8.90049 14.2926 8.45315H12.6726ZM14.2926 5.93999C14.2926 5.49266 13.9299 5.12999 13.4826 5.12999C13.0353 5.12999 12.6726 5.49266 12.6726 5.93999H14.2926ZM8.72201 14.58V5.93999H7.10201V14.58H8.72201ZM7.10201 18.5468V21.06H8.72201V18.5468H7.10201ZM19.8633 14.58V5.93999H18.2433V14.58H19.8633ZM18.2433 18.5468V21.06H19.8633V18.5468H18.2433ZM12.6726 12.42V21.06H14.2926V12.42H12.6726ZM14.2926 8.45315V5.93999H12.6726V8.45315H14.2926Z" fill="black"/>
</svg>
