<svg width="27" height="27" viewBox="0 0 27 27" fill="none" xmlns="http://www.w3.org/2000/svg">
<g clip-path="url(#clip0_486_572)">
<rect width="27" height="27" fill="white"/>
<path fill-rule="evenodd" clip-rule="evenodd" d="M6.52694 15.8722C5.30133 15.0567 3.66333 15.2616 2.67646 16.354C1.68959 17.4464 1.65145 19.0967 2.58682 20.2335C3.52218 21.3703 5.14895 21.6507 6.41093 20.8926C7.67291 20.1346 8.18951 18.5668 7.6253 17.2071C7.39858 16.6637 7.01649 16.1993 6.52694 15.8722Z" stroke="black" stroke-width="1.5" stroke-linecap="round" stroke-linejoin="round"/>
<path fill-rule="evenodd" clip-rule="evenodd" d="M23.2373 15.8722C22.0116 15.0567 20.3736 15.2616 19.3867 16.354C18.3998 17.4464 18.3617 19.0967 19.2971 20.2335C20.2325 21.3703 21.8593 21.6507 23.1213 20.8926C24.3833 20.1346 24.8997 18.5668 24.3357 17.2071C24.1089 16.6637 23.7269 16.1993 23.2373 15.8722Z" stroke="black" stroke-width="1.5" stroke-linecap="round" stroke-linejoin="round"/>
<path fill-rule="evenodd" clip-rule="evenodd" d="M14.8812 11.6278C13.6556 12.4433 12.0177 12.2384 11.0308 11.146C10.0439 10.0536 10.0058 8.40334 10.9412 7.26659C11.8766 6.12967 13.5032 5.84925 14.7652 6.60741C16.0272 7.36541 16.5438 8.93325 15.9795 10.2929C15.7529 10.8363 15.3707 11.3007 14.8812 11.6278Z" stroke="black" stroke-width="1.5" stroke-linecap="round" stroke-linejoin="round"/>
<path d="M3.653 15.37C3.653 16.041 4.19696 16.585 4.868 16.585C5.53902 16.585 6.083 16.041 6.083 15.37H3.653ZM6.083 2.40999C6.083 1.73899 5.53902 1.19499 4.868 1.19499C4.19696 1.19499 3.653 1.73899 3.653 2.40999H6.083ZM6.083 21.3203C6.083 20.6492 5.53902 20.1053 4.868 20.1053C4.19696 20.1053 3.653 20.6492 3.653 21.3203H6.083ZM3.653 25.09C3.653 25.761 4.19696 26.305 4.868 26.305C5.53902 26.305 6.083 25.761 6.083 25.09H3.653ZM20.3649 15.37C20.3649 16.041 20.9089 16.585 21.5799 16.585C22.2509 16.585 22.7949 16.041 22.7949 15.37H20.3649ZM22.7949 2.40999C22.7949 1.73899 22.2509 1.19499 21.5799 1.19499C20.9089 1.19499 20.3649 1.73899 20.3649 2.40999H22.7949ZM22.7949 21.3203C22.7949 20.6492 22.2509 20.1053 21.5799 20.1053C20.9089 20.1053 20.3649 20.6492 20.3649 21.3203H22.7949ZM20.3649 25.09C20.3649 25.761 20.9089 26.305 21.5799 26.305C22.2509 26.305 22.7949 25.761 22.7949 25.09H20.3649ZM14.4389 12.13C14.4389 11.459 13.8949 10.915 13.2239 10.915C12.5529 10.915 12.0089 11.459 12.0089 12.13H14.4389ZM12.0089 25.09C12.0089 25.761 12.5529 26.305 13.2239 26.305C13.8949 26.305 14.4389 25.761 14.4389 25.09H12.0089ZM12.0089 6.17973C12.0089 6.85073 12.5529 7.39473 13.2239 7.39473C13.8949 7.39473 14.4389 6.85073 14.4389 6.17973H12.0089ZM14.4389 2.40999C14.4389 1.73899 13.8949 1.19499 13.2239 1.19499C12.5529 1.19499 12.0089 1.73899 12.0089 2.40999H14.4389ZM6.083 15.37L6.083 2.40999H3.653L3.653 15.37H6.083ZM3.653 21.3203L3.653 25.09H6.083V21.3203H3.653ZM22.7949 15.37V2.40999H20.3649V15.37H22.7949ZM20.3649 21.3203V25.09H22.7949V21.3203H20.3649ZM12.0089 12.13V25.09H14.4389V12.13H12.0089ZM14.4389 6.17973V2.40999H12.0089V6.17973H14.4389Z" fill="black"/>
</g>
<defs>
<clipPath id="clip0_486_572">
<rect width="27" height="27" fill="white"/>
</clipPath>
</defs>
</svg>
