<svg width="40" height="40" viewBox="0 0 40 40" fill="none" xmlns="http://www.w3.org/2000/svg">
<path d="M17.4286 19.4285C12.5714 19.4285 8.57141 15.1428 8.57141 10.2857C8.57141 5.42854 12.5714 1.14282 17.7143 1.14282C22.8571 1.14282 26.8571 5.14282 26.8571 10.2857C26.8571 15.4285 22.5714 19.4285 17.4286 19.4285ZM17.4286 3.42854C13.7143 3.42854 10.5714 6.57139 10.5714 10.2857C10.5714 14 13.7143 17.1428 17.4286 17.1428C21.1428 17.1428 24.2857 14 24.2857 10.2857C24.2857 6.57139 21.4286 3.42854 17.4286 3.42854Z" fill="#D72822"/>
<path d="M32 35.4286C32 26 25.4285 18.5714 17.4285 18.5714C9.42855 18.5714 2.85712 26 2.85712 35.4286H32Z" fill="#F4B1B2"/>
<path d="M32 36.2857H1.42859V35.1429C1.42859 25.4286 8.57145 17.4286 17.1429 17.4286C25.7143 17.4286 32.8572 25.4286 32.8572 35.1429V36.2857H32ZM3.7143 34.2857H30.8572C30.5714 26 24.5714 19.7143 17.1429 19.7143C10 19.7143 4.00002 26 3.7143 34.2857Z" fill="#D72822"/>
<path d="M26.2857 19.1429C25.7143 19.1429 25.4286 18.5714 25.4286 18C25.4286 17.4286 25.7143 16.8572 26.2857 16.8572C29.1429 16.8572 31.4286 14.5714 31.4286 11.4286C31.4286 9.14287 30 7.14287 27.7143 6.28572C27.4286 6.57144 27.1429 5.7143 27.4286 5.14287C27.4286 4.57144 28 4.28572 28.5714 4.57144C31.7143 5.42858 33.7143 8.28572 33.7143 11.7143C33.7143 15.7143 30.5714 19.1429 26.2857 19.1429Z" fill="#D72822"/>
<path d="M38 32.5714H35.4286C34.8572 32.5714 34.2857 32 34.2857 31.4285C34.2857 30.8571 34.8572 30.2857 35.4286 30.2857H36.8572C36.2857 24 31.7143 19.1428 26.2857 19.1428C25.7143 19.1428 25.1429 18.5714 25.1429 18C25.1429 17.4285 25.4286 17.1428 26 17.1428C33.1429 17.1428 38.8572 23.7143 38.8572 31.7143V32.8571L38 32.5714Z" fill="#D72822"/>
</svg>
