<svg width="50" height="50" viewBox="0 0 50 50" fill="none" xmlns="http://www.w3.org/2000/svg">
<g clip-path="url(#clip0_220_600)">
<path d="M23.8281 37.5C33.1048 37.5 40.625 29.9798 40.625 20.7031C40.625 11.4265 33.1048 3.90625 23.8281 3.90625C14.5515 3.90625 7.03125 11.4265 7.03125 20.7031C7.03125 29.9798 14.5515 37.5 23.8281 37.5Z" fill="#E5EFEF"/>
<path d="M11.7188 8.95544V10.0609" stroke="#4C241D" stroke-width="1.875" stroke-linecap="round" stroke-linejoin="round"/>
<path d="M11.7188 13.3766V14.4821" stroke="#4C241D" stroke-width="1.875" stroke-linecap="round" stroke-linejoin="round"/>
<path d="M8.95544 11.7188H10.0609" stroke="#4C241D" stroke-width="1.875" stroke-linecap="round" stroke-linejoin="round"/>
<path d="M13.3766 11.7188H14.4821" stroke="#4C241D" stroke-width="1.875" stroke-linecap="round" stroke-linejoin="round"/>
<path d="M17.1875 18.75C17.619 18.75 17.9688 18.4002 17.9688 17.9688C17.9688 17.5373 17.619 17.1875 17.1875 17.1875C16.756 17.1875 16.4062 17.5373 16.4062 17.9688C16.4062 18.4002 16.756 18.75 17.1875 18.75Z" fill="#4C241D"/>
<path d="M30.8734 18.75C30.1125 19.7009 29.6947 20.8806 29.6875 22.0984C29.7406 22.6387 29.9026 23.1626 30.1636 23.6385C30.4246 24.1145 30.7793 24.5327 31.2063 24.868C32.7091 26.2505 34.6767 27.0179 36.7188 27.0179C38.7608 27.0179 40.7284 26.2505 42.2312 24.868C42.6582 24.5327 43.0129 24.1145 43.2739 23.6385C43.5349 23.1626 43.6969 22.6387 43.75 22.0984C43.7428 20.8806 43.325 19.7009 42.5641 18.75H30.8734Z" fill="#FC8C29" stroke="#4C241D" stroke-width="1.875" stroke-linecap="round" stroke-linejoin="round"/>
<path d="M42.5781 16.4062H30.8594C30.2122 16.4062 29.6875 16.9309 29.6875 17.5781C29.6875 18.2253 30.2122 18.75 30.8594 18.75H42.5781C43.2253 18.75 43.75 18.2253 43.75 17.5781C43.75 16.9309 43.2253 16.4062 42.5781 16.4062Z" fill="#FC8C29" stroke="#4C241D" stroke-width="1.875" stroke-linecap="round" stroke-linejoin="round"/>
<path d="M36.7188 14.4531V11.3281C36.7188 11.0173 36.5953 10.7193 36.3755 10.4995C36.1557 10.2797 35.8577 10.1563 35.5469 10.1562H33.9844C33.6736 10.1562 33.3755 10.0328 33.1557 9.81302C32.936 9.59325 32.8125 9.29518 32.8125 8.98438C32.8125 8.67357 32.936 8.3755 33.1557 8.15573C33.3755 7.93596 33.6736 7.8125 33.9844 7.8125H34.7656C35.0764 7.8125 35.3745 7.68904 35.5943 7.46927C35.814 7.2495 35.9375 6.95143 35.9375 6.64062V3.125" stroke="#B5A19C" stroke-width="1.875" stroke-linecap="round" stroke-linejoin="round"/>
<path d="M0.78125 27.3438V30.4688L25 46.875L49.2188 30.4688V27.3438H0.78125Z" fill="#BD53B5" stroke="#4C241D" stroke-width="1.875" stroke-linecap="round" stroke-linejoin="round"/>
<path d="M33.5938 12.5H39.0625C39.2697 12.5 39.4684 12.4177 39.6149 12.2712C39.7614 12.1247 39.8438 11.926 39.8438 11.7188V7.03125C39.8438 6.82405 39.9261 6.62534 40.0726 6.47882C40.2191 6.33231 40.4178 6.25 40.625 6.25C40.8322 6.25 41.0309 6.16769 41.1774 6.02118C41.3239 5.87466 41.4062 5.67595 41.4062 5.46875V3.125" stroke="#B5A19C" stroke-width="1.875" stroke-linecap="round" stroke-linejoin="round"/>
<path d="M1.5625 30.4688H14.8438" stroke="#4C241D" stroke-width="1.875" stroke-linecap="round" stroke-linejoin="round"/>
<path d="M17.1875 30.4688H20.3125" stroke="#4C241D" stroke-width="1.875" stroke-linecap="round" stroke-linejoin="round"/>
<path d="M20.3125 36.7188V30.4688" stroke="#4C241D" stroke-width="1.875" stroke-linecap="round" stroke-linejoin="round"/>
<path d="M23.4375 39.8438V32.8125" stroke="#4C241D" stroke-width="1.875" stroke-linecap="round" stroke-linejoin="round"/>
<path d="M26.5625 36.7188V42.1875" stroke="#4C241D" stroke-width="1.875" stroke-linecap="round" stroke-linejoin="round"/>
<path d="M30.4688 30.4688H38.2812" stroke="#4C241D" stroke-width="1.875" stroke-linecap="round" stroke-linejoin="round"/>
<path d="M6.25 30.4688H2.34375V49.2188H6.25V30.4688Z" fill="#BF7E68" stroke="#4C241D" stroke-width="1.875" stroke-linecap="round" stroke-linejoin="round"/>
<path d="M47.6562 30.4688H43.75V49.2188H47.6562V30.4688Z" fill="#BF7E68" stroke="#4C241D" stroke-width="1.875" stroke-linecap="round" stroke-linejoin="round"/>
<path d="M16.4062 22.6562H23.4375V24.7484C23.4375 25.4368 23.1641 26.0969 22.6774 26.5836C22.1906 27.0703 21.5305 27.3438 20.8422 27.3438H19.0016C18.3132 27.3438 17.6531 27.0703 17.1664 26.5836C16.6797 26.0969 16.4063 25.4368 16.4062 24.7484V22.6562Z" fill="#FC8C29" stroke="#4C241D" stroke-width="1.875" stroke-linecap="round" stroke-linejoin="round"/>
<path d="M7.03125 22.6562H14.0625V24.7484C14.0625 25.4368 13.7891 26.0969 13.3024 26.5836C12.8156 27.0703 12.1555 27.3438 11.4672 27.3438H9.62656C8.93824 27.3438 8.27811 27.0703 7.7914 26.5836C7.30468 26.0969 7.03125 25.4368 7.03125 24.7484V22.6562Z" fill="#FC8C29" stroke="#4C241D" stroke-width="1.875" stroke-linecap="round" stroke-linejoin="round"/>
<path d="M23.8281 8.59375C24.9068 8.59375 25.7812 7.71931 25.7812 6.64062C25.7812 5.56194 24.9068 4.6875 23.8281 4.6875C22.7494 4.6875 21.875 5.56194 21.875 6.64062C21.875 7.71931 22.7494 8.59375 23.8281 8.59375Z" stroke="#4C241D" stroke-width="1.875" stroke-linecap="round" stroke-linejoin="round"/>
</g>
<defs>
<clipPath id="clip0_220_600">
<rect width="50" height="50" fill="white"/>
</clipPath>
</defs>
</svg>
