<svg width="20" height="20" viewBox="0 0 20 20" fill="none" xmlns="http://www.w3.org/2000/svg">
<path d="M20 5.44826C20 2.90864 14.847 1.5368 10.0022 1.5368C5.15737 1.5368 0 2.90864 0 5.44826C0 7.90973 4.83178 9.27286 9.54199 9.35536V14.4737C9.53332 14.5041 9.5203 14.5301 9.50728 14.5605C9.32059 14.5735 9.15999 14.7037 9.11657 14.8904C9.06883 15.0597 9.00371 15.2204 8.92121 15.3766C8.87779 15.3983 8.83005 15.4114 8.78231 15.4201C8.27874 15.4852 7.55808 14.6994 7.28894 14.3087C7.15435 14.109 6.88085 14.0613 6.6855 14.1959C6.49014 14.3304 6.43805 14.6039 6.57264 14.7993C6.66816 14.9382 7.4018 15.9801 8.32216 16.2319C7.79255 16.8049 6.9373 17.3866 5.56115 17.5994C5.32237 17.6341 5.16177 17.8555 5.19648 18.0943C5.22689 18.307 5.41353 18.4633 5.62627 18.4633C5.64796 18.4633 5.66969 18.4633 5.69138 18.4589C8.00524 18.1073 9.09923 16.844 9.58982 15.9671C9.73743 15.8412 9.86767 15.6979 9.97186 15.5329C10.076 15.6936 10.2063 15.8411 10.3539 15.9671C10.8488 16.844 11.9428 18.1073 14.2566 18.4589C14.2783 18.4633 14.3001 18.4633 14.3218 18.4633C14.5605 18.4633 14.7559 18.2679 14.7559 18.0292C14.7559 17.8121 14.5996 17.6298 14.3869 17.5994C13.0064 17.3866 12.1468 16.8049 11.6215 16.2319C12.5418 15.9758 13.2799 14.9339 13.3753 14.7949C13.5099 14.5952 13.4578 14.3261 13.2625 14.1915C13.0628 14.0569 12.7936 14.109 12.659 14.3044C12.3942 14.6951 11.6736 15.4852 11.1657 15.4157C11.1179 15.4114 11.0658 15.394 11.0224 15.3723C10.9443 15.216 10.8792 15.0554 10.8314 14.8861C10.788 14.7037 10.6274 14.5691 10.4407 14.5605C10.4277 14.5301 10.419 14.504 10.406 14.4737L10.4103 9.35971C15.1335 9.28589 20 7.9184 20 5.44826ZM10.1064 8.4958C10.0369 8.4654 9.95444 8.4654 9.88496 8.4958C4.58869 8.4654 0.902988 6.88086 0.902988 5.45693C0.902988 4.01997 4.64514 2.41806 10.0196 2.41806C15.394 2.41806 19.1361 4.01997 19.1361 5.45693C19.1361 6.88518 15.433 8.47842 10.1064 8.4958Z" fill="black"/>
<path d="M19 5C19 6.65685 14.9706 7.5 10 7.5C5.02944 7.5 1 6.65685 1 5C1 3.34315 5.02944 2 10 2C14.9706 2 19 3.34315 19 5Z" fill="black"/>
</svg>
