<svg width="15" height="15" viewBox="0 0 15 15" fill="none" xmlns="http://www.w3.org/2000/svg">
<g clip-path="url(#clip0_399_515)">
<path fill-rule="evenodd" clip-rule="evenodd" d="M8.65306 7.77099L10.5782 8.88248C10.7662 8.99098 10.827 9.23752 10.7212 9.4208C10.6121 9.6096 10.3769 9.67784 10.1835 9.56619L8.22571 8.43586C8.02526 8.59153 7.77345 8.68421 7.5 8.68421C6.84598 8.68421 6.31579 8.15402 6.31579 7.5C6.31579 6.98439 6.64532 6.54574 7.10526 6.38318V2.76586C7.10526 2.54636 7.28837 2.36842 7.5 2.36842C7.71801 2.36842 7.89474 2.55229 7.89474 2.76586V6.38318C8.35468 6.54574 8.68421 6.98439 8.68421 7.5C8.68421 7.59324 8.67343 7.68396 8.65306 7.77099ZM7.5 15C11.6421 15 15 11.6421 15 7.5C15 3.35786 11.6421 0 7.5 0C3.35786 0 0 3.35786 0 7.5C0 11.6421 3.35786 15 7.5 15Z" fill="#239A66"/>
</g>
<defs>
<clipPath id="clip0_399_515">
<rect width="15" height="15" fill="white"/>
</clipPath>
</defs>
</svg>
