<svg width="20" height="20" viewBox="0 0 20 20" fill="none" xmlns="http://www.w3.org/2000/svg">
<g clip-path="url(#clip0_954_676)">
<path fill-rule="evenodd" clip-rule="evenodd" d="M17.8788 11.5151H14.8485C14.5139 11.5151 14.2424 11.7866 14.2424 12.1212V14.5454C14.2424 14.8806 14.5139 15.1515 14.8485 15.1515H17.8788V18.1818C17.8788 18.5169 17.6072 18.7879 17.2727 18.7879H2.72724C2.39269 18.7879 2.12118 18.5169 2.12118 18.1818V6.66664H17.2727C17.6072 6.66664 17.8788 6.93755 17.8788 7.2727V11.5151ZM17.8788 13.3333V13.9394H15.4545V13.3333V12.7272H17.8788V13.3333ZM16.6666 1.81816V5.45452H4.84845L16.6666 1.81816ZM17.8788 5.45452V1.2121C17.8788 0.876945 17.7357 0.691484 17.4242 0.568453C17.1842 0.473302 16.9509 0.530279 16.6666 0.606036L0.909058 5.45452V18.7879C0.909058 19.4569 1.45209 20 2.12118 20H17.8788C18.5478 20 19.0909 19.4569 19.0909 18.7879V6.66664C19.0909 5.99755 18.5478 5.45452 17.8788 5.45452Z" fill="#0080A9"/>
</g>
<defs>
<clipPath id="clip0_954_676">
<rect width="20" height="20" fill="white"/>
</clipPath>
</defs>
</svg>
