<svg width="12" height="12" viewBox="0 0 12 12" fill="none" xmlns="http://www.w3.org/2000/svg">
<g clip-path="url(#clip0_1787_788)">
<path d="M11.9596 11.4901V2.9977C11.9596 2.79422 11.8566 2.61525 11.6801 2.53925L6.19584 0.0386128C6.06836 -0.0128709 5.91636 -0.0128709 5.78887 0.0386128L0.30463 2.53925C0.125662 2.61525 0.0251465 2.79422 0.0251465 2.9977V11.4901C0.0251465 11.7695 0.255597 12 0.535081 12C0.814564 12 1.04501 11.7695 1.04501 11.4901V3.32867L6.04384 1.05848L11.0157 3.32867V11.4901C11.0157 11.7695 11.2461 12 11.5256 12C11.8051 12 12.038 11.772 11.9596 11.4901Z" fill="white"/>
<path d="M7.6767 7.00133C7.95618 7.00133 8.18663 6.77088 8.18663 6.4914V3.20134C8.18663 2.92186 7.95618 2.69141 7.6767 2.69141H4.38664C4.10716 2.69141 3.87671 2.92186 3.87671 3.20134V6.4914C3.87671 6.77088 4.10716 7.00133 4.38664 7.00133H7.6767ZM4.89658 3.73824H7.16676V6.00843H4.89658V3.73824Z" fill="white"/>
<path d="M5.22748 7.68994H1.93742C1.65794 7.68994 1.42749 7.92039 1.42749 8.19988V11.4899C1.42749 11.7694 1.65794 11.9999 1.93742 11.9999H5.22748C5.50696 11.9999 5.73741 11.7694 5.73741 11.4899V8.19988C5.73741 7.92039 5.50696 7.68994 5.22748 7.68994ZM4.71755 11.007H2.44736V8.73678H4.71755V11.007Z" fill="white"/>
<path d="M10.1232 7.68994H6.83318C6.55369 7.68994 6.32324 7.92039 6.32324 8.19988V11.4899C6.32324 11.7694 6.55369 11.9999 6.83318 11.9999H10.1232C10.4027 11.9999 10.6332 11.7694 10.6332 11.4899V8.19988C10.6332 7.92039 10.4052 7.68994 10.1232 7.68994ZM9.6133 11.007H7.34311V8.73678H9.6133V11.007Z" fill="white"/>
</g>
<defs>
<clipPath id="clip0_1787_788">
<rect width="12" height="12" fill="white"/>
</clipPath>
</defs>
</svg>
