<svg width="40" height="40" viewBox="0 0 40 40" fill="none" xmlns="http://www.w3.org/2000/svg">
<g clip-path="url(#clip0_1724_1701)">
<path d="M39.041 12.7818L20.3744 0.115049C20.1483 -0.0383106 19.8517 -0.0383887 19.6257 0.115049L0.95897 12.7818C0.776157 12.9058 0.666626 13.1123 0.666626 13.3333V39.3333C0.666626 39.7015 0.965142 40 1.33327 40H38.6666C39.0348 40 39.3333 39.7015 39.3333 39.3333V13.3333C39.3333 13.1123 39.2239 12.9058 39.041 12.7818Z" fill="#F07B52"/>
<path d="M2.6667 39.3334V13.3334C2.6667 13.1124 2.77624 12.9058 2.95905 12.7818L21 0.539658L20.3743 0.115049C20.1483 -0.0383106 19.8516 -0.0383887 19.6256 0.115049L0.95897 12.7818C0.776157 12.9058 0.666626 13.1125 0.666626 13.3334V39.3334C0.666626 39.7016 0.965142 40 1.33327 40H3.33327C2.96514 40 2.6667 39.7017 2.6667 39.3334Z" fill="#E5563C"/>
<path d="M32 16H8.00002C7.63181 16 7.33337 16.2985 7.33337 16.6666V39.3333C7.33337 39.7015 7.63189 39.9999 8.00002 39.9999H32C32.3682 39.9999 32.6667 39.7014 32.6667 39.3333V16.6667C32.6667 16.2985 32.3682 16 32 16Z" fill="#74757B"/>
<path d="M8.00002 16C7.63181 16 7.33337 16.2985 7.33337 16.6666V39.3333C7.33337 39.7015 7.63189 39.9999 8.00002 39.9999H9.33337V16H8.00002Z" fill="#606268"/>
<path d="M33.3333 13.3334H6.6667C6.2985 13.3334 6.00006 13.6319 6.00006 14V16.6667C6.00006 17.0349 6.29858 17.3333 6.6667 17.3333H33.3333C33.7015 17.3333 34 17.0348 34 16.6667V14C34 13.6319 33.7015 13.3334 33.3333 13.3334Z" fill="#C3C4C6"/>
<path d="M33.3333 16H6.6667C6.2985 16 6.00006 15.7015 6.00006 15.3334V16.6667C6.00006 17.0349 6.29858 17.3334 6.6667 17.3334H33.3333C33.7015 17.3334 34 17.0349 34 16.6667V15.3334C34 15.7017 33.7015 16 33.3333 16Z" fill="#AFB0B4"/>
<path d="M22.6667 6.00003H17.3334C16.9652 6.00003 16.6667 5.70151 16.6667 5.33339C16.6667 4.96519 16.9653 4.66675 17.3334 4.66675H22.6667C23.035 4.66675 23.3334 4.96526 23.3334 5.33339C23.3334 5.70159 23.0349 6.00003 22.6667 6.00003Z" fill="#E5563C"/>
<path d="M22.6667 8.66678H17.3334C16.9652 8.66678 16.6667 8.36826 16.6667 8.00014C16.6667 7.63201 16.9653 7.3335 17.3334 7.3335H22.6667C23.035 7.3335 23.3334 7.63201 23.3334 8.00014C23.3334 8.36826 23.0349 8.66678 22.6667 8.66678Z" fill="#E5563C"/>
<path d="M22.6667 11.3334H17.3334C16.9652 11.3334 16.6667 11.0349 16.6667 10.6668C16.6667 10.2986 16.9653 10.0001 17.3334 10.0001H22.6667C23.035 10.0001 23.3334 10.2986 23.3334 10.6668C23.3334 11.0349 23.0349 11.3334 22.6667 11.3334Z" fill="#E5563C"/>
<path d="M16 21.3334H8.00002C7.63181 21.3334 7.33337 21.6319 7.33337 22V30C7.33337 30.3682 7.63189 30.6667 8.00002 30.6667L12 31.3333L16 30.6667C16.3682 30.6667 16.6667 30.3681 16.6667 30V22C16.6667 21.6319 16.3683 21.3334 16 21.3334Z" fill="#FDDD85"/>
<path d="M16 30.6667H8.00002C7.63181 30.6667 7.33337 30.9653 7.33337 31.3334V39.3334C7.33337 39.7016 7.63189 40 8.00002 40H16C16.3682 40 16.6667 39.7015 16.6667 39.3334V31.3334C16.6667 30.9653 16.3683 30.6667 16 30.6667Z" fill="#FDDD85"/>
<path d="M8.66673 39.3334V31.3334C8.66673 30.9652 8.96525 30.6667 9.33337 30.6667H8.00002C7.63181 30.6667 7.33337 30.9653 7.33337 31.3334V39.3334C7.33337 39.7016 7.63189 40 8.00002 40H9.33337C8.96517 40 8.66673 39.7017 8.66673 39.3334Z" fill="#FDD042"/>
<path d="M13.3334 30.6667H10.6667V34C10.6667 34.3682 10.9653 34.6667 11.3334 34.6667H12.6667C13.035 34.6667 13.3334 34.3682 13.3334 34V30.6667Z" fill="#F2C127"/>
<path d="M13.3333 38.6668H10.6667C10.2985 38.6668 10.0001 38.3683 10.0001 38.0001C10.0001 37.632 10.2986 37.3335 10.6667 37.3335H13.3333C13.7015 37.3335 14 37.632 14 38.0001C14 38.3683 13.7015 38.6668 13.3333 38.6668Z" fill="#74757B"/>
<path d="M8.66673 30V22C8.66673 21.6318 8.96525 21.3334 9.33337 21.3334H8.00002C7.63181 21.3334 7.33337 21.6319 7.33337 22V30C7.33337 30.3682 7.63189 30.6667 8.00002 30.6667H9.33337C8.96517 30.6667 8.66673 30.3683 8.66673 30Z" fill="#FDD042"/>
<path d="M13.3334 21.3334H10.6667V24.6667C10.6667 25.0349 10.9653 25.3334 11.3334 25.3334H12.6667C13.035 25.3334 13.3334 25.0349 13.3334 24.6667V21.3334Z" fill="#F2C127"/>
<path d="M13.3333 29.3334H10.6667C10.2985 29.3334 10.0001 29.0349 10.0001 28.6668C10.0001 28.2986 10.2986 28.0001 10.6667 28.0001H13.3333C13.7015 28.0001 14 28.2986 14 28.6668C14 29.0349 13.7015 29.3334 13.3333 29.3334Z" fill="#74757B"/>
<path d="M25.3334 30.6667H17.3334C16.9652 30.6667 16.6667 30.9653 16.6667 31.3334V39.3334C16.6667 39.7016 16.9653 40 17.3334 40H25.3334C25.7016 40 26 39.7015 26 39.3334V31.3334C26 30.9653 25.7016 30.6667 25.3334 30.6667Z" fill="#FDDD85"/>
<path d="M18 39.3334V31.3334C18 30.9652 18.2985 30.6667 18.6666 30.6667H17.3333C16.9651 30.6667 16.6666 30.9653 16.6666 31.3334V39.3334C16.6666 39.7016 16.9651 40 17.3333 40H18.6666C18.2985 40 18 39.7017 18 39.3334Z" fill="#FDD042"/>
<path d="M22.6667 30.6667H20V34C20 34.3682 20.2985 34.6667 20.6666 34.6667H22C22.3682 34.6667 22.6666 34.3682 22.6666 34V30.6667H22.6667Z" fill="#F2C127"/>
<path d="M22.6667 38.6668H20C19.6318 38.6668 19.3334 38.3683 19.3334 38.0001C19.3334 37.632 19.6319 37.3335 20 37.3335H22.6667C23.0349 37.3335 23.3333 37.632 23.3333 38.0001C23.3333 38.3683 23.0349 38.6668 22.6667 38.6668Z" fill="#74757B"/>
</g>
<defs>
<clipPath id="clip0_1724_1701">
<rect width="40" height="40" fill="white"/>
</clipPath>
</defs>
</svg>
