<svg width="61" height="60" viewBox="0 0 61 60" fill="none" xmlns="http://www.w3.org/2000/svg">
<path fill-rule="evenodd" clip-rule="evenodd" d="M25.0956 46.1167C25.5257 46.923 25.9565 47.6495 26.3682 48.2933C21.9936 47.3095 18.1976 44.7967 15.5709 41.3457C17.3045 40.3695 19.5249 39.3575 22.1941 38.617C22.9528 41.5925 24.0231 44.1057 25.0956 46.1167ZM28.4045 44.352C27.4728 42.6053 26.539 40.4238 25.8662 37.839C27.3145 37.624 28.8605 37.5 30.5003 37.5C32.1398 37.5 33.6858 37.624 35.1338 37.8387C34.461 40.4237 33.5272 42.6053 32.5955 44.352C31.8485 45.7528 31.1042 46.871 30.5 47.6893C29.8958 46.871 29.1515 45.7528 28.4045 44.352ZM24.875 30C24.875 31.4603 24.9732 32.8462 25.1465 34.1547C26.8172 33.8985 28.6035 33.75 30.5003 33.75C32.3968 33.75 34.183 33.8982 35.8535 34.1547C36.0268 32.846 36.125 31.4603 36.125 30C36.125 28.5397 36.0268 27.154 35.8535 25.8453C34.183 26.1015 32.3968 26.25 30.5003 26.25C28.6035 26.25 26.8172 26.1015 25.1465 25.8453C24.9732 27.1538 24.875 28.5397 24.875 30ZM21.4672 25.072C21.2494 26.6195 21.125 28.2635 21.125 30C21.125 31.7365 21.2494 33.3805 21.4672 34.928C18.2834 35.7827 15.647 36.988 13.6081 38.1477C12.4174 35.684 11.75 32.92 11.75 30C11.75 27.08 12.4174 24.3161 13.6081 21.8522C15.6468 23.0118 18.2832 24.2172 21.4672 25.072ZM25.8662 22.1611C27.3145 22.3761 28.8605 22.5 30.5003 22.5C32.1398 22.5 33.6858 22.3761 35.1338 22.1612C34.461 19.5764 33.5272 17.3948 32.5955 15.648C31.8485 14.2474 31.1042 13.1289 30.5 12.3108C29.8958 13.1289 29.1515 14.2474 28.4045 15.648C27.4728 17.3948 26.539 19.5763 25.8662 22.1611ZM39.5328 25.0723C39.7505 26.6198 39.875 28.2637 39.875 30C39.875 31.7365 39.7505 33.3802 39.5328 34.9277C42.7165 35.7827 45.353 36.988 47.392 38.1477C48.5825 35.6837 49.25 32.9197 49.25 30C49.25 27.0803 48.5825 24.3162 47.392 21.8523C45.3532 23.0119 42.7168 24.2173 39.5328 25.0723ZM45.429 18.6545C43.6952 19.6308 41.475 20.6426 38.806 21.3832C38.0473 18.4076 36.977 15.8942 35.9045 13.8833C35.4743 13.0769 35.0435 12.3506 34.6318 11.7068C39.0065 12.6906 42.8025 15.2034 45.429 18.6545ZM22.1941 21.3831C19.525 20.6425 17.3047 19.6307 15.571 18.6543C18.1976 15.2033 21.9936 12.6906 26.368 11.7068C25.9565 12.3506 25.5258 13.0769 25.0956 13.8832C24.0231 15.8942 22.9528 18.4075 22.1941 21.3831ZM38.806 38.6168C38.0473 41.5925 36.977 44.1057 35.9045 46.1167C35.4743 46.923 35.0435 47.6495 34.6318 48.2933C39.0065 47.3095 42.8025 44.7965 45.4293 41.3455C43.6955 40.3693 41.4753 39.3575 38.806 38.6168ZM30.5 52.5C42.9265 52.5 53 42.4265 53 30C53 17.5736 42.9265 7.5 30.5 7.5C18.0736 7.5 8 17.5736 8 30C8 42.4265 18.0736 52.5 30.5 52.5Z" fill="#0080A9"/>
</svg>
