<svg width="21" height="20" viewBox="0 0 21 20" fill="none" xmlns="http://www.w3.org/2000/svg">
<path fill-rule="evenodd" clip-rule="evenodd" d="M5.19671 4.69671C6.49846 3.39496 8.60901 3.39496 9.91075 4.69671L12.2678 7.05374C13.5695 8.3555 13.5695 10.466 12.2678 11.7678C11.9423 12.0933 11.4147 12.0933 11.0893 11.7678C10.7638 11.4423 10.7638 10.9147 11.0893 10.5893C11.7402 9.93842 11.7402 8.88308 11.0893 8.23224L8.73224 5.87522C8.08137 5.22435 7.02609 5.22435 6.37522 5.87522C5.72435 6.52609 5.72435 7.58137 6.37522 8.23224L6.96448 8.8215C7.28992 9.14692 7.28991 9.67459 6.96448 10C6.63904 10.3254 6.1114 10.3254 5.78597 10L5.19671 9.41075C3.89496 8.10901 3.89496 5.99846 5.19671 4.69671ZM9.91075 8.23225C10.2362 8.55767 10.2362 9.08534 9.91075 9.41075C9.25992 10.0617 9.25992 11.1169 9.91075 11.7678L12.2678 14.1248C12.9187 14.7757 13.9739 14.7757 14.6248 14.1248C15.2757 13.4739 15.2757 12.4187 14.6248 11.7678L14.0356 11.1785C13.7101 10.8531 13.7101 10.3254 14.0356 10C14.361 9.67459 14.8886 9.67459 15.2141 10L15.8033 10.5893C17.1051 11.891 17.1051 14.0016 15.8033 15.3033C14.5016 16.6051 12.391 16.6051 11.0893 15.3033L8.73225 12.9463C7.4305 11.6446 7.4305 9.534 8.73225 8.23225C9.05767 7.90681 9.58534 7.90681 9.91075 8.23225Z" fill="#0080A9"/>
</svg>
